<svg width="53" height="53" viewBox="0 0 53 53" fill="none" xmlns="http://www.w3.org/2000/svg">
<g clip-path="url(#clip0_1_6019)">
<mask id="mask0_1_6019" style="mask-type:luminance" maskUnits="userSpaceOnUse" x="0" y="0" width="52" height="52">
<path d="M51.8632 0.03125H0.5V51.3945H51.8632V0.03125Z" fill="white"/>
</mask>
<g mask="url(#mask0_1_6019)">
<path d="M1.48108 1.01233H50.8821V50.4133H1.48108V1.01233Z" stroke="#BABABA" stroke-width="2"/>
<path d="M11.3041 16.5721C10.7211 16.2633 10.2341 15.8004 9.89619 15.2338C9.56046 14.6442 9.38391 13.9775 9.38391 13.299C9.38391 12.6206 9.56046 11.9538 9.89619 11.3642C10.2341 10.7976 10.7211 10.3347 11.3041 10.026C11.9241 9.69882 12.6165 9.53314 13.3174 9.54422C13.9019 9.53546 14.4819 9.64805 15.0206 9.87486C15.5149 10.0871 15.952 10.4131 16.2961 10.8266L15.2168 11.8224C14.9971 11.5531 14.7193 11.3368 14.4045 11.1896C14.0895 11.0423 13.7454 10.9678 13.3978 10.9718C12.9791 10.9639 12.5655 11.0654 12.1979 11.2661C11.851 11.4572 11.5654 11.743 11.3747 12.0903C11.1808 12.4619 11.0797 12.8749 11.0797 13.2941C11.0797 13.7133 11.1808 14.1263 11.3747 14.498C11.5654 14.8452 11.851 15.1311 12.1979 15.3221C12.5655 15.5228 12.9791 15.6243 13.3978 15.6164C13.7464 15.6201 14.0913 15.5444 14.4063 15.3954C14.7215 15.2464 14.9985 15.0278 15.2168 14.756L16.2961 15.7518C15.9524 16.1722 15.5121 16.503 15.0128 16.7163C14.4722 16.943 13.8907 17.056 13.3046 17.0479C12.6085 17.0595 11.9205 16.8959 11.3041 16.5721Z" fill="#BEBEBE"/>
<path d="M22.0564 15.3731H18.6921L18.0495 16.9302H16.3325L19.5703 9.6698H21.2274L24.4651 16.9302H22.7001L22.0564 15.3731ZM21.5276 14.0976L20.3797 11.3171L19.2298 14.0967L21.5276 14.0976Z" fill="white"/>
<path d="M29.8309 16.9302L28.4338 14.9052H26.8905V16.9302H25.2167V9.66986H28.3484C28.9209 9.65687 29.4896 9.76625 30.0164 9.9907C30.4683 10.1804 30.8514 10.5035 31.1145 10.917C31.3775 11.3305 31.5079 11.8145 31.4881 12.3042C31.508 12.7937 31.3752 13.2773 31.1082 13.6881C30.8412 14.0989 30.4532 14.4165 29.9977 14.5971L31.6235 16.9312L29.8309 16.9302ZM29.4071 11.3623C29.0741 11.1225 28.6676 11.007 28.2582 11.0356H26.8905V13.5669H28.2582C28.6682 13.5958 29.0752 13.4786 29.4071 13.2363C29.5318 13.1144 29.6309 12.9689 29.6985 12.8083C29.7662 12.6476 29.801 12.4751 29.801 12.3008C29.801 12.1264 29.7662 11.9538 29.6985 11.7932C29.6309 11.6326 29.5318 11.487 29.4071 11.3653V11.3623Z" fill="white"/>
<path d="M11.3149 29.0148C10.7294 28.7048 10.24 28.2403 9.90009 27.6716C9.56473 27.086 9.38831 26.4229 9.38831 25.7481C9.38831 25.0733 9.56473 24.4102 9.90009 23.8246C10.2397 23.2557 10.7291 22.7911 11.3149 22.4814C11.9441 22.1606 12.6404 21.9934 13.3468 21.9934C14.0532 21.9934 14.7495 22.1606 15.3788 22.4814C15.97 22.798 16.4643 23.2693 16.809 23.8447C17.1535 24.4201 17.3355 25.0784 17.3355 25.7491C17.3355 26.4199 17.1535 27.078 16.809 27.6535C16.4643 28.2289 15.97 28.7001 15.3788 29.0167C14.7495 29.3376 14.0532 29.5048 13.3468 29.5048C12.6404 29.5048 11.9441 29.3376 11.3149 29.0167V29.0148ZM14.5075 27.7746C14.8479 27.5798 15.1277 27.2946 15.316 26.9505C15.5099 26.5788 15.611 26.1659 15.611 25.7466C15.611 25.3274 15.5099 24.9144 15.316 24.5428C15.1277 24.1987 14.8479 23.9135 14.5075 23.7186C14.1513 23.5238 13.7519 23.4216 13.3459 23.4216C12.9398 23.4216 12.5404 23.5238 12.1842 23.7186C11.8433 23.9127 11.5632 24.1982 11.3758 24.5428C11.1819 24.9144 11.0806 25.3274 11.0806 25.7466C11.0806 26.1659 11.1819 26.5788 11.3758 26.9505C11.5632 27.2951 11.8433 27.5806 12.1842 27.7746C12.5404 27.9695 12.9398 28.0716 13.3459 28.0716C13.7519 28.0716 14.1513 27.9695 14.5075 27.7746Z" fill="#BEBEBE"/>
<path d="M25.2244 22.1165V29.3768H23.8508L20.2373 24.9676V29.3778H18.5782V22.1174H19.9616L23.5644 26.5266V22.1165H25.2244Z" fill="white"/>
<path d="M10.5419 41.589C10.0787 41.4676 9.642 41.2617 9.25366 40.9817L9.82272 39.716C10.1613 39.9577 10.5367 40.1432 10.9343 40.2655C11.3485 40.4019 11.7816 40.4722 12.2177 40.4735C12.5823 40.4981 12.9468 40.4246 13.2734 40.2606C13.3763 40.2063 13.4626 40.125 13.5229 40.0255C13.5832 39.9259 13.6153 39.8118 13.6158 39.6954C13.6171 39.613 13.5995 39.5314 13.5645 39.4567C13.5294 39.3821 13.4778 39.3164 13.4137 39.2647C13.2606 39.1401 13.0846 39.0468 12.8956 38.99C12.6857 38.9246 12.4011 38.8484 12.042 38.7614C11.5825 38.6584 11.1297 38.5273 10.6861 38.3689C10.334 38.2389 10.0209 38.021 9.77661 37.7361C9.51199 37.4082 9.37751 36.9943 9.39887 36.5735C9.39544 36.1656 9.51511 35.7662 9.74227 35.4275C9.99957 35.0629 10.3575 34.7813 10.7725 34.6171C11.3062 34.4003 11.8792 34.2967 12.4551 34.3129C12.9122 34.3124 13.3675 34.3681 13.811 34.4788C14.2203 34.5756 14.6117 34.7366 14.9707 34.9556L14.4537 36.2311C13.8459 35.8676 13.1533 35.6707 12.4453 35.66C12.0834 35.6332 11.7217 35.7127 11.4043 35.8886C11.3008 35.951 11.2153 36.0392 11.1563 36.1447C11.0973 36.2502 11.0668 36.3692 11.0678 36.4901C11.0679 36.6116 11.1057 36.7303 11.176 36.8295C11.2462 36.9288 11.3455 37.0039 11.4602 37.0444C11.842 37.204 12.2391 37.324 12.6454 37.4025C13.105 37.5066 13.5581 37.6377 14.0023 37.795C14.3525 37.9239 14.6651 38.138 14.9119 38.418C15.1775 38.7407 15.3123 39.1515 15.2896 39.5689C15.2927 39.9744 15.1719 40.3711 14.9432 40.706C14.6815 41.0707 14.32 41.3521 13.9023 41.5164C13.3663 41.7315 12.792 41.8346 12.2147 41.8196C11.649 41.8227 11.0857 41.7451 10.5419 41.589Z" fill="#BEBEBE"/>
<path d="M21.2431 40.2213H17.8778L17.2362 41.7773H15.5182L18.7559 34.517H20.4131L23.6508 41.7773H21.8848L21.2431 40.2213ZM20.7143 38.9458L19.5654 36.1653L18.4155 38.9458H20.7143Z" fill="white"/>
<path d="M24.3748 34.5641H26.0515V40.4568H29.6886V41.8304H24.3748V34.5641Z" fill="white"/>
<path d="M36.2396 40.4784V41.8245H30.6285V34.5641H36.1052V35.9122H32.2955V37.4898H35.6598V38.7967H32.2955V40.4774L36.2396 40.4784Z" fill="white"/>
</g>
</g>
<defs>
<clipPath id="clip0_1_6019">
<rect width="52" height="52" fill="white" transform="translate(0.5 0.03125)"/>
</clipPath>
</defs>
</svg>
