<svg width="109" height="19" viewBox="0 0 109 19" fill="none" xmlns="http://www.w3.org/2000/svg">
<mask id="mask0_1_6034" style="mask-type:luminance" maskUnits="userSpaceOnUse" x="1" y="1" width="11" height="17">
<path d="M11.738 1.77246H1.33203V17.1338H11.738V1.77246Z" fill="white"/>
</mask>
<g mask="url(#mask0_1_6034)">
<path fill-rule="evenodd" clip-rule="evenodd" d="M7.07853 1.77246L4.83346 3.5709V6.09691H3.21139L1.33203 8.47502L1.33987 17.1147L9.29219 17.1226L11.7306 14.7035V1.77246H7.07853ZM10.9626 2.55019H7.77593V6.87333H3.97933V13.9271H10.9626V6.87333V2.55019Z" fill="white"/>
</g>
<mask id="mask1_1_6034" style="mask-type:luminance" maskUnits="userSpaceOnUse" x="20" y="1" width="88" height="17">
<path d="M107.668 1.00684H20.063V17.8993H107.668V1.00684Z" fill="white"/>
</mask>
<g mask="url(#mask1_1_6034)">
<path d="M29.7752 1.72461H32.8609V17.4868H29.7752V16.0754C28.8662 17.2396 27.5745 17.8217 25.9001 17.8217C24.2894 17.8217 22.91 17.2157 21.7618 16.0037C20.6296 14.7758 20.0635 13.2768 20.0635 11.5066C20.0635 9.73657 20.6296 8.24553 21.7618 7.03356C22.91 5.80565 24.2894 5.19169 25.9001 5.19169C27.5745 5.19169 28.8662 5.77375 29.7752 6.93788V1.72461ZM24.0821 13.9465C24.72 14.5685 25.5173 14.8794 26.4741 14.8794C27.431 14.8794 28.2203 14.5685 28.8423 13.9465C29.4642 13.3086 29.7752 12.4953 29.7752 11.5066C29.7752 10.5179 29.4642 9.71264 28.8423 9.09071C28.2203 8.45284 27.431 8.13389 26.4741 8.13389C25.5173 8.13389 24.72 8.45284 24.0821 9.09071C23.4602 9.71264 23.1492 10.5179 23.1492 11.5066C23.1492 12.4953 23.4602 13.3086 24.0821 13.9465Z" fill="white"/>
<path d="M38.2897 12.7744C38.7043 14.2734 39.8285 15.0229 41.6625 15.0229C42.8425 15.0229 43.7355 14.6242 44.3415 13.8268L46.8293 15.2621C45.6492 16.9685 43.9109 17.8216 41.6146 17.8216C39.6372 17.8216 38.0505 17.2236 36.8545 16.0276C35.6585 14.8316 35.0604 13.3246 35.0604 11.5066C35.0604 9.70462 35.6504 8.20562 36.8305 7.0096C38.0106 5.79763 39.5256 5.19165 41.3754 5.19165C43.1295 5.19165 44.5728 5.79763 45.705 7.0096C46.8532 8.22156 47.4273 9.72057 47.4273 11.5066C47.4273 11.9053 47.3874 12.3278 47.3077 12.7744H38.2897ZM38.2418 10.3824H44.3415C44.1661 9.56908 43.7994 8.96309 43.2412 8.56442C42.699 8.16575 42.0771 7.96641 41.3754 7.96641C40.5462 7.96641 39.8605 8.1817 39.3182 8.61226C38.776 9.02688 38.4172 9.61692 38.2418 10.3824Z" fill="white"/>
<path d="M56.5429 5.19169C58.1535 5.19169 59.5249 5.80565 60.6572 7.03356C61.8054 8.24553 62.3795 9.73657 62.3795 11.5066C62.3795 13.2768 61.8054 14.7758 60.6572 16.0037C59.5249 17.2157 58.1535 17.8217 56.5429 17.8217C54.8685 17.8217 53.5768 17.2396 52.6678 16.0754V17.4868H49.582V1.72461H52.6678V6.93788C53.5768 5.77375 54.8685 5.19169 56.5429 5.19169ZM53.6007 13.9465C54.2226 14.5685 55.012 14.8794 55.9688 14.8794C56.9256 14.8794 57.715 14.5685 58.3369 13.9465C58.9748 13.3086 59.2937 12.4953 59.2937 11.5066C59.2937 10.5179 58.9748 9.71264 58.3369 9.09071C57.715 8.45284 56.9256 8.13389 55.9688 8.13389C55.012 8.13389 54.2226 8.45284 53.6007 9.09071C52.9788 9.71264 52.6678 10.5179 52.6678 11.5066C52.6678 12.4953 52.9788 13.3086 53.6007 13.9465Z" fill="white"/>
<path d="M64.4575 17.4866V1.00684H67.5432V17.4866H64.4575Z" fill="white"/>
<path d="M80.4594 16.0036C79.2316 17.2157 77.7326 17.8216 75.9624 17.8216C74.1923 17.8216 72.6933 17.2157 71.4654 16.0036C70.2534 14.7758 69.6475 13.2768 69.6475 11.5066C69.6475 9.73652 70.2534 8.24549 71.4654 7.03351C72.6933 5.80561 74.1923 5.19165 75.9624 5.19165C77.7326 5.19165 79.2316 5.80561 80.4594 7.03351C81.6874 8.24549 82.3014 9.73652 82.3014 11.5066C82.3014 13.2768 81.6874 14.7758 80.4594 16.0036ZM73.6421 13.8748C74.2641 14.4967 75.0375 14.8076 75.9624 14.8076C76.8874 14.8076 77.6608 14.4967 78.2828 13.8748C78.9046 13.2528 79.2156 12.4635 79.2156 11.5066C79.2156 10.5498 78.9046 9.76044 78.2828 9.13851C77.6608 8.51658 76.8874 8.20561 75.9624 8.20561C75.0375 8.20561 74.2641 8.51658 73.6421 9.13851C73.0362 9.76044 72.7332 10.5498 72.7332 11.5066C72.7332 12.4635 73.0362 13.2528 73.6421 13.8748Z" fill="white"/>
<path d="M89.9688 17.8216C88.1667 17.8216 86.6598 17.2157 85.4478 16.0036C84.2518 14.7917 83.6538 13.2927 83.6538 11.5066C83.6538 9.72057 84.2518 8.22156 85.4478 7.0096C86.6598 5.79763 88.1667 5.19165 89.9688 5.19165C91.1329 5.19165 92.1933 5.47071 93.1502 6.02886C94.107 6.587 94.8326 7.33651 95.327 8.27738L92.6718 9.8322C92.4326 9.33785 92.0659 8.94715 91.5715 8.6601C91.0931 8.37306 90.5508 8.22954 89.9449 8.22954C89.0199 8.22954 88.2545 8.5405 87.6485 9.16244C87.0425 9.76841 86.7395 10.5498 86.7395 11.5066C86.7395 12.4475 87.0425 13.2288 87.6485 13.8508C88.2545 14.4568 89.0199 14.7598 89.9449 14.7598C90.5668 14.7598 91.1169 14.6242 91.5954 14.3532C92.0897 14.0661 92.4566 13.6754 92.6957 13.181L95.3748 14.7119C94.8486 15.6528 94.107 16.4103 93.1502 16.9844C92.1933 17.5425 91.1329 17.8216 89.9688 17.8216Z" fill="white"/>
<path d="M107.641 17.4868H104.053L99.6995 12.0568V17.4868H96.6138V1.72461H99.6995V10.789L103.814 5.52657H107.498L102.69 11.4349L107.641 17.4868Z" fill="white"/>
</g>
</svg>
