<svg width="104" height="25" viewBox="0 0 104 25" fill="none" xmlns="http://www.w3.org/2000/svg">
<g clip-path="url(#clip0_1_6098)">
<path d="M26.42 0.46875L20.42 6.46875H0.5V12.4688H14.42L8.41999 18.4688H0.5V24.4688H2.42L8.41999 18.4688H28.34V12.4688H14.42L20.42 6.46875H28.34V0.46875H26.42Z" fill="#FDFDFC"/>
<path d="M54.6463 6.37274V18.4687H57.8863V6.37274H54.6463Z" fill="#FDFDFC"/>
<path d="M54.6031 4.81756H57.9079V1.51276H54.6031V4.81756Z" fill="#FDFDFC"/>
<path fill-rule="evenodd" clip-rule="evenodd" d="M46.484 18.9224C49.9616 18.9224 52.532 16.3736 52.532 12.5072C52.532 8.68395 49.94 6.00555 46.484 6.00555C44.4104 6.00555 42.6824 6.97755 41.5376 8.85675V6.37275H38.2976V23.1128H41.5376V16.3088C42.5312 17.972 44.3672 18.9224 46.484 18.9224ZM41.4296 12.6152V12.3992C41.4296 10.1096 42.9848 8.57595 45.3176 8.57595C47.672 8.57595 49.2056 10.1312 49.2056 12.464C49.2056 14.7968 47.672 16.352 45.3176 16.352C43.0064 16.352 41.4296 14.8616 41.4296 12.6152Z" fill="#FDFDFC"/>
<path d="M65.088 18.4687L59.6449 6.37274H63.3384L67.0969 15.6175L70.8337 6.37274L74.4408 6.39434L68.9977 18.4687H65.088Z" fill="#FDFDFC"/>
<path fill-rule="evenodd" clip-rule="evenodd" d="M82.097 18.9224C86.5034 18.9224 89.333 16.3304 89.333 12.4856C89.333 8.57595 86.5034 6.00555 82.097 6.00555C77.7122 6.00555 74.861 8.57595 74.861 12.4856C74.861 16.3304 77.6906 18.9224 82.097 18.9224ZM78.1874 12.4856C78.1874 10.1096 79.7858 8.59755 82.097 8.59755C84.4082 8.59755 86.0066 10.1096 86.0066 12.4856C86.0066 14.8184 84.4082 16.3088 82.097 16.3088C79.7858 16.3088 78.1874 14.8184 78.1874 12.4856Z" fill="#FDFDFC"/>
<path d="M98.3453 18.9223C95.0621 18.9223 92.9237 17.1079 92.9237 14.7319V8.85674H90.3101V6.37274H92.9885V4.47194L96.1637 2.26874V6.37274H101.931V8.85674H96.1637V13.6519C96.1637 15.3583 97.2869 16.2439 99.3389 16.2439C100.073 16.2439 101.175 16.1359 102.449 15.6607L102.017 18.1663C100.829 18.6631 99.5981 18.9223 98.3453 18.9223Z" fill="#FDFDFC"/>
</g>
<defs>
<clipPath id="clip0_1_6098">
<rect width="103" height="24" fill="white" transform="translate(0.5 0.46875)"/>
</clipPath>
</defs>
</svg>
