<svg width="115" height="23" viewBox="0 0 115 23" fill="none" xmlns="http://www.w3.org/2000/svg">
<g clip-path="url(#clip0_1_6061)">
<path d="M6.19632 9.29856L1.08604 6.60199C1.04832 6.58313 1.04832 6.54541 1.04832 6.5077C3.95232 1.17114 10.6655 -0.846576 16.0775 2.00085C21.4895 4.84827 23.5449 11.5048 20.7163 16.8603C20.6975 16.898 20.6597 16.9168 20.622 16.898L15.5117 14.2014L17.2466 19.8585L14.3803 20.726L11.9666 12.8814L6.96946 22.1968L4.31061 20.8014L9.30775 11.4671L1.38775 13.8808L0.501465 11.0334L6.19632 9.29856ZM32.5963 7.62028H34.7837V12.6551C34.7837 13.1831 34.6894 13.6545 34.5197 14.0694C34.3312 14.4842 34.086 14.8237 33.7654 15.0877C33.4449 15.3517 33.0677 15.5591 32.6529 15.6911C32.2192 15.8231 31.7666 15.8985 31.2763 15.8985C30.7294 15.8985 30.2392 15.8231 29.8054 15.6722C29.3717 15.5214 28.9946 15.314 28.6929 15.0122C28.3912 14.7294 28.146 14.3711 27.9952 13.9562C27.8254 13.5414 27.75 13.0511 27.75 12.5231L29.994 12.1271C29.9563 12.4288 29.9563 12.6928 29.994 12.9191C30.0317 13.1454 30.1072 13.3528 30.2203 13.5037C30.3334 13.6734 30.4843 13.7865 30.654 13.8808C30.8237 13.9751 31.0312 14.0128 31.2763 14.0128C31.5026 14.0128 31.6912 13.9751 31.8609 13.9185C32.0306 13.8431 32.1626 13.7488 32.2757 13.6168C32.3889 13.4848 32.4643 13.3151 32.5209 13.1265C32.5774 12.938 32.5963 12.7117 32.5963 12.4665V7.62028ZM43.5146 13.8808V15.7288H36.5374V7.60142H43.4014V9.44941H38.6872V10.6751H42.1946V12.5043H38.6872V13.862H43.5146V13.8808ZM44.9854 7.62028H47.1729V13.8054H51.7174V15.7477H44.9854V7.62028ZM53.1317 7.62028H55.3191V13.8054H59.8637V15.7477H53.1317V7.62028ZM63.258 10.43L64.9363 7.63913H67.35L64.2386 12.4288V15.7665H62.1077V12.4288L58.9963 7.63913H61.542L63.258 10.43ZM67.218 14.4842L68.5569 12.938C68.7266 13.1265 68.8963 13.3151 69.1037 13.466C69.3111 13.6168 69.5186 13.7488 69.7449 13.8431C69.9711 13.9374 70.2163 14.0128 70.4614 14.0694C70.7066 14.126 70.9517 14.1448 71.2157 14.1448C71.4231 14.1448 71.6306 14.126 71.8003 14.1071C71.97 14.0694 72.1208 14.0317 72.2529 13.9751C72.3848 13.9185 72.4791 13.8431 72.5357 13.7488C72.6111 13.6545 72.63 13.5603 72.63 13.4471C72.63 13.3528 72.6111 13.2585 72.5546 13.1831C72.498 13.1077 72.4414 13.0511 72.366 13.0134C72.2906 12.9757 72.2151 12.938 72.1397 12.9191C72.0643 12.9002 71.9511 12.8814 71.8191 12.8437L69.9334 12.4665C69.594 12.3911 69.2734 12.2968 68.9906 12.1837C68.7077 12.0517 68.4626 11.9008 68.2551 11.7122C68.0477 11.5237 67.8969 11.2974 67.7649 11.0334C67.6517 10.7694 67.5951 10.4677 67.5951 10.1094C67.5951 9.71341 67.6706 9.35513 67.8403 9.03456C67.9911 8.71399 68.2363 8.43113 68.538 8.20484C68.8397 7.9597 69.198 7.78999 69.6129 7.65799C70.0277 7.52599 70.4991 7.46941 71.0083 7.46941C71.4043 7.46941 71.7626 7.50713 72.102 7.5637C72.4414 7.63913 72.762 7.73342 73.0637 7.86542C73.3654 7.99742 73.6294 8.14827 73.8934 8.33684C74.1574 8.52542 74.3837 8.73284 74.61 8.95913L73.158 10.3168C73.026 10.1471 72.894 9.99627 72.762 9.86427C72.63 9.73227 72.4791 9.61913 72.3094 9.52484C72.1397 9.43056 71.9511 9.35513 71.7249 9.29856C71.5174 9.24199 71.2723 9.22313 71.0083 9.22313C70.8386 9.22313 70.6877 9.24199 70.5369 9.2797C70.386 9.31741 70.254 9.35513 70.1409 9.43056C70.0277 9.48713 69.9523 9.56256 69.8769 9.63798C69.8203 9.71341 69.7826 9.8077 69.7826 9.92084C69.7826 10.0151 69.8014 10.0906 69.8391 10.1471C69.8769 10.2037 69.9146 10.2603 69.99 10.3168C70.0466 10.3546 70.122 10.3923 70.1974 10.4111C70.2729 10.43 70.3671 10.4677 70.4614 10.4865L72.2717 10.8637C72.7243 10.958 73.1014 11.0711 73.422 11.222C73.7426 11.3728 74.0066 11.5425 74.214 11.7311C74.4214 11.9197 74.5723 12.1648 74.6854 12.4288C74.7797 12.6928 74.8363 12.9945 74.8363 13.334C74.8363 13.7488 74.742 14.1071 74.5534 14.4277C74.3649 14.7482 74.1009 15.0311 73.7614 15.2385C73.422 15.4648 73.0449 15.6345 72.5923 15.7477C72.1586 15.8608 71.6871 15.9174 71.178 15.9174C70.7443 15.9174 70.3294 15.8797 69.9523 15.8231C69.5751 15.7665 69.2169 15.6723 68.8963 15.5403C68.5569 15.4271 68.2551 15.2762 67.9723 15.1065C67.7271 14.918 67.4631 14.7105 67.218 14.4842ZM81.606 15.7477H80.4369L78.438 9.73227H78.3814V15.7477H76.3071V7.62028H79.7391L81.0968 12.0894H81.1346L82.4546 7.62028H85.9054V15.7477H83.6426V9.73227H83.6049L81.606 15.7477ZM93.5614 15.7477L92.9768 14.1825H89.7711L89.1866 15.7477H86.9803L90.2237 7.62028H92.6751L95.9185 15.7477H93.5614ZM91.3363 10.0151L90.3746 12.542H92.3357L91.374 10.0151H91.3363ZM102.255 12.41L104.291 13.0511C104.197 13.466 104.046 13.862 103.839 14.2014C103.631 14.5408 103.367 14.8425 103.028 15.1065C102.707 15.3517 102.311 15.5591 101.877 15.6911C101.444 15.8231 100.953 15.8985 100.425 15.8985C99.8408 15.8985 99.294 15.8042 98.766 15.5968C98.2568 15.3894 97.8043 15.1065 97.4083 14.7294C97.0123 14.3522 96.7294 13.8997 96.5031 13.3905C96.2957 12.8625 96.1826 12.2968 96.1826 11.6934C96.1826 11.09 96.2957 10.5242 96.5031 9.99627C96.7106 9.46827 97.0123 9.03456 97.4083 8.65742C97.8043 8.28027 98.238 7.99742 98.766 7.78999C99.2751 7.58256 99.8408 7.48827 100.425 7.48827C100.916 7.48827 101.387 7.54484 101.802 7.67684C102.217 7.78999 102.594 7.9597 102.896 8.18599C103.216 8.41227 103.48 8.67627 103.707 8.97799C103.933 9.2797 104.103 9.63798 104.216 10.0151L102.236 10.8825C102.179 10.6751 102.104 10.4865 102.009 10.3168C101.915 10.1471 101.802 9.99627 101.651 9.86427C101.5 9.73227 101.331 9.61913 101.123 9.5437C100.916 9.46827 100.671 9.43056 100.407 9.43056C100.105 9.43056 99.8408 9.48713 99.5957 9.60027C99.3505 9.71342 99.1431 9.86427 98.9734 10.0528C98.8037 10.2603 98.6717 10.4865 98.5774 10.7694C98.4831 11.0522 98.4454 11.3728 98.4454 11.7122C98.4454 12.0517 98.4831 12.3722 98.5774 12.6551C98.6717 12.938 98.8037 13.1831 98.9734 13.3717C99.1431 13.5791 99.3505 13.73 99.5957 13.8243C99.8408 13.9374 100.105 13.994 100.407 13.994C100.689 13.994 100.935 13.9562 101.161 13.8808C101.368 13.8054 101.557 13.6923 101.708 13.5414C101.859 13.3905 101.972 13.2397 102.066 13.0511C102.141 12.8248 102.217 12.6174 102.255 12.41ZM113.644 15.7477H110.985L108.666 12.3157L107.761 13.2774V15.7477H105.573V7.62028H107.761V10.9014L110.891 7.62028H113.437L110.231 10.8637L113.644 15.7477Z" fill="white"/>
</g>
<defs>
<clipPath id="clip0_1_6061">
<rect width="114" height="22" fill="white" transform="translate(0.5 0.453125)"/>
</clipPath>
</defs>
</svg>
