<svg width="77" height="19" viewBox="0 0 77 19" fill="none" xmlns="http://www.w3.org/2000/svg">
<g clip-path="url(#clip0_1_6051)">
<mask id="mask0_1_6051" style="mask-type:luminance" maskUnits="userSpaceOnUse" x="1" y="0" width="76" height="19">
<path d="M76.3322 0.899658H1.41553V18.0067H76.3322V0.899658Z" fill="white"/>
</mask>
<g mask="url(#mask0_1_6051)">
<path fill-rule="evenodd" clip-rule="evenodd" d="M51.8821 0.899658C52.5019 1.01455 53.1313 1.09154 53.7398 1.25192C55.115 1.61447 56.363 2.24732 57.4559 3.22409C56.8869 3.97708 56.3247 4.72104 55.7578 5.47134C55.4583 5.24037 55.1846 4.99534 54.8806 4.80038C53.003 3.59664 51.0225 3.23317 48.9374 4.16473C46.7458 5.14378 45.5391 7.45059 45.8573 9.94866C46.1505 12.2505 48.0585 14.2128 50.3361 14.5718C51.843 14.8092 53.2278 14.4466 54.5514 13.73C54.7103 13.644 54.7156 13.5271 54.7153 13.3795C54.7131 12.1128 54.7141 10.8461 54.7141 9.57942V9.21996H57.3332C57.338 9.3193 57.3464 9.41166 57.3464 9.50403C57.3471 11.3517 57.3441 13.1994 57.3513 15.047C57.3522 15.2403 57.2968 15.3605 57.1391 15.4655C54.9397 16.9306 52.5509 17.6508 49.9191 17.3489C46.4288 16.9486 43.5439 14.2894 42.8743 10.7928C42.1455 6.98755 43.8709 3.66077 47.0373 1.94204C48.0844 1.37367 49.2023 1.04507 50.3851 0.950986C50.4572 0.94527 50.5276 0.91732 50.5988 0.899658H51.8821Z" fill="#FDFDFC"/>
<path fill-rule="evenodd" clip-rule="evenodd" d="M1.41553 1.48926C1.54131 1.49679 1.6671 1.51093 1.79289 1.51099C6.06497 1.51212 10.3371 1.51495 14.6092 1.50539C14.9041 1.50471 14.9927 1.57317 14.9823 1.86388C14.9586 2.53248 14.9748 3.20243 14.9748 3.87183V4.20355H9.80206V17.4164H6.60727V4.20508H1.41553V1.48926Z" fill="#FDFDFC"/>
<path fill-rule="evenodd" clip-rule="evenodd" d="M17.3423 1.51417H20.4016V8.29884H28.4244C28.4304 8.17521 28.4411 8.05634 28.4411 7.93746C28.4421 5.89891 28.4463 3.8603 28.4363 1.8218C28.4351 1.56378 28.5029 1.48398 28.767 1.48953C29.5798 1.50663 30.3932 1.49531 31.2063 1.49638C31.299 1.4965 31.3917 1.50476 31.4998 1.51003V17.4164H28.4404V10.9818H20.4075V17.4164H17.3423V1.51417Z" fill="#FDFDFC"/>
<path fill-rule="evenodd" clip-rule="evenodd" d="M36.2192 17.4164H39.1687V1.48926H36.2192V17.4164Z" fill="#FDFDFC"/>
<path fill-rule="evenodd" clip-rule="evenodd" d="M68.0693 5.16359C68.1603 5.36472 68.219 5.49088 68.2749 5.61826C69.8797 9.27479 71.4931 12.9276 73.0805 16.5918C73.3685 17.2567 73.7356 17.7881 74.4528 18.0065H75.0212C76.3079 17.6249 76.6088 16.5053 76.0924 15.3903C75.0018 13.0355 73.9929 10.6426 72.95 8.26564C72.1069 6.34444 71.2689 4.42102 70.4176 2.50361C69.9614 1.47613 69.0749 0.888079 68.0707 0.89958H68.0762C67.0719 0.888079 66.1855 1.47613 65.7293 2.50361C64.8779 4.42102 64.04 6.34444 63.197 8.26564C62.1541 10.6426 61.1452 13.0355 60.0546 15.3903C59.5382 16.5053 59.8391 17.6249 61.1258 18.0065H61.6942C62.4113 17.7881 62.7784 17.2567 63.0664 16.5918C64.6538 12.9276 66.2673 9.27479 67.872 5.61826C67.928 5.49088 67.9865 5.36472 68.0776 5.16359" fill="#FDFDFC"/>
</g>
</g>
<defs>
<clipPath id="clip0_1_6051">
<rect width="76" height="18" fill="white" transform="translate(0.5 0.453125)"/>
</clipPath>
</defs>
</svg>
