<svg width="82" height="19" viewBox="0 0 82 19" fill="none" xmlns="http://www.w3.org/2000/svg">
<g clip-path="url(#clip0_1_6064)">
<mask id="mask0_1_6064" style="mask-type:luminance" maskUnits="userSpaceOnUse" x="0" y="1" width="82" height="17">
<path d="M81.5013 1.31006H0.667969V17.5965H81.5013V1.31006Z" fill="white"/>
</mask>
<g mask="url(#mask0_1_6064)">
<path d="M14.4028 11.5479C14.4028 8.2429 17.2249 5.52588 20.6769 5.52588C24.129 5.52588 26.993 8.25078 26.993 11.5479C26.993 14.895 24.129 17.5857 20.6769 17.5857C17.2249 17.5857 14.4028 14.9028 14.4028 11.5479ZM17.4979 11.5479C17.4979 13.4616 18.8656 14.853 20.6769 14.853C22.4883 14.853 23.856 13.4275 23.856 11.5479C23.856 10.7048 23.521 9.89621 22.9248 9.30003C22.3286 8.70384 21.52 8.36891 20.6769 8.36891C19.8338 8.36891 19.0252 8.70384 18.429 9.30003C17.8328 9.89621 17.4979 10.7048 17.4979 11.5479Z" fill="white"/>
<path d="M27.9854 11.5479C27.9854 8.2429 30.8074 5.52588 34.2594 5.52588C37.7115 5.52588 40.5703 8.25078 40.5703 11.5479C40.5703 14.895 37.7089 17.5857 34.2542 17.5857C30.7995 17.5857 27.9854 14.9028 27.9854 11.5479ZM31.0804 11.5479C31.0804 13.4616 32.4507 14.853 34.2594 14.853C36.0682 14.853 37.4385 13.4275 37.4385 11.5479C37.4385 10.7048 37.1035 9.89621 36.5074 9.30003C35.9112 8.70384 35.1026 8.36891 34.2594 8.36891C33.4163 8.36891 32.6077 8.70384 32.0115 9.30003C31.4153 9.89621 31.0804 10.7048 31.0804 11.5479Z" fill="white"/>
<path d="M55.3262 11.5479C55.3262 8.2429 58.1482 5.52588 61.6002 5.52588C65.0523 5.52588 67.9163 8.25078 67.9163 11.5479C67.9163 14.895 65.0523 17.5857 61.6002 17.5857C58.1482 17.5857 55.3262 14.9028 55.3262 11.5479ZM58.4212 11.5479C58.4212 13.4616 59.7889 14.853 61.6002 14.853C63.4116 14.853 64.7793 13.4275 64.7793 11.5479C64.7793 10.7048 64.4444 9.89621 63.8482 9.30003C63.252 8.70384 62.4434 8.36891 61.6002 8.36891C60.7571 8.36891 59.9485 8.70384 59.3523 9.30003C58.7561 9.89621 58.4212 10.7048 58.4212 11.5479Z" fill="white"/>
<path d="M68.9214 11.5479C68.9214 8.2429 71.7408 5.52588 75.1955 5.52588C78.6501 5.52588 81.5011 8.25078 81.5011 11.5479C81.5011 14.895 78.637 17.5857 75.185 17.5857C71.7329 17.5857 68.9214 14.9028 68.9214 11.5479ZM72.0164 11.5479C72.0164 13.4616 73.3841 14.853 75.1955 14.853C77.0068 14.853 78.3719 13.4275 78.3719 11.5479C78.3719 10.7048 78.037 9.89621 77.4408 9.30003C76.8446 8.70384 76.036 8.36891 75.1928 8.36891C74.3497 8.36891 73.5411 8.70384 72.9449 9.30003C72.3487 9.89621 72.0138 10.7048 72.0138 11.5479H72.0164Z" fill="white"/>
<path d="M8.61426 12.5509L3.98877 1.31006H0.667969L7.25707 17.326H9.98196L16.6262 1.31006H13.2791L8.61426 12.5509Z" fill="white"/>
<path d="M51.0706 1.79541V6.38415C50.0929 5.82546 48.9861 5.53224 47.86 5.5336C44.4053 5.5336 41.5859 8.25062 41.5859 11.5556C41.5859 14.9027 44.4053 17.5935 47.86 17.5935C48.9855 17.5953 50.092 17.304 51.0706 16.7482V17.3231H54.1866V1.79541H51.0706ZM47.8679 14.8607C46.0565 14.8607 44.6889 13.4694 44.6889 11.5556C44.6889 10.7125 45.0238 9.90393 45.62 9.30775C46.2162 8.71156 47.0248 8.37663 47.8679 8.37663C48.711 8.37663 49.5196 8.71156 50.1158 9.30775C50.712 9.90393 51.0469 10.7125 51.0469 11.5556C51.0548 13.4274 49.6635 14.8607 47.8758 14.8607H47.8679Z" fill="white"/>
</g>
</g>
<defs>
<clipPath id="clip0_1_6064">
<rect width="81" height="18" fill="white" transform="translate(0.5 0.453125)"/>
</clipPath>
</defs>
</svg>
