<svg width="73" height="72" viewBox="0 0 73 72" fill="none" xmlns="http://www.w3.org/2000/svg">
<g clip-path="url(#clip0_1_1181)">
<mask id="mask0_1_1181" style="mask-type:luminance" maskUnits="userSpaceOnUse" x="1" y="0" width="73" height="72">
<path d="M73.0435 0H1.04352V72H73.0435V0Z" fill="white"/>
</mask>
<g mask="url(#mask0_1_1181)">
<path d="M21.8106 47.8738C21.2604 47.6989 21.4396 47.056 22.0017 46.2107C21.3566 46.8422 20.9755 46.9691 20.7308 46.6675C20.622 46.4788 20.397 46.4037 20.4294 46.1013C20.1601 45.7746 19.814 45.4984 19.7118 45.0327C19.5433 44.7054 19.4128 44.3658 19.2572 44.0261C19.1145 43.6737 18.9588 43.3341 18.7645 43.0322C18.6674 42.8813 18.5702 42.7304 18.7034 42.428C18.5922 42.34 18.4041 42.3027 18.3444 42.1642C18.1297 41.6609 17.9402 41.1576 17.7771 40.6039L17.6824 40.3522C17.7868 40.2008 17.7383 40.1254 17.5618 40.1257L17.5145 39.9999C17.5796 39.9116 17.555 39.8865 17.4413 39.8994C17.228 39.8622 17.1806 39.7364 17.274 39.522C17.0643 39.3335 16.9696 39.0819 16.9387 38.7922C16.5767 38.6545 16.5336 38.3523 16.4271 38.0629L15.8697 36.616C15.6931 36.1 15.5676 35.5587 15.5053 35.0046C15.4424 34.4757 15.3174 33.9092 15.2551 33.3552C15.1566 32.7383 15.2239 32.0328 15.3534 31.3648C15.4699 30.7095 15.7389 30.0034 16.0699 29.3349C16.0231 29.184 16.0895 29.0452 16.3064 28.9313L16.2897 28.5787C16.1222 26.1104 16.4717 23.6282 17.3092 21.2832L18.0657 19.1652C18.7687 17.1733 19.8215 15.3065 21.1713 13.6656L23.5336 10.7877C23.5102 10.7122 23.5108 10.687 23.5852 10.7372L23.767 10.51C24.8704 9.15949 26.146 7.98483 27.5685 6.98616L29.2983 5.78515C30.1566 5.19097 31.063 4.69741 31.9934 4.25421C31.9497 3.97719 31.954 3.80085 32.0285 3.85104C31.9537 3.28442 32.1495 3.53585 32.2858 3.62365C32.2786 3.40954 32.3282 3.43462 32.4254 3.58553C32.5286 3.48449 32.6676 3.47153 32.8164 3.57192C32.8709 3.39545 33.0764 3.76019 33.0259 3.2439C33.0146 3.18096 33.0516 3.21865 33.0761 3.24379C33.1992 3.36942 33.3351 3.48241 33.4709 3.59541L34.6931 3.06332C34.6834 2.94998 34.6845 2.8996 34.7215 2.93729C34.8395 2.74804 34.921 2.49593 35.0957 2.57106C35.0846 2.5081 35.0852 2.48291 35.1098 2.50804C35.1116 2.43246 35.103 2.26874 35.1281 2.26868C35.2669 2.25572 35.4176 2.28053 35.5558 2.29278L35.7329 2.26713C35.7027 1.95232 35.7524 1.97738 35.7907 1.96468C35.8288 1.95199 35.8784 1.97706 35.9411 1.98949L35.9792 1.9768L36.0167 1.9893C36.193 1.47243 36.4732 1.34575 36.7621 1.3828L36.9128 1.40762L37.1137 1.43229C37.1431 1.25588 37.2163 1.35646 37.2773 1.44448L38.0314 1.51812L38.0689 1.53063L38.1715 1.45479L38.174 1.35402C38.3468 1.50472 38.4996 1.42876 38.6724 1.57946C40.3207 1.14701 42.0142 0.941159 43.7011 0.98724C43.7165 0.873838 43.7305 0.810826 43.7554 0.835957L43.8437 0.823132C43.9727 0.696846 44.1069 0.885442 44.2395 0.607997C44.3667 0.557291 44.5135 0.21683 44.6334 0.468438L44.6839 0.468313C44.7501 0.329591 44.7987 0.405039 44.8473 0.480488C44.9013 0.329205 44.9769 0.32901 45.023 0.505233L45.6238 0.680044C45.843 0.465357 46.0134 0.716828 46.2272 0.728878C46.5291 0.753302 46.8002 1.00453 47.0739 1.15498C47.1155 0.991128 47.1544 0.953244 47.1795 0.953182C47.4684 0.990232 47.7419 1.14068 48.0449 1.11472C48.2595 1.10157 48.4763 0.987658 48.6621 1.12573L48.7849 1.25138L48.8735 1.23856L48.8864 1.22593C48.9423 0.999063 48.9539 1.03682 48.9496 1.21317C48.9766 1.13753 48.9896 1.1249 48.9996 1.23824C49.1076 0.935665 49.1421 1.07413 49.174 1.31337C49.3219 0.922524 49.4056 1.11124 49.4923 1.174L49.6308 1.18625C49.751 0.89624 49.8249 0.971623 49.9127 0.983995C50.113 1.03386 50.3018 1.04598 50.5188 0.932068C50.6336 0.868797 50.7346 0.868538 50.8059 1.04469C50.8048 1.09508 50.791 1.1329 50.7899 1.18329C50.8164 1.13285 50.8428 1.08237 50.8569 1.01937C50.9643 0.741998 51.0124 0.842637 51.075 0.855073C51.4131 0.942382 51.7487 1.13046 52.101 1.15475C52.4531 1.17904 52.7906 1.29155 53.1697 1.2402C53.4475 1.2143 53.6954 1.39001 53.9314 1.52796C54.1676 1.66591 54.3226 2.03078 54.6134 1.99225C54.727 1.97937 54.7454 2.25643 54.8051 2.39483C54.8035 2.47039 54.7756 2.5712 54.7481 2.67202C54.7206 2.77285 54.6806 2.86117 54.6531 2.96202L54.6652 2.9746C54.6658 2.94938 54.6666 2.92422 54.6801 2.88639C55 2.15502 54.9061 2.91099 55.1285 2.57035C55.1801 2.51983 55.2441 2.48188 55.2282 2.62047C55.2454 2.94792 55.4377 2.80888 55.5227 2.94722C55.5589 3.01011 55.6621 2.90907 55.54 3.27465C55.6199 3.09813 55.6845 3.03497 55.7625 2.93399L57.0914 3.72414L57.4149 3.89967C57.5901 3.94959 57.818 3.89862 57.9122 4.1755L57.9619 4.20056C58.118 3.99862 58.1666 4.07409 58.2022 4.16216C58.3099 4.40119 58.4852 4.45114 58.686 4.47582C58.9123 4.50044 59.0716 4.68896 59.2979 4.71358C59.5112 4.75081 59.6845 4.87634 59.8443 5.03969C59.8308 5.07749 59.8168 5.1405 59.7774 5.2036C59.7504 5.27923 59.7245 5.3045 59.7245 5.3045C59.7633 5.26659 59.8149 5.21608 59.8678 5.11518C60.0484 4.93838 60.0557 5.15249 60.1567 5.15225C60.4621 5.02551 60.3614 5.54218 60.0641 6.37426L60.0765 6.38682C60.4327 5.71833 60.6532 5.45327 60.751 5.57898C60.812 5.66697 60.9521 5.60366 60.9338 5.84301C61.1077 5.94334 61.3088 5.96802 61.3777 6.24496C61.5726 6.52155 61.7146 6.89906 61.9749 7.08733C62.0491 7.13752 62.1107 7.20035 62.0289 7.45247C62.1174 7.43965 62.22 7.36381 62.2692 7.41408C62.4285 7.60259 62.5497 7.80382 62.6831 8.01761L62.7571 8.09299C62.7028 8.2443 62.7403 8.2568 62.8564 8.14313L62.8934 8.18082C62.8405 8.28172 62.8659 8.28167 62.9431 8.20588C63.0846 8.09216 63.1086 8.14248 63.0668 8.30634C63.2064 8.26819 63.2801 8.34358 63.3276 8.46942C63.5709 8.30505 63.6305 8.44345 63.7172 8.5062C64.0398 8.70691 64.44 8.83184 64.6584 9.18398C64.768 9.34743 64.9424 9.42257 65.0777 9.56079C65.3121 9.7743 65.4171 10.1141 65.4314 10.5675C66.1577 11.2836 66.8322 12.0502 67.4424 12.88L68.3811 14.175C69.5883 15.8471 70.4882 17.7216 71.0323 19.7229L72.2059 23.8387C72.6571 25.5128 72.8796 27.263 72.8377 29.0012L72.7851 31.1931C72.7624 32.667 72.5507 34.1285 72.1511 35.5527L71.6268 37.4435C71.4478 38.0864 71.8096 38.9474 71.5553 39.5654C71.7748 39.867 71.2604 40.1149 71.1824 40.7321C71.2329 40.7321 71.231 40.8077 71.1133 40.9967C71.1894 40.9713 71.1746 41.0596 71.147 41.1606C71.2842 41.2232 71.0857 41.6142 70.5784 42.283C70.4094 42.4976 70.3035 42.6993 70.0838 42.9391C69.9123 43.2544 69.6642 43.6206 69.3901 44.0115C69.3766 44.0493 69.3116 44.1379 69.2076 44.264L69.182 44.2893C68.9449 44.7181 68.4513 45.324 67.984 45.9045L67.971 45.9172C67.944 45.9928 67.8274 46.1315 67.6983 46.2579C67.4918 46.4601 67.3357 46.6618 67.1675 46.8514C67.1016 46.9648 66.8945 47.1921 66.7649 47.3436C66.7258 47.4067 66.6864 47.4697 66.6348 47.5201C66.2071 48.0126 66.1925 48.1006 66.2417 48.1511C66.2797 48.1384 66.3688 48.1004 66.2522 48.2392C66.1353 48.3779 66.0062 48.5043 65.9425 48.5424L65.8664 48.5677L65.6609 48.7192C65.6328 48.8453 65.6328 48.8453 65.4012 49.0475L64.9519 49.3888C64.4475 49.9315 64.0228 50.2979 63.6751 50.6138C63.2887 50.9675 62.8764 51.3463 62.4641 51.7251C62.3861 51.8258 62.2959 51.9146 62.193 51.9905C62.0648 52.0915 61.9487 52.2052 61.8453 52.3061L61.8196 52.3315C61.7152 52.483 61.5861 52.6091 61.433 52.6852C61.2918 52.7989 61.1627 52.9252 61.0215 53.0389C60.6865 53.3421 60.3522 53.62 60.0174 53.9232C59.5265 54.4283 59.0227 54.9459 58.7136 55.2237C58.5845 55.3501 58.4949 55.4133 58.3394 55.5901C57.8609 56.1077 57.5294 56.0853 57.6614 55.8331C57.5164 55.97 57.3792 56.0883 57.3452 56.0713C57.3452 56.0713 57.0747 56.3113 57.1411 56.1725C56.1475 56.2781 54.1274 56.4903 53.9962 56.4954C53.9416 56.672 53.8641 56.7476 53.7626 56.773C53.2925 56.938 52.8106 57.0651 52.3411 57.205C51.8724 57.3195 51.4028 57.4593 50.9333 57.5992C50.2861 57.7895 49.6494 58.0685 48.9942 58.0701C48.843 58.0703 48.7047 58.0582 48.5786 58.0585C48.4774 58.0838 48.3888 58.0968 48.2873 58.1222L48.2743 58.1349C48.2063 58.3493 48.1442 58.3115 48.0845 58.1732C48.0324 58.2488 47.969 58.2615 47.9333 58.1735C47.7244 58.4764 47.5375 58.3887 47.3782 58.2002H47.3531C47.0164 58.579 46.717 58.4537 46.4024 58.4419L45.9734 58.4683C45.7018 58.7586 45.438 58.7216 45.1861 58.7221C44.5935 58.7362 44.014 58.7378 43.4063 58.8652C43.0896 58.9289 42.7872 58.9297 42.5137 58.7794C42.502 58.7416 42.5031 58.6911 42.5166 58.6533L42.3876 58.7796C42.1548 59.0321 41.9801 58.957 41.8044 58.9322C40.7994 58.8088 39.822 58.5847 38.8176 58.4362C37.8257 58.3001 36.9498 58.0504 35.9956 57.9016C35.268 57.7777 34.6459 57.4518 34.0484 57.151C33.463 56.8626 33.0221 56.3348 32.3706 56.1852C32.1327 56.1228 32.0391 55.821 31.8927 55.6198C31.8946 55.5442 31.9216 55.4684 31.9745 55.3677C31.988 55.3299 32.001 55.3172 32.0266 55.2918L31.977 55.2669C31.502 55.6333 31.5674 55.0034 31.1594 55.2059C31.0452 55.244 30.9442 55.2443 30.948 55.0931C30.8813 54.7153 30.4906 54.7291 30.2943 54.5029C30.2457 54.4273 30.0694 54.4278 30.2266 54.1753L30.202 54.1502C30.0743 54.2261 29.9598 54.2642 29.8326 54.3149C28.8909 53.6623 28 52.9847 27.1724 52.294L26.5791 51.8166C26.2441 51.6036 25.8568 51.4659 25.6772 51.076L25.5776 51.0258C25.3103 51.1397 25.2377 51.0139 25.1651 50.8884C24.9849 50.5233 24.675 50.31 24.3394 50.1221C23.9662 49.9215 23.6858 49.5316 23.2886 49.2808C22.9038 49.0424 22.6099 48.6906 22.3412 48.3385C22.3553 48.2756 22.394 48.2375 22.4456 48.187C22.4972 48.1366 22.5353 48.1239 22.5353 48.1239C22.4726 48.1114 22.3835 48.1495 22.2938 48.2127C21.9779 48.2513 21.9716 47.9867 21.8106 47.8738Z" fill="#4AE6B6"/>
<path d="M41.055 39.0376L40.151 37.3766C39.3872 35.9793 38.3842 34.7284 37.1724 33.6841L35.9572 32.6268C34.2381 31.1431 32.1537 30.1136 29.914 29.6457L27.3641 29.1106C26.4957 28.9324 25.6218 28.8379 24.7296 28.8306C23.4595 28.8149 21.7139 28.7898 21.5896 28.7409C21.498 28.7107 20.6973 28.7337 19.786 28.7588C18.1033 28.8125 16.4475 29.174 14.8963 29.8226L13.8342 30.2713C12.7072 30.7376 11.6636 31.3594 10.6966 32.1116L9.29123 33.2C8.82073 33.5726 8.37005 33.967 7.94259 34.3966L6.91427 35.4388C6.13654 36.2223 5.46751 37.0998 4.91669 38.0551L4.08534 39.4691C4.07578 39.4853 4.06622 39.5015 4.06009 39.5306C3.82176 39.7315 3.61282 39.9381 3.4237 40.1667C3.09666 40.5555 2.80927 40.9884 2.64896 41.4284C2.50092 41.8105 2.36314 42.2306 2.21167 42.6C2.05065 42.9853 1.93541 43.3859 1.8755 43.7853L1.71148 44.9382C1.6754 45.1669 1.59353 45.3807 1.77879 45.6048C1.6935 45.8057 1.66355 46.0052 1.7313 46.2063C1.59266 46.3119 1.59067 46.4083 1.70277 46.515C1.78135 46.5487 1.7882 46.5744 1.71375 46.6078L1.69877 46.7077C1.73158 46.7264 1.73842 46.752 1.75825 46.7742C1.75211 46.803 1.74598 46.8322 1.73985 46.8611C1.73029 46.8773 1.72074 46.8935 1.69478 46.9005L1.66482 47.1003C1.56941 47.5229 1.5095 47.9222 1.466 48.331C1.46671 48.3855 1.4804 48.4368 1.50708 48.4843C1.50508 48.5807 1.50308 48.6771 1.50108 48.7735C1.43077 48.8745 1.4158 48.9744 1.42678 49.0673C1.44331 49.3364 1.42092 49.6164 1.38555 49.8997C1.36316 50.1796 1.33734 50.4467 1.31495 50.7264C1.21197 51.069 1.33648 51.3779 1.39267 51.6914C1.2616 51.8771 1.38055 52.0094 1.38268 52.1733C1.38482 52.3369 1.51603 52.4115 1.75378 52.416C1.76476 52.5089 1.77232 52.5891 1.79628 52.6785C1.52245 52.9026 1.41805 53.1359 1.61287 53.3438C1.67648 53.4774 1.58434 53.6526 1.80369 53.7444C1.88499 53.7363 1.95673 53.7444 1.99295 53.776C1.99295 53.776 1.96357 53.7701 1.91165 53.7839C1.85974 53.7979 1.82081 53.8084 1.78872 53.8443C1.83535 54.174 1.89839 54.5131 2.06183 54.8117C2.2287 55.123 2.2692 55.4819 2.43878 55.7513C2.58853 55.9987 2.69934 56.2565 2.69677 56.5584C2.6982 56.6674 2.69962 56.7765 2.91484 56.8011L2.94836 56.8743C2.92325 57.1958 3.12492 57.4294 3.26511 57.6932L3.47719 58.2251C3.76385 58.9832 4.0963 59.7568 4.47111 60.5327C4.58521 60.543 4.67677 60.5732 4.81341 60.5641C4.56753 60.6848 4.69532 60.7463 4.71586 60.823C4.76106 61.0436 5.02007 61.1797 4.92592 61.4513C4.8686 61.5487 4.93421 61.586 5.02234 61.6036C5.3742 61.6187 5.03489 62.0655 5.62579 61.9346C5.6483 61.9149 5.66129 61.9114 5.67085 61.8952L5.67768 61.9208C5.61623 61.9508 5.53833 61.9718 5.46732 62.0183C5.39629 62.0647 5.35122 62.1041 5.32255 62.1527C5.34453 62.3385 5.29544 62.5707 5.42739 62.6998C5.79648 63.0389 5.89103 63.5475 6.15361 63.9563C6.436 64.3872 6.72182 64.8311 7.14626 65.1692C7.71217 65.6201 8.17768 66.1112 8.773 66.568C9.35873 67.0408 9.91239 67.5495 10.5206 68.0028C10.6259 68.0841 10.712 68.198 10.9552 68.1192C11.0071 68.1051 11.0461 68.0946 11.085 68.0843C11.098 68.0808 11.0918 68.1097 11.0727 68.1424C11.1828 68.3457 11.3797 68.4572 11.6086 68.5328C12.05 68.6746 12.4142 68.8919 12.8044 69.1022C12.9685 69.1951 13.1134 69.3207 13.3955 69.2313L13.6839 69.373C13.8841 69.4975 14.0331 69.6903 14.3897 69.5674L14.4061 69.5766C14.441 69.7589 14.5306 69.8855 14.7765 69.7651C14.7676 69.8358 14.8134 69.8509 14.8749 69.8207C14.8633 69.9333 14.89 69.9811 15.0122 69.8661L15.0252 69.8625C15.1004 69.8836 15.1626 69.9079 15.2377 69.929C15.3232 69.9881 15.4086 70.0475 15.5036 70.0904C15.917 70.3356 16.4322 70.3893 16.9221 70.5043C17.2781 70.587 17.6341 70.6696 17.9675 70.7719C18.3235 70.8545 18.6829 70.9498 19.0355 71.0198C19.1106 71.0406 19.1885 71.0198 19.2882 70.9247C20.007 71.1153 20.7491 71.3411 21.5341 71.3635C22.0813 71.381 22.63 71.5079 23.201 71.3548C23.7968 71.3459 24.4574 71.3195 25.2601 71.2001C25.4986 71.2595 25.7486 71.2063 25.9746 71.0635C26.2219 71.0519 26.4788 71.0244 26.7014 70.8688L26.9316 70.7935C27.5984 70.7379 28.1393 70.2646 28.7533 69.9082C28.7628 69.892 28.7887 69.885 28.7984 69.8688C28.9248 69.8212 29.0579 69.7994 29.1713 69.7551L32.0025 68.6405C33.4764 68.0676 34.8396 67.2368 36.0209 66.1946L37.2828 65.0898C38.6801 63.8667 39.81 62.3728 40.5987 60.6964L42.5251 56.6205C43.2506 55.0707 43.678 53.3953 43.7796 51.6976C43.846 50.5436 43.7558 49.3764 43.5231 48.2478L42.3394 42.6364C42.1112 41.3696 41.6622 40.1619 41.055 39.0376Z" fill="#3943D6"/>
<g style="mix-blend-mode:multiply">
<path fill-rule="evenodd" clip-rule="evenodd" d="M22.0008 46.2115C21.4387 47.0569 21.2594 47.6997 21.8096 47.8747C21.8633 47.9122 21.8998 47.9668 21.9362 48.0213C22.0092 48.1304 22.0822 48.2392 22.2928 48.2136C22.3825 48.1504 22.4717 48.1123 22.5343 48.1247C22.5343 48.1247 22.4963 48.1374 22.4446 48.1879C22.393 48.2384 22.3543 48.2765 22.3402 48.3394C22.6089 48.6914 22.9028 49.0433 23.2877 49.2817C23.4756 49.4005 23.6373 49.55 23.7951 49.6961C23.9709 49.8589 24.1418 50.0171 24.3384 50.123C24.6741 50.3109 24.9839 50.5242 25.1641 50.8892C25.2367 51.0148 25.3093 51.1406 25.5766 51.0267L25.6762 51.0766C25.816 51.3804 26.0817 51.531 26.3506 51.6836C26.4272 51.7268 26.5039 51.7702 26.5781 51.8175L27.1714 52.2949C27.999 52.9855 28.8899 53.6632 29.8317 54.3158C29.856 54.3063 29.8795 54.2972 29.903 54.288C30.0029 54.2494 30.0974 54.2127 30.201 54.1511L30.2256 54.1762C30.1082 54.3647 30.1767 54.4122 30.2394 54.4554C30.2604 54.4702 30.281 54.4845 30.2934 54.5037C30.3676 54.5893 30.4697 54.6406 30.5718 54.6916C30.7389 54.7756 30.9057 54.8593 30.947 55.0939C30.9433 55.2451 31.044 55.2449 31.1585 55.2068C31.3458 55.1136 31.4333 55.1963 31.5192 55.2773C31.6202 55.3726 31.719 55.4657 31.976 55.2675L32.0257 55.2926C31.9998 55.318 31.9871 55.3307 31.9736 55.3685C31.9207 55.4692 31.8937 55.5451 31.8918 55.6204C31.9331 55.6774 31.9701 55.7419 32.0073 55.8073C32.1024 55.973 32.1988 56.1413 32.3697 56.1861C32.7649 56.2768 33.0827 56.5068 33.4021 56.7379C33.6092 56.8881 33.8171 57.0385 34.0472 57.1519C34.0758 57.1659 34.1041 57.1802 34.1325 57.1948C34.7041 57.4829 35.3016 57.7842 35.9947 57.9025C36.4329 57.9708 36.8549 58.0604 37.2788 58.1506C37.778 58.2567 38.2805 58.3633 38.8167 58.4371C39.2509 58.501 39.6799 58.5793 40.1081 58.6576C40.5555 58.7394 41.0023 58.821 41.4532 58.8863L42.5241 56.621C43.2493 55.0712 43.6769 53.3959 43.7785 51.6982C43.8446 50.5442 43.7547 49.377 43.5217 48.2484L42.338 42.637C42.1099 41.3702 41.6611 40.1625 41.0539 39.0382L40.1497 37.3772C39.3859 35.9799 38.3831 34.729 37.1711 33.6847L35.9558 32.6273C34.2367 31.1437 32.1526 30.1142 29.9127 29.6463L27.3628 29.1109C26.4944 28.933 25.6206 28.8384 24.7283 28.8312C23.4583 28.8155 21.7127 28.7904 21.5883 28.7415C21.4989 28.7118 20.7322 28.7332 19.8469 28.7574L19.7847 28.7593C18.5082 28.8001 17.2472 29.018 16.0355 29.4038C15.7199 30.0521 15.465 30.7325 15.3524 31.3656C15.2229 32.0336 15.1556 32.7391 15.2542 33.3561C15.2866 33.6447 15.3361 33.9366 15.3849 34.2249C15.4298 34.4901 15.4742 34.752 15.5043 35.0055C15.5666 35.5595 15.6922 36.1006 15.8688 36.6166L16.4261 38.0638C16.4424 38.108 16.4572 38.1526 16.4719 38.1969C16.5533 38.4418 16.6311 38.6764 16.9378 38.793C16.9686 39.0827 17.0633 39.3344 17.273 39.5228C17.1797 39.7372 17.227 39.863 17.4403 39.9003C17.554 39.8873 17.5786 39.9124 17.5135 40.0007L17.5609 40.1266C17.7373 40.126 17.7859 40.2016 17.6814 40.3531L17.7762 40.6047C17.9392 41.1585 18.1288 41.6618 18.3434 42.165C18.3822 42.255 18.4752 42.3022 18.5662 42.3484C18.6152 42.3735 18.6635 42.3981 18.7025 42.4286C18.5692 42.7312 18.6664 42.8822 18.7635 43.0331C18.9579 43.3349 19.1135 43.6746 19.2562 44.027C19.3133 44.1514 19.367 44.2762 19.4204 44.4001C19.5126 44.6142 19.6041 44.8264 19.7108 45.0335C19.7897 45.3931 20.0141 45.6397 20.2363 45.884C20.3018 45.9561 20.3671 46.0279 20.4285 46.1022C20.4064 46.3074 20.503 46.4081 20.6013 46.5104C20.6479 46.5587 20.6949 46.6076 20.7298 46.6683C20.9746 46.9699 21.3556 46.843 22.0008 46.2115Z" fill="#2E36AB"/>
</g>
</g>
</g>
<defs>
<clipPath id="clip0_1_1181">
<rect width="72" height="72" fill="white" transform="translate(0.442444)"/>
</clipPath>
</defs>
</svg>
