<svg width="73" height="72" viewBox="0 0 73 72" fill="none" xmlns="http://www.w3.org/2000/svg">
<g clip-path="url(#clip0_1_1192)">
<path d="M65.0419 -0.000488281H8.59294C4.29865 -0.000488281 0.817444 3.48072 0.817444 7.77501V64.224C0.817444 68.5183 4.29865 71.9995 8.59294 71.9995H65.0419C69.3362 71.9995 72.8174 68.5183 72.8174 64.224V7.77501C72.8174 3.48072 69.3362 -0.000488281 65.0419 -0.000488281Z" fill="black"/>
<path fill-rule="evenodd" clip-rule="evenodd" d="M39.0077 14.446L38.1079 25.5221C37.6827 25.4727 37.2575 25.448 36.8213 25.448C36.2754 25.448 35.7405 25.4837 35.2166 25.5687L34.7063 20.2035C34.6954 20.0334 34.8298 19.8853 34.9999 19.8853H35.9106L35.4717 14.4598C35.4607 14.2897 35.5951 14.1416 35.7515 14.1416H38.7279C38.8979 14.1416 39.0324 14.2897 39.0077 14.446ZM34.4512 25.7031C33.4911 25.9225 32.5804 26.2736 31.7409 26.7344L29.4202 21.8657C29.3489 21.7203 29.4202 21.5393 29.5793 21.4762L30.4407 21.1608L28.1693 16.207C28.098 16.0616 28.1693 15.8806 28.3284 15.8175L31.1237 14.7971C31.2801 14.7368 31.4502 14.8355 31.4995 14.9919C31.5105 14.9919 34.4512 25.7031 34.4512 25.7031ZM24.647 18.0777L31.0743 27.1349C30.2596 27.6698 29.5189 28.3007 28.888 29.0303L25.0338 25.2423C24.9131 25.1216 24.9268 24.9268 25.0475 24.8171L25.7525 24.2329L21.923 20.3598C21.8023 20.2391 21.816 20.0444 21.9477 19.9347L24.2218 18.0283C24.3535 17.9186 24.5373 17.9433 24.6333 18.0777H24.647ZM28.4025 29.6365C27.8182 30.4017 27.3463 31.2521 26.9925 32.1627L22.0849 29.9162C21.9258 29.8559 21.8654 29.6612 21.9505 29.5158L22.4113 28.7258L17.4791 26.3943C17.3337 26.323 17.2733 26.1392 17.3583 25.9938L18.8397 23.421C18.9247 23.2756 19.1195 23.2262 19.2539 23.3222L28.4025 29.6365ZM15.6192 30.3167C15.6439 30.1467 15.8139 30.0506 15.9703 30.0863L26.7236 32.8923C26.4438 33.803 26.2875 34.763 26.2628 35.7587L20.8806 35.3198C20.7105 35.3089 20.5871 35.1498 20.6255 34.9797L20.7819 34.0828L15.3503 33.5726C15.1803 33.5589 15.0733 33.4025 15.0952 33.2325L15.6054 30.3057L15.6192 30.3167ZM15.2077 37.5773L26.2765 36.5569C26.3259 37.5416 26.5206 38.5017 26.8224 39.3986L21.624 40.8332C21.4649 40.8688 21.2948 40.7728 21.2701 40.6028L21.1138 39.7031L15.8386 41.0745C15.6823 41.1129 15.5122 41.0142 15.4875 40.8441L14.9635 37.9174C14.9389 37.7473 15.0486 37.591 15.2187 37.5773H15.2077ZM16.9469 45.2767C16.8618 45.1314 16.9222 44.9503 17.0676 44.8763L27.1049 40.1173C27.4807 41.0142 27.991 41.8535 28.5972 42.6051L24.1999 45.7375C24.0655 45.8363 23.8707 45.7979 23.7857 45.6525L23.3248 44.8516L18.8424 47.9484C18.708 48.0444 18.5132 47.9977 18.4282 47.8523C18.4282 47.8523 16.9332 45.2767 16.9469 45.2767ZM31.3679 45.0216L28.3064 49.4652C28.2104 49.6133 28.0157 49.6353 27.8813 49.5283L27.1763 48.9331L24.0188 53.3766C23.9201 53.511 23.739 53.5357 23.6046 53.426L21.3195 51.5197C21.1879 51.4099 21.1741 51.2152 21.2948 51.0945L29.1075 43.1893C29.7768 43.8915 30.5422 44.5114 31.3679 45.0216ZM27.5658 55.8782C27.4067 55.8179 27.3354 55.6341 27.4067 55.4887L32.0372 45.3864C32.8876 45.8226 33.812 46.1517 34.7722 46.3328L33.4088 51.5553C33.3731 51.7117 33.1921 51.8104 33.033 51.7501L32.1716 51.4346L30.7259 56.6929C30.6766 56.8492 30.5065 56.9479 30.3474 56.8849L27.5548 55.8672L27.5658 55.8782ZM36.8241 46.5522C37.37 46.5522 37.9049 46.5138 38.4261 46.4288L38.9363 51.7967C38.9501 51.9668 38.8156 52.1121 38.6456 52.1121H37.7348L38.171 57.5404C38.1957 57.7105 38.064 57.8559 37.8939 57.8559H34.9148C34.7585 57.8559 34.624 57.7105 34.635 57.5404L35.5348 46.4672C35.96 46.5275 36.3852 46.5522 36.8241 46.5522ZM41.611 26.5753C40.7606 26.1502 39.8498 25.821 38.876 25.629L40.2366 20.4065C40.286 20.2474 40.4561 20.1514 40.6152 20.2117L41.4765 20.5272L42.9222 15.2689C42.9716 15.1126 43.1417 15.0138 43.3008 15.0742L46.0933 16.0946C46.2524 16.1549 46.3265 16.325 46.2524 16.4841L41.611 26.5753ZM52.3533 20.892L44.5379 28.7971C43.8823 28.0922 43.1307 27.475 42.2913 26.9648L45.3527 22.5185C45.4514 22.3869 45.6462 22.3485 45.7779 22.4582L46.4829 23.0534L49.643 18.6098C49.739 18.4754 49.9338 18.4507 50.0545 18.5605L52.3396 20.4668C52.474 20.5765 52.474 20.7713 52.3533 20.892ZM56.5696 27.1212L46.5323 31.8829C46.1427 30.9833 45.6462 30.1439 45.0372 29.3923L49.4346 26.2599C49.569 26.1502 49.7637 26.1996 49.8488 26.3449L50.3096 27.1349L54.7948 24.0381C54.9292 23.9531 55.1212 23.9887 55.2062 24.1341L56.7013 26.7097C56.7863 26.8551 56.7397 27.0362 56.5806 27.1102L56.5696 27.1212ZM58.1607 31.1396L58.6709 34.0663C58.6956 34.2364 58.5859 34.3818 58.4158 34.4064L47.347 35.4378C47.2976 34.4421 47.1028 33.4958 46.8011 32.5961L52.0022 31.1643C52.1585 31.1149 52.3286 31.2246 52.3533 31.3947L52.5124 32.2944L57.7848 30.9202C57.944 30.8845 58.114 30.9832 58.136 31.1533L58.1607 31.1396ZM57.6504 41.8727L46.8971 39.0667C47.1769 38.156 47.336 37.1988 47.3607 36.2031L52.7428 36.6392C52.9129 36.6639 53.0227 36.8093 52.998 36.9793L52.8389 37.879L58.2704 38.3892C58.4405 38.4111 58.5502 38.5565 58.5255 38.7266L58.0153 41.6533C57.9906 41.8234 57.8205 41.9221 57.6641 41.8864L57.6504 41.8727ZM54.7948 48.5628C54.7097 48.7081 54.515 48.7438 54.3805 48.6588L45.232 42.3445C45.8163 41.5792 46.2881 40.7289 46.642 39.8183L51.5496 42.0647C51.7087 42.1388 51.769 42.3198 51.684 42.4652L51.2231 43.2552L56.1554 45.5867C56.3008 45.6607 56.3611 45.8418 56.2761 45.9871L54.7948 48.5628ZM42.5464 44.8351C43.3611 44.314 44.0908 43.6694 44.7355 42.9425L48.5869 46.7305C48.7076 46.8512 48.7076 47.0459 48.5732 47.1556L47.8682 47.7371L51.6977 51.6129C51.8074 51.7336 51.8074 51.9284 51.673 52.0353L49.4016 53.9444C49.2782 54.0514 49.0834 54.0295 48.9874 53.8951L42.5601 44.8351H42.5464ZM42.497 57.1729C42.3406 57.2332 42.1706 57.1372 42.1212 56.9781L39.1805 46.2697C40.1406 46.0502 41.0513 45.6991 41.8908 45.2356L44.2115 50.107C44.2828 50.2634 44.2115 50.4472 44.0524 50.4938L43.191 50.8092L45.4624 55.7657C45.5337 55.9221 45.4624 56.0922 45.3033 56.1525L42.5107 57.1729H42.497Z" fill="white"/>
</g>
<defs>
<clipPath id="clip0_1_1192">
<rect width="72" height="72" fill="white" transform="translate(0.817444)"/>
</clipPath>
</defs>
</svg>
