<svg width="73" height="72" viewBox="0 0 73 72" fill="none" xmlns="http://www.w3.org/2000/svg">
<g clip-path="url(#clip0_1_1140)">
<path d="M64.3531 0H7.78167C3.52119 0 0.0673828 3.45381 0.0673828 7.71429V64.2857C0.0673828 68.5462 3.52119 72 7.78167 72H64.3531C68.6136 72 72.0674 68.5462 72.0674 64.2857V7.71429C72.0674 3.45381 68.6136 0 64.3531 0Z" fill="black"/>
<mask id="mask0_1_1140" style="mask-type:luminance" maskUnits="userSpaceOnUse" x="6" y="19" width="58" height="34">
<path d="M63.9899 19.5093H6.57764V52.0068H63.9899V19.5093Z" fill="white"/>
</mask>
<g mask="url(#mask0_1_1140)">
<path d="M12.9222 19.5088C16.5142 19.5088 19.4349 22.0019 19.5022 25.4719C19.5358 26.4487 18.8308 26.9882 18.0586 26.9882C17.32 26.9882 16.6824 26.4495 16.6487 25.5394C16.6151 23.585 14.9705 22.1362 12.8885 22.1362C10.9411 22.1362 9.4647 23.5175 9.4647 25.4043C9.4647 27.4593 10.841 28.3694 13.6944 29.4137C16.7489 30.5256 19.5358 31.8393 19.5358 35.7474C19.5358 39.1506 16.8835 41.8792 13.1913 41.8792C9.56563 41.8792 6.57764 39.3186 6.57764 35.8487C6.57764 33.6924 7.61824 32.1762 8.6252 32.1762C9.49835 32.1762 10.0351 32.7486 10.0351 33.5236C10.0351 34.1974 9.4647 34.5005 9.4647 35.7136C9.4647 37.8699 11.2103 39.2511 13.1913 39.2511C15.2725 39.2511 16.6487 37.8023 16.6487 36.0505C16.6487 33.8943 15.2725 32.985 12.4191 31.9736C9.22998 30.8295 6.57764 29.4475 6.57764 25.6407C6.57764 22.2045 9.33015 19.5088 12.9222 19.5088Z" fill="#00D639"/>
<path d="M27.5725 41.8801C23.9469 41.8801 20.926 38.9488 20.926 35.2425C20.926 31.402 23.9805 28.5383 27.6734 28.5383C31.6347 28.5383 34.4208 31.5033 34.4208 35.5464V40.4651C34.4208 41.3076 33.7495 41.8801 32.9774 41.8801C32.1716 41.8801 31.5001 41.3076 31.5001 40.4651V35.6469C31.5001 32.985 29.9895 31.1656 27.6062 31.1656C25.4913 31.1656 23.8131 32.9513 23.8131 35.2425C23.8131 37.365 25.4577 39.1844 27.5396 39.1844C28.3118 39.1844 28.6475 38.9826 29.1177 38.9826C29.7554 38.9826 30.4267 39.5213 30.4267 40.2963C30.426 41.3406 29.1835 41.8801 27.5725 41.8801Z" fill="#00D639"/>
<path d="M42.6928 51.92C38.9328 51.92 35.8109 49.2244 35.8109 45.7206C35.8109 44.5413 36.4822 44.0026 37.2545 44.0026C38.0266 44.0026 38.6643 44.5083 38.6981 45.4851C38.7316 47.6751 40.4772 49.2919 42.6593 49.2919C44.976 49.2919 46.4859 47.8095 46.4859 45.8886C46.4859 43.6986 44.8077 42.7894 41.9543 41.8793C38.6308 40.8012 35.8109 39.3187 35.8109 35.2088C35.8109 31.435 38.6981 28.5383 42.4574 28.5383C46.2506 28.5383 49.3731 31.3007 49.3731 34.9394C49.3731 37.1632 48.4671 38.8813 47.2245 38.8813C46.3851 38.8813 45.8147 38.2751 45.8147 37.5338C45.8147 36.7588 46.4859 36.4219 46.4859 35.0407C46.4859 32.7157 44.6731 31.1664 42.491 31.1664C40.3761 31.1664 38.6981 32.784 38.6981 34.9064C38.6981 37.2983 40.4099 38.3096 43.2298 39.2527C46.4859 40.3308 49.3731 41.6783 49.3731 45.6201C49.3731 49.1575 46.587 51.92 42.6928 51.92Z" fill="#00D639"/>
<path d="M57.6118 41.8807C53.8515 41.8807 50.7634 38.9156 50.7634 35.2101C50.7634 31.5039 53.7513 28.5396 57.4434 28.5396C61.1702 28.5396 63.9898 31.134 63.9898 34.4359C63.9898 35.7158 63.0838 36.4908 61.6067 36.4908H57.7463C56.974 36.4908 56.4036 35.952 56.4036 35.2438C56.4036 34.57 56.974 34.0306 57.7463 34.0306H60.6332C60.9017 34.0306 61.1036 33.8956 61.1036 33.6262C61.1036 32.6494 59.8612 31.1332 57.5452 31.1332C55.3968 31.1332 53.6512 32.9864 53.6512 35.2101C53.6512 37.4677 55.4303 39.2533 57.646 39.2533C60.1976 39.2533 61.037 37.737 62.0775 37.737C62.9506 37.737 63.4203 38.3094 63.4203 38.9502C63.4203 39.5564 63.0172 40.0957 62.0102 40.7358C61.0018 41.375 59.4919 41.8807 57.6118 41.8807Z" fill="#00D639"/>
</g>
</g>
<defs>
<clipPath id="clip0_1_1140">
<rect width="72" height="72" fill="white" transform="translate(0.0673828)"/>
</clipPath>
</defs>
</svg>
