<svg width="73" height="72" viewBox="0 0 73 72" fill="none" xmlns="http://www.w3.org/2000/svg">
<path d="M54.8592 24.3723V15.9167C55.9766 15.3945 56.9227 14.5656 57.5873 13.5266C58.252 12.4876 58.6079 11.2812 58.6135 10.0478V9.85376C58.6135 6.25759 55.6983 3.34231 52.1024 3.34231H51.9081C48.3119 3.34231 45.3966 6.25759 45.3966 9.85376V10.0478C45.4023 11.2812 45.7582 12.4876 46.4228 13.5266C47.0875 14.5656 48.0336 15.3945 49.151 15.9167V24.3723C45.9395 24.8641 42.915 26.1957 40.3836 28.2324L17.1938 10.1698C17.3591 9.57292 17.4454 8.95909 17.4551 8.34296C17.458 6.89179 17.0304 5.47238 16.2264 4.26427C15.4224 3.05616 14.2782 2.11363 12.9385 1.5559C11.5988 0.998163 10.1237 0.850285 8.69996 1.13097C7.2762 1.41165 5.96765 2.10829 4.93986 3.13275C3.91206 4.15722 3.21119 5.4635 2.92589 6.88635C2.64059 8.3092 2.78368 9.7847 3.33707 11.1262C3.89046 12.4677 4.82927 13.615 6.03477 14.4228C7.24026 15.2307 8.65828 15.6629 10.1095 15.6648C11.379 15.6588 12.6247 15.3199 13.7223 14.6819L36.5576 32.4513C32.3594 38.7934 32.4717 47.0589 36.8405 53.2849L29.8952 60.2323C29.3335 60.0529 28.7489 59.9575 28.1594 59.9494C24.8332 59.9523 22.1386 62.6498 22.1394 65.976C22.1403 69.3019 24.8366 71.998 28.1626 71.9989C31.4888 71.9997 34.1863 69.3051 34.1891 65.9789C34.1813 65.3896 34.0859 64.8047 33.906 64.2434L40.7768 57.37C46.916 62.0961 55.3478 62.5034 61.914 58.3908C68.4799 54.2779 71.7935 46.5136 70.2202 38.9275C68.647 31.3411 62.5192 25.5352 54.8592 24.3723ZM52.0113 52.1819C50.7419 52.2161 49.4786 51.9956 48.2959 51.5334C47.1132 51.0712 46.035 50.3768 45.1252 49.4911C44.2153 48.6053 43.4921 47.5463 42.9983 46.3764C42.5045 45.2066 42.25 43.9496 42.25 42.6798C42.25 41.41 42.5045 40.1531 42.9983 38.9832C43.4921 37.8134 44.2153 36.7543 45.1252 35.8686C46.035 34.9829 47.1132 34.2884 48.2959 33.8263C49.4786 33.3641 50.7419 33.1436 52.0113 33.1777C57.1265 33.3568 61.1815 37.5542 61.1844 42.6729C61.1867 47.7911 57.136 51.9928 52.0207 52.1771" fill="#FF7A59"/>
</svg>
