<svg width="73" height="71" viewBox="0 0 73 71" fill="none" xmlns="http://www.w3.org/2000/svg">
<path d="M67.7369 36.0243C67.7369 33.7305 67.5311 31.525 67.1488 29.4077H36.6846V41.9351H54.0928C53.3282 45.9638 51.0345 49.3751 47.5941 51.6688V59.8146H58.0919C64.2082 54.1685 67.7369 45.8757 67.7369 36.0243Z" fill="#4285F4"/>
<path d="M36.6859 67.6334C45.4194 67.6334 52.7414 64.7515 58.0931 59.8111L47.5953 51.6654C44.7137 53.6063 41.0379 54.7826 36.6859 54.7826C28.2759 54.7826 21.1303 49.107 18.572 41.4612H7.80963V49.8128C13.1321 60.3699 24.0415 67.6334 36.6859 67.6334Z" fill="#34A853"/>
<path d="M18.5707 41.4338C17.9237 39.4929 17.5414 37.4344 17.5414 35.2877C17.5414 33.141 17.9237 31.0825 18.5707 29.1416V20.79H7.80821C5.60278 25.1423 4.33835 30.0532 4.33835 35.2877C4.33835 40.5221 5.60278 45.4332 7.80821 49.7853L16.1887 43.257L18.5707 41.4338Z" fill="#FBBC05"/>
<path d="M36.6859 15.8204C41.4496 15.8204 45.684 17.4672 49.0656 20.6432L58.3285 11.38C52.7119 6.14554 45.4194 2.94019 36.6859 2.94019C24.0415 2.94019 13.1321 10.2037 7.80963 20.7902L18.572 29.1418C21.1303 21.496 28.2759 15.8204 36.6859 15.8204Z" fill="#EA4335"/>
</svg>
