<svg width="73" height="69" viewBox="0 0 73 69" fill="none" xmlns="http://www.w3.org/2000/svg">
<g clip-path="url(#clip0_1_645)">
<mask id="mask0_1_645" style="mask-type:luminance" maskUnits="userSpaceOnUse" x="1" y="0" width="72" height="68">
<path d="M72.1171 0.622803H1.42291V67.959H72.1171V0.622803Z" fill="white"/>
</mask>
<g mask="url(#mask0_1_645)">
<path d="M50.7335 25.8711H68.994C70.7191 25.8711 72.1176 27.3032 72.1176 29.0696V46.1006C72.1176 52.5928 66.9778 57.8558 60.6373 57.8558H60.583C54.2426 57.8567 49.1019 52.5945 49.101 46.1023V46.1006V27.5427C49.101 26.6195 49.8318 25.8711 50.7335 25.8711Z" fill="#5059C9"/>
<path d="M63.0744 22.5074C67.1604 22.5074 70.4727 19.1158 70.4727 14.932C70.4727 10.7483 67.1604 7.35669 63.0744 7.35669C58.9886 7.35669 55.6763 10.7483 55.6763 14.932C55.6763 19.1158 58.9886 22.5074 63.0744 22.5074Z" fill="#5059C9"/>
<path d="M40.0579 22.5076C45.9598 22.5076 50.7443 17.6086 50.7443 11.5654C50.7443 5.52226 45.9598 0.623291 40.0579 0.623291C34.156 0.623291 29.3716 5.52226 29.3716 11.5654C29.3716 17.6086 34.156 22.5076 40.0579 22.5076Z" fill="#7B83EB"/>
<path d="M54.3063 25.8711H24.1643C22.4596 25.9143 21.1111 27.3628 21.1507 29.1083V48.5331C20.9126 59.0077 29.0059 67.7 39.2352 67.9562C49.4646 67.7 57.5579 59.0077 57.3198 48.5331V29.1083C57.3593 27.3628 56.0109 25.9143 54.3063 25.8711Z" fill="#7B83EB"/>
<path opacity="0.1" d="M40.879 25.8711V53.0918C40.8708 54.34 40.132 55.4614 39.0047 55.9368C38.6459 56.0922 38.26 56.1724 37.8703 56.1725H22.5971C22.3834 55.6169 22.1861 55.0614 22.0216 54.4891C21.4462 52.5574 21.1525 50.5493 21.1503 48.5298V29.1033C21.1108 27.3605 22.4571 25.9143 24.1589 25.8711H40.879Z" fill="black"/>
<path opacity="0.2" d="M39.2349 25.8711V54.7752C39.2349 55.1742 39.1566 55.5692 39.0047 55.9368C38.5406 57.091 37.4454 57.8474 36.2263 57.8558H23.3699C23.0903 57.3003 22.8272 56.7448 22.5971 56.1725C22.3669 55.6001 22.1861 55.0614 22.0216 54.4891C21.4462 52.5574 21.1525 50.5493 21.1503 48.5298V29.1033C21.1108 27.3605 22.4571 25.9143 24.1589 25.8711H39.2349Z" fill="black"/>
<path opacity="0.2" d="M39.2349 25.8711V51.4083C39.2223 53.1044 37.8827 54.4762 36.2263 54.4891H22.0216C21.4462 52.5574 21.1525 50.5493 21.1503 48.5298V29.1033C21.1108 27.3605 22.4571 25.9143 24.1589 25.8711H39.2349Z" fill="black"/>
<path opacity="0.2" d="M37.5908 25.8711V51.4083C37.5783 53.1044 36.2387 54.4762 34.5822 54.4891H22.0216C21.4462 52.5574 21.1525 50.5493 21.1503 48.5298V29.1033C21.1108 27.3605 22.4571 25.9143 24.1589 25.8711H37.5908Z" fill="black"/>
<path opacity="0.1" d="M40.8804 17.1679V22.4706C40.6009 22.4875 40.3378 22.5043 40.0583 22.5043C39.7788 22.5043 39.5158 22.4875 39.2363 22.4706C38.6813 22.433 38.131 22.3428 37.5923 22.2013C34.263 21.394 31.5125 19.0033 30.194 15.7707C29.9671 15.2279 29.791 14.6642 29.6679 14.0874H37.8717C39.5307 14.0938 40.874 15.4692 40.8804 17.1679Z" fill="black"/>
<path opacity="0.2" d="M39.2358 18.8531V22.4724C38.6809 22.4347 38.1306 22.3446 37.5918 22.2031C34.2626 21.3958 31.5122 19.0051 30.1935 15.7725H36.2273C37.8862 15.7789 39.2295 17.1543 39.2358 18.8531Z" fill="black"/>
<path opacity="0.2" d="M39.2358 18.8531V22.4724C38.6809 22.4347 38.1306 22.3446 37.5918 22.2031C34.2626 21.3958 31.5122 19.0051 30.1935 15.7725H36.2273C37.8862 15.7789 39.2295 17.1543 39.2358 18.8531Z" fill="black"/>
<path opacity="0.2" d="M37.5918 18.8531V22.2031C34.2626 21.3958 31.5122 19.0051 30.1935 15.7725H34.5831C36.2422 15.779 37.5855 17.1545 37.5918 18.8531Z" fill="black"/>
<path d="M4.43644 15.7725H34.5784C36.2428 15.7725 37.592 17.154 37.592 18.8581V49.7217C37.592 51.4258 36.2428 52.8074 34.5784 52.8074H4.43644C2.7721 52.8074 1.42291 51.4258 1.42291 49.7217V18.8581C1.42291 17.154 2.77214 15.7725 4.43644 15.7725Z" fill="url(#paint0_linear_1_645)"/>
<path d="M27.4382 27.519H21.4127V44.3194H17.5739V27.519H11.5764V24.26H27.4382V27.519Z" fill="white"/>
</g>
</g>
<defs>
<linearGradient id="paint0_linear_1_645" x1="7.70623" y1="13.3614" x2="32.1561" y2="54.7175" gradientUnits="userSpaceOnUse">
<stop stop-color="#5A62C3"/>
<stop offset="0.5" stop-color="#4D55BD"/>
<stop offset="1" stop-color="#3940AB"/>
</linearGradient>
<clipPath id="clip0_1_645">
<rect width="72" height="68.58" fill="white" transform="translate(0.442444)"/>
</clipPath>
</defs>
</svg>
