<svg width="73" height="72" viewBox="0 0 73 72" fill="none" xmlns="http://www.w3.org/2000/svg">
<path d="M9.04045 6.74646L44.2661 4.14463C48.5931 3.77349 49.7046 4.02368 52.4255 6.00163L63.67 13.923C65.5244 15.2853 66.142 15.6565 66.142 17.1398V60.584C66.142 63.3068 65.1533 64.9175 61.692 65.1632L20.7859 67.6409C18.1886 67.7638 16.9516 67.3926 15.5912 65.6591L7.31078 54.8915C5.82556 52.9097 5.20996 51.4264 5.20996 49.6923V11.0754C5.20996 8.84919 6.19862 6.99283 9.04045 6.74646Z" fill="white"/>
<path fill-rule="evenodd" clip-rule="evenodd" d="M44.2661 4.14527L9.04045 6.7471C6.19862 6.99283 5.20996 8.84983 5.20996 11.0754V49.6923C5.20996 51.4258 5.82556 52.9091 7.31078 54.8915L15.5912 65.6585C16.9516 67.392 18.1886 67.7638 20.7859 67.6403L61.6927 65.1638C65.1514 64.9175 66.1426 63.3068 66.1426 60.5847V17.1404C66.1426 15.7335 65.5868 15.328 63.9507 14.1273L52.4255 6.00163C49.7053 4.02368 48.5931 3.77413 44.2661 4.14527ZM21.7109 16.4293C18.3706 16.654 17.6131 16.705 15.716 15.1625L10.893 11.3262C10.4028 10.8297 10.6492 10.2103 11.8842 10.0868L45.7475 7.61226C48.5912 7.36398 50.072 8.35518 51.1841 9.22097L56.9919 13.429C57.2402 13.5544 57.8577 14.2948 57.1148 14.2948L22.1438 16.4L21.7109 16.4293ZM17.8168 60.2135V23.3327C17.8168 21.7221 18.3114 20.9792 19.7922 20.8544L59.9586 18.5028C61.3209 18.3799 61.9365 19.2457 61.9365 20.8538V57.4888C61.9365 59.0995 61.6882 60.4618 59.4645 60.5847L21.0279 62.8128C18.8042 62.9357 17.8168 62.1953 17.8168 60.2135ZM55.7588 25.3101C56.0052 26.4241 55.7588 27.5382 54.6448 27.6655L52.7922 28.0328V55.2626C51.1835 56.1284 49.7027 56.6231 48.4652 56.6231C46.4872 56.6231 45.9932 56.0036 44.5118 54.1485L32.3971 35.0884V53.5291L36.2295 54.3968C36.2295 54.3968 36.2295 56.625 33.1375 56.625L24.6133 57.1196C24.365 56.6231 24.6133 55.3861 25.4771 55.1397L27.7034 54.5222V30.14L24.6139 29.8898C24.3656 28.7758 24.9831 27.167 26.7147 27.0423L35.8609 26.4267L48.4658 45.7332V28.6529L45.2528 28.2837C45.0046 26.9194 45.9932 25.9282 47.2282 25.8072L55.7588 25.3101Z" fill="black"/>
</svg>
