<svg width="73" height="72" viewBox="0 0 73 72" fill="none" xmlns="http://www.w3.org/2000/svg">
<g clip-path="url(#clip0_1_154)">
<mask id="mask0_1_154" style="mask-type:luminance" maskUnits="userSpaceOnUse" x="0" y="0" width="73" height="72">
<path d="M72.9424 0H0.942444V72H72.9424V0Z" fill="white"/>
</mask>
<g mask="url(#mask0_1_154)">
<path d="M36.9424 72C56.8246 72 72.9424 55.8822 72.9424 36C72.9424 16.1177 56.8246 0 36.9424 0C17.0601 0 0.942444 16.1177 0.942444 36C0.942444 55.8822 17.0601 72 36.9424 72Z" fill="#1F1F1F"/>
<path d="M32.9824 24.6445H28.3244C27.9725 24.645 27.6352 24.785 27.3864 25.0338C27.1375 25.2826 26.9976 25.62 26.9971 25.9719V31.9431C26.9976 32.295 27.1375 32.6323 27.3864 32.8812C27.6352 33.13 27.9725 33.27 28.3244 33.2704H32.9824V48.3147C32.9829 48.6666 33.1229 49.004 33.3717 49.2528C33.6205 49.5016 33.9579 49.6416 34.3098 49.6421H40.281C40.6329 49.6416 40.9702 49.5016 41.2191 49.2528C41.4679 49.004 41.6079 48.6666 41.6083 48.3147V25.9719C41.6079 25.62 41.4679 25.2826 41.2191 25.0338C40.9702 24.785 40.6329 24.645 40.281 24.6445H32.9824Z" fill="white"/>
</g>
</g>
<defs>
<clipPath id="clip0_1_154">
<rect width="72" height="72" fill="white" transform="translate(0.942444)"/>
</clipPath>
</defs>
</svg>
