<svg width="72" height="72" viewBox="0 0 72 72" fill="none" xmlns="http://www.w3.org/2000/svg">
<g clip-path="url(#clip0_1_669)" filter="url(#filter0_d_1_669)">
<mask id="mask0_1_669" style="mask-type:luminance" maskUnits="userSpaceOnUse" x="0" y="0" width="72" height="72">
<path d="M71.8029 0.450195H0.692871V71.5502H71.8029V0.450195Z" fill="white"/>
</mask>
<g mask="url(#mask0_1_669)">
<path d="M34.4559 7.4187C43.8282 7.4187 51.437 15.0122 51.437 24.3974C51.437 33.7684 43.8424 41.3761 34.4559 41.3761C25.0836 41.3761 17.4749 33.7826 17.4749 24.3974C17.4749 15.0122 25.0836 7.4187 34.4559 7.4187Z" fill="#036C70"/>
<path d="M50.3129 24.8276C58.3341 24.8276 64.8478 31.3262 64.8478 39.3605C64.8478 47.3806 58.3483 53.8933 50.3129 53.8933C42.2917 53.8933 35.778 47.3948 35.778 39.3605C35.7922 31.3262 42.2917 24.8276 50.3129 24.8276Z" fill="#1A9BA1"/>
<path d="M36.2342 41.3618C42.6483 41.3618 47.8536 46.5663 47.8536 52.9796C47.8536 59.3928 42.6483 64.5973 36.2342 64.5973C29.8201 64.5973 24.6148 59.3928 24.6148 52.9796C24.629 46.5663 29.8201 41.3618 36.2342 41.3618Z" fill="#37C6D0"/>
<path d="M37.1583 21.1953H35.8356C35.9494 21.366 36.0347 21.5508 36.0774 21.7499H36.4187C37.4001 21.7641 38.1965 22.5747 38.168 23.5558V31.3484C38.3672 31.0356 38.5947 30.7369 38.8223 30.4383V22.9728C38.8507 22.0343 38.0969 21.238 37.1583 21.1953Z" fill="#03686C"/>
<path d="M38.8364 30.4543C38.6089 30.753 38.3955 31.0516 38.1822 31.3644V41.5317C38.3955 41.5744 38.6231 41.617 38.8364 41.6597V30.4543Z" fill="#19969B"/>
<path d="M38.183 41.5278V49.5906V49.6048C38.183 49.7186 38.1688 49.8181 38.1545 49.9319C38.567 49.164 38.8372 47.9837 38.8372 46.7324V41.6558C38.6239 41.5989 38.3963 41.5563 38.183 41.5278Z" fill="#35BFC9"/>
<path d="M25.7809 47.7605H25.7666C25.2973 48.7132 24.9418 49.7371 24.7427 50.832H24.7569C24.956 49.7513 25.2973 48.7132 25.7809 47.7605Z" fill="#F6F6F6"/>
<path d="M24.6571 53.7336H24.6429C24.6571 53.9896 24.6713 54.2456 24.7282 54.5015C24.6855 54.2456 24.6713 53.9896 24.6571 53.7336Z" fill="#EEEEEE"/>
<path d="M36.3477 52.2817C36.2197 52.3528 36.0775 52.4097 35.9353 52.4524C35.5513 53.2203 34.7548 53.7322 33.8446 53.7322C33.8162 53.7322 33.7878 53.7322 33.7593 53.7322H24.6714C24.6857 53.9881 24.7141 54.2441 24.7426 54.5001C24.7426 54.5285 24.7568 54.5427 24.7568 54.5712H33.8731C33.9157 54.5712 33.9584 54.5712 33.9869 54.5712C35.2384 54.5712 36.2766 53.59 36.3477 52.3244C36.3335 52.3102 36.3477 52.296 36.3477 52.2817Z" fill="#33B9C2"/>
<path d="M38.1534 49.9246C38.139 49.9388 38.139 49.9672 38.1246 49.9814V50.0383V50.0525C38.139 50.0099 38.139 49.9672 38.1534 49.9246Z" fill="#33B9C2"/>
<path d="M36.4323 21.7507H36.091C36.1337 21.8929 36.1479 22.0351 36.1479 22.1916V22.4902H36.347H36.3612C37.3425 22.5044 38.1248 23.3007 38.1248 24.2819V31.4488C38.139 31.4203 38.1674 31.3919 38.1816 31.3635V23.5709C38.1959 22.5755 37.4136 21.765 36.4323 21.7507Z" fill="#036165"/>
<path d="M38.1822 31.3635C38.1678 31.392 38.139 31.4204 38.1246 31.4488V41.5166C38.139 41.5166 38.1678 41.5166 38.1822 41.5308V31.3635Z" fill="#178C91"/>
<path d="M38.1246 41.5205V49.9814C38.139 49.9672 38.139 49.9388 38.1534 49.9245C38.1678 49.825 38.1822 49.7112 38.1822 49.5975V49.5833V41.5205C38.1678 41.5205 38.139 41.5205 38.1246 41.5205Z" fill="#32B3BC"/>
<path d="M38.1239 50.051C37.9959 50.5487 37.6404 50.9611 37.1853 51.1886C37.1426 51.3735 37.0573 51.5441 36.9577 51.7005C37.6261 51.4588 38.1097 50.8189 38.1239 50.051Z" fill="#33B9C2"/>
<path d="M38.1254 49.9771C37.8694 50.4321 37.5707 50.7307 37.2436 50.816C37.2436 50.944 37.2152 51.072 37.1867 51.2C37.6418 50.9724 37.9974 50.5601 38.1254 50.0624V50.0481V49.9771Z" fill="#30ACB5"/>
<path d="M36.3474 22.4902H36.134V23.315C37.0869 23.3434 37.8549 24.1398 37.8549 25.0925V31.8612C37.9402 31.719 38.0256 31.5768 38.1109 31.4488V24.282C38.1251 23.3008 37.3287 22.5045 36.3474 22.4902Z" fill="#035B5E"/>
<path d="M38.1253 31.4517C38.0399 31.5939 37.9546 31.7218 37.8693 31.864V41.4768C37.9546 41.491 38.0399 41.5052 38.1253 41.5194V31.4517Z" fill="#168388"/>
<path d="M37.8683 41.4736V46.6782C37.854 47.6451 37.6407 48.5836 37.2425 49.4368V50.7309C37.2425 50.7593 37.2425 50.7735 37.2425 50.802C37.5696 50.7166 37.8683 50.418 38.1243 49.963V41.5021C38.0389 41.5021 37.9536 41.4879 37.8683 41.4736Z" fill="#2EA7AF"/>
<path d="M34.3423 20.3875H17.9728C17.9301 20.5581 17.8875 20.7287 17.859 20.8994H34.2285H34.2428C34.6125 20.8994 34.9538 21.0131 35.2383 21.198H35.8356C35.5085 20.7145 34.9681 20.4017 34.3423 20.3875Z" fill="#036B6F"/>
<path d="M35.8361 21.1953H35.2388C35.4521 21.3375 35.637 21.5224 35.765 21.7499H36.0779C36.0352 21.5508 35.9499 21.366 35.8361 21.1953Z" fill="#03676B"/>
<path d="M36.0764 21.7507H35.7635C35.8915 21.964 35.9769 22.1916 36.0053 22.4475C36.0053 22.4617 36.0195 22.476 36.0195 22.4902H36.1333V22.1916C36.1333 22.0351 36.1191 21.8929 36.0764 21.7507Z" fill="#036164"/>
<path d="M33.1479 41.3167C33.5746 41.3451 34.0013 41.3593 34.4422 41.3593C34.4564 41.3593 34.4564 41.3593 34.4706 41.3593C34.755 41.3593 35.0253 41.3593 35.2955 41.3451C35.3808 41.3451 35.4661 41.3309 35.5515 41.3309C35.6084 41.3309 35.651 41.3167 35.7079 41.3167C35.2955 41.3451 34.883 41.3593 34.4706 41.3593C34.0724 41.3593 33.6742 41.3451 33.2759 41.3167C33.2191 41.3167 33.1906 41.3167 33.1479 41.3167Z" fill="#FDFDFD"/>
<path d="M35.8351 41.2915C35.6076 41.3199 35.38 41.3342 35.1525 41.3342C34.9249 41.3484 34.6973 41.3484 34.4698 41.3484C34.4556 41.3484 34.4271 41.3484 34.4129 41.3484C34.356 41.3484 34.2991 41.3484 34.228 41.3484C33.9009 41.3484 33.588 41.3342 33.2609 41.3199C33.6591 41.3484 34.0574 41.3626 34.4556 41.3626C34.868 41.3626 35.2805 41.3484 35.6929 41.3199C35.7356 41.3199 35.7924 41.3057 35.8351 41.2915Z" fill="#036B6F"/>
<path d="M36.1344 22.4902H36.0206C36.0917 22.6893 36.1344 22.9026 36.1344 23.1301V23.315V22.4902Z" fill="#035A5E"/>
<path d="M24.7561 50.8301H24.7418C24.6138 51.5269 24.5427 52.2379 24.5427 52.9631V53.731H24.6281C24.6138 53.5319 24.6138 53.3328 24.6138 53.1195C24.6138 53.0626 24.6138 53.02 24.6138 52.9631H24.5854C24.5854 52.8067 24.5854 52.6645 24.5996 52.508H24.5854C24.5996 52.2805 24.6138 52.0388 24.6281 51.8113C24.6565 51.5695 24.6849 51.3278 24.7276 51.086C24.7276 51.0007 24.7418 50.9154 24.7561 50.8301Z" fill="#DDDDDD"/>
<path d="M25.7809 47.7605C25.2973 48.7132 24.9561 49.7513 24.7427 50.832H24.7569C24.956 49.7513 25.3115 48.7132 25.7809 47.7605Z" fill="#D6D6D6"/>
<path d="M24.6293 52.9653C24.6293 53.0222 24.6293 53.0649 24.6293 53.1218C24.6293 53.3208 24.6293 53.5341 24.6437 53.7332H24.6581C24.6437 53.4773 24.6293 53.2355 24.6293 52.9796C24.6293 52.9653 24.6293 52.9653 24.6293 52.9653Z" fill="#CFCFCF"/>
<path d="M35.9216 52.4531C35.7794 52.4958 35.6229 52.51 35.4665 52.51H35.2247C34.8407 52.7944 34.3572 52.965 33.8452 52.965C33.831 52.965 33.831 52.965 33.8167 52.965H24.6293V52.9793C24.6293 53.2352 24.6436 53.477 24.6578 53.7329H33.7456C33.7741 53.7329 33.8025 53.7329 33.831 53.7329C34.7412 53.7329 35.5376 53.221 35.9216 52.4531Z" fill="#2DA1A9"/>
<path d="M24.628 52.509H24.5848C24.5848 52.6512 24.5704 52.8077 24.5704 52.9641H24.6136C24.628 52.8077 24.628 52.6655 24.628 52.509Z" fill="#C1C1C1"/>
<path d="M24.6437 52.509C24.6293 52.6512 24.6293 52.8077 24.6293 52.9641C24.6293 52.8077 24.6293 52.6655 24.6437 52.509Z" fill="#B6B6B6"/>
<path d="M35.2244 52.509H24.629C24.629 52.6512 24.6148 52.8077 24.6148 52.9641H33.8022C33.8164 52.9641 33.8164 52.9641 33.8307 52.9641C34.3711 52.9641 34.8404 52.7934 35.2244 52.509Z" fill="#278E95"/>
<path d="M24.7144 51.0862C24.6717 51.3279 24.6433 51.5697 24.6148 51.8114C24.6575 51.5697 24.6859 51.3279 24.7144 51.0862Z" fill="#CFCFCF"/>
<path d="M36.134 23.3145V23.414C36.5038 23.6557 36.774 23.9401 36.774 24.2672V25.1772C37.0585 25.49 37.2433 25.9167 37.2433 26.3718V33.0124C37.4282 32.6142 37.6416 32.2303 37.8691 31.8606V25.092C37.8691 24.125 37.1011 23.3429 36.134 23.3145Z" fill="#035658"/>
<path d="M37.8683 31.8611C37.6407 32.2308 37.4416 32.6147 37.2425 33.0129V41.4027C37.4558 41.4169 37.6549 41.4454 37.8683 41.4738V31.8611Z" fill="#147B7F"/>
<path d="M37.2425 41.4033V49.4518C37.6407 48.5844 37.854 47.6459 37.8683 46.6932V41.4886C37.6549 41.446 37.4558 41.4175 37.2425 41.4033Z" fill="#2B9DA4"/>
<path d="M36.134 23.4172V23.8012C36.4611 24.1282 36.6745 24.5833 36.6745 25.0952C36.7029 25.1236 36.7456 25.1663 36.774 25.1947V24.2847C36.774 23.9434 36.5038 23.659 36.134 23.4172Z" fill="#024649"/>
<path d="M17.4749 24.5083C17.4749 32.6137 23.3485 39.7664 31.6115 41.1315H31.6257C32.1377 41.2168 32.6497 41.2737 33.1617 41.3163C32.2373 41.2452 31.3271 41.103 30.4169 40.8755C29.7911 40.7191 29.1796 40.5342 28.5822 40.3209C22.6517 38.1595 18.4846 32.8554 17.6455 26.7266C17.5317 26.0014 17.4749 25.262 17.4749 24.5083Z" fill="#CBCBCB"/>
<path d="M28.5678 40.323C29.1651 40.5363 29.7767 40.7354 30.4024 40.8776C31.2984 41.1051 32.2229 41.2473 33.1473 41.3184C33.19 41.3184 33.2184 41.3184 33.2611 41.3326C31.9526 41.2473 30.6869 41.0056 29.4922 40.6358C29.3785 40.5932 29.2505 40.5647 29.1367 40.5221C28.9376 40.451 28.7527 40.3799 28.5678 40.323Z" fill="#CACACA"/>
<path d="M35.8357 41.2926C35.6508 41.321 35.4659 41.3353 35.2668 41.3353C35.2241 41.3353 35.1815 41.3353 35.1388 41.3353C35.3806 41.3353 35.6081 41.321 35.8357 41.2926ZM29.4785 40.6243C30.6873 40.994 31.9531 41.2357 33.2473 41.321C33.5744 41.3353 33.8873 41.3495 34.2144 41.3495C34.2713 41.3495 34.3282 41.3495 34.3993 41.3495C34.3139 41.3495 34.2286 41.3495 34.1433 41.3495C33.0482 41.3353 31.9531 41.2215 30.8864 40.994C30.4171 40.8944 29.9478 40.7665 29.4785 40.6243Z" fill="#025659"/>
<path d="M35.8224 41.2915H35.8082C35.7798 41.2915 35.7655 41.2915 35.7371 41.3057C35.5806 41.3199 35.4242 41.3342 35.2678 41.3484C35.4526 41.3342 35.6518 41.3199 35.8224 41.2915Z" fill="#025054"/>
<path d="M35.2667 41.3311C35.0107 41.3453 34.7547 41.3453 34.4845 41.3453C34.4702 41.3453 34.456 41.3453 34.4418 41.3453C34.4133 41.3453 34.3991 41.3453 34.3707 41.3453C34.3138 41.3453 34.2427 41.3453 34.1858 41.3453H34.1716C34.2569 41.3453 34.3422 41.3453 34.4276 41.3453C34.4702 41.3453 34.4987 41.3453 34.5413 41.3453C34.7547 41.3453 34.968 41.3453 35.1671 41.3453C35.1813 41.3453 35.224 41.3453 35.2667 41.3311Z" fill="#025054"/>
<path d="M35.7494 41.3042C35.337 41.3469 34.9103 41.3469 34.4836 41.3469C34.7539 41.3469 35.0099 41.3469 35.2659 41.3326C35.4223 41.3326 35.593 41.3184 35.7494 41.3042Z" fill="#024C4F"/>
<path d="M35.8064 41.2915C35.778 41.2915 35.7638 41.2915 35.7354 41.3055C35.7638 41.3055 35.7922 41.2915 35.8064 41.2915Z" fill="#013537"/>
<path d="M35.8065 41.2915C35.394 41.3484 34.9674 41.3484 34.5123 41.3484C34.498 41.3484 34.4838 41.3484 34.4696 41.3484C34.8963 41.3484 35.3229 41.3484 35.7354 41.3057C35.7638 41.3057 35.778 41.2915 35.8065 41.2915Z" fill="#013335"/>
<path d="M35.7927 41.2915C35.3802 41.3484 34.9394 41.3484 34.5127 41.3484C34.9536 41.3484 35.3945 41.3484 35.7927 41.2915Z" fill="#013032"/>
<path d="M36.134 23.7996V24.3399C36.1483 24.4252 36.1625 24.5106 36.1767 24.5959C36.2051 24.667 36.2194 24.7381 36.2478 24.8092C36.4043 24.8803 36.5465 24.9798 36.6745 25.1078C36.6745 24.5817 36.4754 24.1266 36.134 23.7996Z" fill="#024042"/>
<path d="M36.134 24.3406C36.1484 24.4259 36.1628 24.5112 36.1772 24.5823C36.1772 24.497 36.1628 24.4117 36.134 24.3406Z" fill="#023739"/>
<path d="M36.134 24.3406V24.4828C36.1484 24.5112 36.1628 24.5539 36.1772 24.5823C36.1772 24.497 36.1628 24.4117 36.134 24.3406Z" fill="#013133"/>
<path d="M36.1767 24.5786C36.1767 24.6355 36.1911 24.6924 36.1911 24.7635C36.2055 24.7777 36.2343 24.7777 36.2487 24.7919C36.2343 24.7208 36.2055 24.6497 36.1767 24.5786Z" fill="#023739"/>
<path d="M36.1767 24.5786C36.1767 24.6355 36.1911 24.7066 36.1911 24.7635C36.1911 24.7066 36.1911 24.6355 36.1767 24.5786Z" fill="#013133"/>
<path d="M36.134 24.4814V24.7374C36.1484 24.7516 36.1772 24.7516 36.1916 24.7658C36.1916 24.709 36.1916 24.6379 36.1772 24.581C36.1628 24.5525 36.1484 24.5099 36.134 24.4814Z" fill="#012D2F"/>
<path d="M36.9587 51.7119C36.7738 51.783 36.5605 51.8257 36.3472 51.8257V52.2949C36.5889 52.1385 36.8023 51.9394 36.9587 51.7119Z" fill="#33B9C2"/>
<path d="M36.3474 51.8147H36.1483C36.1056 52.0422 36.0345 52.2555 35.9349 52.4546C36.0772 52.4119 36.2194 52.3551 36.3474 52.284V51.8147Z" fill="#30ACB5"/>
<path d="M37.1863 51.189C36.9587 51.3027 36.6885 51.3596 36.4183 51.3596H36.3472V51.8146C36.5605 51.8146 36.7738 51.772 36.9587 51.7009C37.0583 51.5587 37.1294 51.3738 37.1863 51.189Z" fill="#30ACB5"/>
<path d="M36.3468 51.3711H36.1904V51.4706C36.1904 51.5844 36.1761 51.6982 36.1477 51.8119H36.3468V51.3711Z" fill="#2DA2AA"/>
<path d="M37.2432 50.803C37.1863 50.8172 37.1294 50.8314 37.0725 50.8314H36.4183C36.3898 50.8599 36.3756 50.8883 36.3472 50.9167V51.3718H36.4183C36.6885 51.3718 36.9587 51.3149 37.1863 51.2011C37.2147 51.0732 37.2289 50.9452 37.2432 50.803Z" fill="#2DA2AA"/>
<path d="M37.2439 49.4521C37.0163 49.9356 36.7461 50.4049 36.4048 50.8315H37.059C37.1159 50.8315 37.1728 50.8173 37.2297 50.8031C37.2297 50.7746 37.2297 50.7604 37.2297 50.7319V49.4521" fill="#2B9DA4"/>
<path d="M36.3476 50.9165C36.2907 50.9876 36.2481 51.0445 36.1912 51.1156V51.3715H36.3476V50.9165Z" fill="#2A979F"/>
<path d="M24.6418 51.8113C24.6134 52.0388 24.5992 52.2663 24.585 52.508H24.5992C24.5992 52.2805 24.6134 52.0388 24.6418 51.8113ZM24.7698 50.8301C24.7556 50.9154 24.7414 51.0007 24.7272 51.086C24.7272 51.0007 24.7414 50.9154 24.7698 50.8301Z" fill="#CFCFCF"/>
<path d="M25.7957 47.7605C25.3122 48.7132 24.9566 49.7513 24.7717 50.832C24.9708 49.7371 25.3122 48.7132 25.7957 47.7605Z" fill="#C9C9C9"/>
<path d="M36.149 51.8147H35.8788C35.7223 52.0849 35.4948 52.3266 35.2388 52.5115H35.4805C35.637 52.5115 35.7934 52.4973 35.9356 52.4546C36.021 52.2555 36.1063 52.0422 36.149 51.8147Z" fill="#2A979F"/>
<path d="M24.6856 51.8147H24.6429C24.6144 52.0422 24.6002 52.2697 24.6002 52.5115H24.6429C24.6429 52.284 24.6571 52.0422 24.6856 51.8147Z" fill="#B6B6B6"/>
<path d="M24.6869 51.8147C24.6581 52.0422 24.6437 52.2697 24.6293 52.5115C24.6437 52.284 24.6581 52.0422 24.6869 51.8147Z" fill="#ACACAC"/>
<path d="M35.864 51.8147H35.3663C34.9681 52.0991 34.4845 52.284 33.9583 52.284C33.9441 52.284 33.9441 52.284 33.9298 52.284H24.7424C24.7567 52.1275 24.7567 51.9711 24.7851 51.8147H24.6855C24.6571 52.0422 24.6429 52.2697 24.6429 52.5115H35.2383C35.48 52.3266 35.7076 52.0849 35.864 51.8147Z" fill="#25868D"/>
<path d="M24.7851 50.8301C24.7567 50.9154 24.7424 51.0007 24.7282 51.086C24.6855 51.3278 24.6571 51.5695 24.6429 51.8113H24.6571C24.6713 51.4842 24.714 51.1571 24.7851 50.8301Z" fill="#C2C2C2"/>
<path d="M25.8099 47.7605H25.7957C25.3122 48.7132 24.9708 49.7513 24.7717 50.832H24.786C24.9851 49.7513 25.3264 48.7132 25.8099 47.7605Z" fill="#BDBDBD"/>
<path d="M24.8 50.8301H24.7716C24.7147 51.1571 24.6578 51.4842 24.6293 51.8113H24.672C24.6862 51.6548 24.7004 51.5126 24.7289 51.3562H24.7147C24.7431 51.1856 24.7716 51.0007 24.8 50.8301Z" fill="#ACACAC"/>
<path d="M25.8099 47.7605C25.3264 48.7132 24.9708 49.7513 24.7717 50.832H24.8002C24.8144 50.7467 24.8286 50.6614 24.8428 50.5903H24.8286C25.0419 49.5807 25.3691 48.6421 25.8099 47.7605Z" fill="#A8A8A8"/>
<path d="M24.7856 51.3711H24.7429C24.7287 51.5133 24.7003 51.6697 24.686 51.8261H24.7856C24.7856 51.7835 24.7998 51.755 24.7998 51.7124H24.7571C24.7571 51.5844 24.7714 51.4849 24.7856 51.3711Z" fill="#237F85"/>
<path d="M24.8004 50.8301C24.7577 51.0149 24.7292 51.1856 24.715 51.3704H24.7292C24.7435 51.3136 24.7435 51.2567 24.7577 51.214H24.7435C24.7577 51.0718 24.7861 50.9581 24.8004 50.8301Z" fill="#A3A3A3"/>
<path d="M24.8565 50.5918C24.8421 50.6771 24.8134 50.7624 24.7989 50.8335C24.8134 50.7482 24.8421 50.6629 24.8565 50.5918Z" fill="#9F9F9F"/>
<path d="M24.7569 51.2034C24.7425 51.2602 24.7425 51.3171 24.7281 51.3598C24.7425 51.3171 24.7569 51.2602 24.7569 51.2034Z" fill="#9B9B9B"/>
<path d="M24.8001 51.2034H24.7569C24.7425 51.2602 24.7425 51.3171 24.7281 51.3598H24.7713C24.7857 51.3171 24.8001 51.2602 24.8001 51.2034Z" fill="#21797E"/>
<path d="M36.1772 51.3711H36.0634C36.0065 51.5275 35.9354 51.6839 35.8501 51.8261H36.1203C36.1345 51.7124 36.1488 51.5986 36.163 51.4849V51.3711" fill="#278E95"/>
<path d="M36.078 51.3711H35.8363C35.7083 51.5417 35.5518 51.6982 35.3812 51.8261H35.8789C35.95 51.6697 36.0212 51.5275 36.078 51.3711Z" fill="#237F85"/>
<path d="M36.1769 51.1006C36.1627 51.1148 36.1484 51.1432 36.1342 51.1575C36.12 51.2286 36.0916 51.2997 36.0773 51.3565H36.1911V51.1006" fill="#25868D"/>
<path d="M36.134 51.1582C36.1198 51.1724 36.1055 51.1866 36.0913 51.2008H35.9349C35.8922 51.2577 35.8638 51.3146 35.8211 51.3573H36.0629C36.0913 51.3004 36.1198 51.2293 36.134 51.1582Z" fill="#21797E"/>
<path d="M25.8097 47.7605C25.3689 48.6421 25.0275 49.5949 24.8284 50.5903H24.8427C24.8569 50.5476 24.8569 50.505 24.8711 50.4623H24.8569C25.0702 49.4953 25.3973 48.5995 25.8097 47.7605Z" fill="#8E8E8E"/>
<path d="M25.8231 47.7605C25.3964 48.5995 25.0693 49.5096 24.8702 50.4623H24.8844C24.9413 50.1921 25.0124 49.9362 25.0835 49.6802H25.0693C25.2542 48.9976 25.5102 48.3577 25.8231 47.7605Z" fill="#7D7D7D"/>
<path d="M25.0833 49.6631C25.0122 49.919 24.9411 50.175 24.8842 50.4452C24.9411 50.1892 24.998 49.919 25.0833 49.6631Z" fill="#797979"/>
<path d="M24.828 51.3711H24.7853C24.7711 51.4849 24.757 51.5986 24.7427 51.7124H24.7853C24.7995 51.5844 24.8138 51.4849 24.828 51.3711Z" fill="#1E6C71"/>
<path d="M24.8573 51.2034H24.8141C24.7997 51.2602 24.7997 51.3171 24.7853 51.3598H24.8285C24.8429 51.3171 24.8429 51.2602 24.8573 51.2034Z" fill="#1D686D"/>
<path d="M35.3662 51.8147H24.7708C24.7566 51.9711 24.7424 52.1275 24.7281 52.284H33.9156C33.9298 52.284 33.9298 52.284 33.944 52.284C34.4844 52.284 34.9822 52.1133 35.3662 51.8147Z" fill="#21787E"/>
<path d="M35.8358 51.3711H35.1958C34.8402 51.5844 34.4278 51.7124 33.9869 51.7124C33.9585 51.7124 33.93 51.7124 33.9158 51.7124H24.7995C24.7995 51.755 24.7853 51.7835 24.7853 51.8261H35.3807C35.5371 51.6839 35.6936 51.5417 35.8358 51.3711Z" fill="#207378"/>
<path d="M35.9499 51.2034H35.4379C35.3668 51.2602 35.2814 51.3171 35.1961 51.3598H35.8361C35.8645 51.3171 35.9072 51.2602 35.9499 51.2034Z" fill="#1E6D73"/>
<path d="M35.1958 51.3711H24.8279C24.8137 51.4849 24.7995 51.5986 24.7853 51.7124H33.9016C33.93 51.7124 33.9585 51.7124 33.9727 51.7124C34.4278 51.6982 34.8402 51.5844 35.1958 51.3711Z" fill="#1C6368"/>
<path d="M35.4238 51.2034H24.8569C24.8427 51.2602 24.8427 51.3171 24.8284 51.3598H35.1963C35.2816 51.3171 35.3527 51.2602 35.4238 51.2034Z" fill="#1B6065"/>
<path d="M36.4056 50.8301H36.3336V50.9154C36.3624 50.887 36.3912 50.8585 36.4056 50.8301Z" fill="#2A979F"/>
<path d="M36.7744 25.1938V34.0813C36.9166 33.7258 37.073 33.3703 37.2437 33.0148V26.3883C37.2437 25.9333 37.0588 25.5067 36.7744 25.1938Z" fill="#035053"/>
<path d="M37.2437 33.0137C37.073 33.355 36.9166 33.7105 36.7744 34.0802V41.375C36.9308 41.375 37.0872 41.3893 37.2437 41.4035V33.0137Z" fill="#137377"/>
<path d="M36.7738 41.3762V47.9316C36.7738 48.1307 36.7312 48.3156 36.6743 48.4862V48.8275C36.6743 49.2114 36.5463 49.5669 36.3472 49.8656V50.8325H36.4183C36.7454 50.4059 37.0298 49.9367 37.2574 49.4532V41.4047C37.0867 41.3904 36.9303 41.3904 36.7738 41.3762Z" fill="#29939A"/>
<path d="M36.3476 50.8301H36.1912C36.1912 50.8443 36.1912 50.8727 36.1912 50.887V51.1003C36.2481 51.0434 36.3049 50.9723 36.3476 50.9012V50.8301Z" fill="#288F96"/>
<path d="M36.3476 49.8652L36.3334 49.8795V49.9648C36.3334 50.2207 36.2765 50.4625 36.2054 50.69C36.2054 50.7327 36.2054 50.7753 36.1912 50.8322H36.3476V49.8652Z" fill="#278B92"/>
<path d="M36.1909 50.8301V50.8862C36.1767 50.8722 36.1909 50.8441 36.1909 50.8301Z" fill="#237F86"/>
<path d="M36.1911 50.6895C36.1911 50.7037 36.1767 50.7179 36.1767 50.7321V50.8317C36.1911 50.789 36.1911 50.7463 36.1911 50.6895Z" fill="#237C83"/>
<path d="M36.1772 50.8857C36.1628 50.9711 36.1484 51.0706 36.134 51.1559C36.1484 51.1417 36.1628 51.1133 36.1772 51.099V50.8857Z" fill="#237F86"/>
<path d="M36.1767 50.8301H36.134C36.0772 50.9581 36.006 51.086 35.9349 51.214H36.0914C36.1056 51.1998 36.1198 51.1856 36.134 51.1714C36.1625 51.086 36.1767 50.9865 36.1767 50.9012V50.8301Z" fill="#207379"/>
<path d="M36.1772 50.7273C36.1628 50.7557 36.1484 50.7842 36.134 50.8268H36.1772V50.7273Z" fill="#1F7177"/>
<path d="M24.8146 50.8301H24.8002C24.7714 50.9581 24.757 51.086 24.7427 51.214H24.757C24.7714 51.086 24.8002 50.9581 24.8146 50.8301Z" fill="#9B9B9B"/>
<path d="M24.8706 50.5918H24.8562C24.8418 50.6771 24.8274 50.7624 24.813 50.8335H24.8274C24.8418 50.7482 24.8562 50.6629 24.8706 50.5918Z" fill="#989898"/>
<path d="M24.8283 50.8301C24.7995 50.9581 24.7851 51.086 24.7563 51.214C24.7851 51.0718 24.7995 50.9581 24.8283 50.8301Z" fill="#949494"/>
<path d="M24.8713 50.8301H24.8286C24.8002 50.9581 24.786 51.086 24.7717 51.214H24.8144C24.8286 51.086 24.8428 50.9581 24.8713 50.8301Z" fill="#207379"/>
<path d="M24.8706 50.5918C24.8418 50.6771 24.8274 50.7624 24.813 50.8335C24.8418 50.7482 24.8562 50.6629 24.8706 50.5918Z" fill="#919191"/>
<path d="M24.9138 50.5918H24.8711C24.8569 50.6771 24.8427 50.7624 24.8284 50.8335H24.8711C24.8853 50.7482 24.8995 50.6629 24.9138 50.5918Z" fill="#1F7177"/>
<path d="M24.8988 50.4458H24.8844C24.87 50.4885 24.87 50.5311 24.8556 50.5738H24.87C24.8844 50.5311 24.8844 50.4885 24.8988 50.4458Z" fill="#838383"/>
<path d="M24.899 50.4458C24.8846 50.4885 24.8702 50.5311 24.8702 50.5738C24.8846 50.5311 24.899 50.4885 24.899 50.4458Z" fill="#7E7E7E"/>
<path d="M24.9422 50.4458H24.899C24.8846 50.4885 24.8846 50.5311 24.8702 50.5738H24.9134C24.9278 50.5311 24.9422 50.4885 24.9422 50.4458Z" fill="#1B6267"/>
<path d="M25.0975 49.6631H25.0833C25.0122 49.919 24.9411 50.175 24.8842 50.4452H24.8984C24.9553 50.1892 25.0264 49.919 25.0975 49.6631Z" fill="#757575"/>
<path d="M25.0975 49.6631C25.0122 49.919 24.9553 50.175 24.8842 50.4452C24.9553 50.1892 25.0264 49.919 25.0975 49.6631Z" fill="#717171"/>
<path d="M25.1541 49.6631H25.1114C25.0403 49.919 24.9692 50.175 24.9123 50.4452H24.955C24.9976 50.2461 25.0545 50.0328 25.1114 49.8337C25.1114 49.7768 25.1256 49.72 25.1541 49.6631Z" fill="#18585D"/>
<path d="M24.9128 50.8301H24.87C24.8416 50.9581 24.8273 51.086 24.7989 51.214H24.8416C24.8701 51.0718 24.8985 50.9581 24.9128 50.8301Z" fill="#1C6369"/>
<path d="M24.9271 50.5918C24.9128 50.6771 24.8844 50.7624 24.8702 50.8335H24.9128C24.9271 50.7624 24.9413 50.6913 24.9555 50.6202H24.9128C24.9128 50.606 24.9128 50.5918 24.9271 50.5918Z" fill="#1B6267"/>
<path d="M24.9556 50.4458C24.9412 50.4885 24.9412 50.5311 24.9268 50.5738C24.9268 50.5311 24.9412 50.4885 24.9556 50.4458Z" fill="#18585D"/>
<path d="M25.0978 49.8362C25.041 50.0353 24.9841 50.2486 24.9414 50.4476C24.9983 50.2486 25.041 50.0495 25.0978 49.8362Z" fill="#175256"/>
<path d="M36.3328 49.8921C36.3043 49.9205 36.2901 49.949 36.2617 49.9916C36.2474 50.0485 36.2332 50.1054 36.2048 50.1623V50.66C36.2048 50.6742 36.2048 50.6884 36.2048 50.7026C36.2901 50.4751 36.3328 50.2334 36.3328 49.9774V49.8921Z" fill="#237D83"/>
<path d="M36.1911 50.1501C36.1911 50.1644 36.1767 50.1786 36.1767 50.1928V50.7332C36.1767 50.7189 36.1911 50.7047 36.1911 50.6905C36.1911 50.6763 36.1911 50.6621 36.1911 50.6478V50.1501Z" fill="#1F7177"/>
<path d="M36.148 50.8301H35.8209C35.7072 50.9723 35.5792 51.1003 35.437 51.214H35.9489C36.0201 51.086 36.0912 50.9581 36.148 50.8301Z" fill="#1D696E"/>
<path d="M36.1777 50.1917C36.0924 50.4192 35.9644 50.6325 35.8079 50.8173H36.135C36.1492 50.7889 36.1635 50.7604 36.1777 50.7178V50.1917Z" fill="#1D676C"/>
<path d="M36.2488 49.9771C36.2344 50.0055 36.2056 50.0197 36.1912 50.0339V50.1477C36.22 50.0908 36.2344 50.0339 36.2488 49.9771Z" fill="#1E6A70"/>
<path d="M36.1911 50.051L36.1767 50.0652V50.2074C36.1767 50.1932 36.1911 50.179 36.1911 50.1648V50.051Z" fill="#1B6267"/>
<path d="M35.8065 50.8301H24.9125C24.884 50.9581 24.8698 51.086 24.8556 51.214H35.4225C35.5648 51.1003 35.6928 50.9723 35.8065 50.8301Z" fill="#1A5D62"/>
<path d="M36.1761 50.0654C35.849 50.4067 35.3939 50.62 34.8819 50.62H24.955C24.9407 50.6911 24.9265 50.7622 24.9123 50.8333H35.8063C35.9628 50.6484 36.0908 50.4352 36.1761 50.2076V50.0654Z" fill="#1A5C60"/>
<path d="M36.6743 48.4854C36.6032 48.6987 36.4894 48.8835 36.3472 49.0542V49.8647C36.5605 49.5661 36.6743 49.2106 36.6743 48.8266V48.4854Z" fill="#248389"/>
<path d="M36.348 49.0518V49.3788V49.4073C36.348 49.4641 36.348 49.5352 36.3336 49.5921V49.8765L36.348 49.8623V49.0518Z" fill="#237C83"/>
<path d="M36.3326 49.0518L36.3182 49.066V49.5921C36.3182 49.5352 36.3326 49.4641 36.3326 49.4073V49.3788V49.0518Z" fill="#1E6A70"/>
<path d="M25.1551 49.6631C25.1407 49.72 25.1263 49.7768 25.1119 49.8337C25.1119 49.7768 25.1263 49.72 25.1551 49.6631Z" fill="#175458"/>
<path d="M24.9701 50.5918H24.9268C24.9268 50.606 24.9268 50.606 24.9268 50.6202H24.9701C24.9557 50.606 24.9701 50.5918 24.9701 50.5918Z" fill="#195C60"/>
<path d="M24.9988 50.4458H24.9556C24.9412 50.4885 24.9412 50.5311 24.9268 50.5738H24.97C24.97 50.5311 24.9844 50.4885 24.9988 50.4458Z" fill="#175458"/>
<path d="M25.1976 49.6631H25.155C25.1408 49.72 25.1265 49.7768 25.1123 49.8337C25.0554 50.0328 25.0128 50.2461 24.9559 50.4452H24.9985C25.0554 50.1892 25.1265 49.919 25.1976 49.6631Z" fill="#164E52"/>
<path d="M36.3335 49.5947C36.3191 49.7227 36.2903 49.8507 36.2615 49.9787C36.2903 49.9502 36.3191 49.9218 36.3335 49.8791V49.5947Z" fill="#1F7176"/>
<path d="M36.3328 49.0698C36.2901 49.1125 36.2474 49.1551 36.2048 49.1978V50.0368C36.219 50.0226 36.2474 49.9941 36.2617 49.9799C36.2901 49.8519 36.3185 49.7239 36.3328 49.596V49.0698Z" fill="#1B6267"/>
<path d="M36.1911 49.1924L36.1767 49.2066V50.0456L36.1911 50.0314V49.1924Z" fill="#1A5C60"/>
<path d="M36.1759 49.2249C36.0764 49.3102 35.9768 49.3813 35.863 49.4524C35.4506 50.1349 34.7111 50.59 33.8577 50.59C33.8435 50.59 33.8293 50.59 33.8151 50.59H24.969C24.969 50.6042 24.969 50.6042 24.969 50.6184H34.896C35.4079 50.6184 35.863 50.4051 36.1902 50.0638V49.2249" fill="#18565B"/>
<path d="M35.863 49.4377C35.8204 49.4662 35.7635 49.4946 35.7066 49.5088C35.2799 50.0776 34.5973 50.4474 33.8293 50.4474H33.8151H24.9974C24.9832 50.49 24.9832 50.5327 24.969 50.5753H33.8151C33.8293 50.5753 33.8435 50.5753 33.8577 50.5753C34.7111 50.5896 35.4648 50.1203 35.863 49.4377Z" fill="#165054"/>
<path d="M35.7214 49.5225C35.508 49.622 35.2663 49.6789 35.0103 49.6789H25.1971C25.126 49.9348 25.0549 50.1908 24.998 50.461H33.8156H33.8299C34.5978 50.4468 35.2805 50.0913 35.7214 49.5225Z" fill="#154B4F"/>
<path d="M36.6746 25.0801C36.6746 25.0943 36.6746 25.0943 36.6746 25.0801V34.3373C36.7031 34.252 36.7457 34.1524 36.7742 34.0671V25.1938C36.7457 25.1512 36.7031 25.1227 36.6746 25.0801Z" fill="#024345"/>
<path d="M36.7742 34.0813C36.7457 34.1666 36.7031 34.2662 36.6746 34.3515V41.3762C36.7031 41.3762 36.7457 41.3762 36.7742 41.3762V34.0813Z" fill="#106064"/>
<path d="M36.6746 41.3762V48.4862C36.7315 48.3156 36.7742 48.1307 36.7742 47.9316V41.3762C36.7457 41.3762 36.7031 41.3762 36.6746 41.3762Z" fill="#227B81"/>
<path d="M25.823 47.7605C25.5243 48.372 25.2683 49.0119 25.0692 49.6802H25.0834C25.1403 49.5096 25.183 49.3389 25.2399 49.1683C25.3537 48.8554 25.4674 48.5568 25.5954 48.2582H25.5812C25.6523 48.0876 25.7376 47.9169 25.823 47.7605Z" fill="#707070"/>
<path d="M25.2393 49.1672C25.1824 49.3379 25.1256 49.5085 25.0829 49.6792C25.1256 49.4943 25.1824 49.3237 25.2393 49.1672Z" fill="#6E6E6E"/>
<path d="M25.5954 48.2439C25.4674 48.5425 25.3394 48.8411 25.2398 49.154C25.3536 48.8554 25.4674 48.5425 25.5954 48.2439Z" fill="#6E6E6E"/>
<path d="M25.6233 48.2439H25.5949C25.4669 48.5425 25.3389 48.8411 25.2393 49.154C25.1824 49.3246 25.1256 49.4953 25.0829 49.6659H25.0971C25.2393 49.1824 25.4242 48.6989 25.6233 48.2439Z" fill="#6B6B6B"/>
<path d="M25.6663 48.2439H25.6236C25.4245 48.6989 25.2396 49.1824 25.0974 49.6659H25.1401C25.2965 49.1824 25.4672 48.6989 25.6663 48.2439Z" fill="#175256"/>
<path d="M36.2479 24.7952C36.3048 24.98 36.3332 25.1791 36.3332 25.3924V28.1511C36.3332 28.1653 36.3332 28.1795 36.3332 28.1937V35.3891C36.4327 35.0478 36.5465 34.7065 36.6603 34.3652V25.108V25.0938C36.5465 24.9658 36.4043 24.8663 36.2479 24.7952Z" fill="#023D3F"/>
<path d="M36.6743 34.3535C36.5463 34.6948 36.4467 35.0361 36.3472 35.3774V41.364C36.4609 41.364 36.5747 41.364 36.6743 41.3782V34.3535Z" fill="#0F575A"/>
<path d="M36.3472 41.3618V49.0548C36.4894 48.8842 36.6032 48.6993 36.6743 48.486V41.376C36.5605 41.3618 36.4467 41.3618 36.3472 41.3618Z" fill="#1F6F75"/>
<path d="M36.3336 28.1497V35.3876V28.1781C36.348 28.1639 36.348 28.1639 36.3336 28.1497Z" fill="#023A3C"/>
<path d="M36.1912 24.7664C36.1912 24.7806 36.1912 24.7948 36.1912 24.809V25.193C36.2765 25.4205 36.3192 25.6622 36.3192 25.9182V27.9801C36.3192 28.037 36.3334 28.0938 36.3334 28.1365V25.3778C36.3334 25.1645 36.3049 24.9654 36.2481 24.7806C36.2338 24.7806 36.2196 24.7806 36.1912 24.7664Z" fill="#013537"/>
<path d="M36.3336 27.98V35.4313C36.3336 35.417 36.348 35.4028 36.348 35.3886V28.1506C36.3336 28.0937 36.3336 28.0369 36.3336 27.98Z" fill="#013335"/>
<path d="M36.3326 35.3743C36.3326 35.3885 36.3182 35.4027 36.3182 35.4169V41.3609H36.3326V35.3743Z" fill="#0C4A4C"/>
<path d="M36.3336 41.3618V49.0691L36.348 49.0548L36.3336 41.3618Z" fill="#1A5E63"/>
<path d="M36.134 24.741V25.0538C36.1484 25.0965 36.1772 25.1533 36.1916 25.196V24.8121C36.1916 24.7978 36.1916 24.7836 36.1916 24.7694C36.1772 24.7552 36.1628 24.7552 36.134 24.741Z" fill="#012C2E"/>
<path d="M25.723 48.2312H25.6803C25.467 48.6862 25.2963 49.1697 25.1541 49.6674H25.1968C25.339 49.1839 25.5239 48.7005 25.723 48.2312Z" fill="#144A4D"/>
<path d="M36.1912 25.1938V27.4406C36.2481 27.6112 36.3049 27.7961 36.3192 27.981V25.9191C36.3192 25.6631 36.2765 25.4214 36.1912 25.1938Z" fill="#013133"/>
<path d="M36.1912 27.4426V35.932C36.2338 35.7613 36.2765 35.6049 36.3192 35.4343V27.9972C36.3049 27.7981 36.2623 27.6133 36.1912 27.4426Z" fill="#013032"/>
<path d="M36.3328 35.4338C36.2901 35.6045 36.2474 35.7609 36.2048 35.9315V41.3636C36.219 41.3636 36.2332 41.3636 36.2474 41.3636C36.2759 41.3636 36.3043 41.3636 36.3328 41.3636V35.4338Z" fill="#0C4548"/>
<path d="M36.2338 41.3618C36.2196 41.3618 36.2054 41.3618 36.1912 41.3618V48.1305V49.197C36.2338 49.1544 36.2765 49.1117 36.3192 49.0691V41.3618C36.3049 41.3618 36.2623 41.3618 36.2338 41.3618Z" fill="#19595D"/>
<path d="M36.1911 48.1284C36.1911 48.1426 36.1911 48.1711 36.1911 48.1853V48.2848C36.1911 48.3559 36.1911 48.427 36.1767 48.5124V49.2091L36.1911 49.1949V48.1284Z" fill="#175357"/>
<path d="M36.1775 48.5144C36.1348 48.8557 36.0353 49.1685 35.8646 49.4387C35.9784 49.3818 36.078 49.2965 36.1775 49.2112V48.5144Z" fill="#165054"/>
<path d="M36.1911 48.1843C36.1911 48.2412 36.1767 48.3123 36.1767 48.3692V48.5114C36.1911 48.4403 36.1911 48.3692 36.1911 48.2839V48.1843Z" fill="#164E52"/>
<path d="M36.1761 48.3718C36.1192 48.7984 35.9628 49.1966 35.7068 49.5236C35.7637 49.4952 35.8063 49.481 35.8632 49.4525C36.0339 49.1824 36.1334 48.8553 36.1761 48.5282V48.3718Z" fill="#154B4F"/>
<path d="M36.134 25.0496V26.0592C36.1628 26.2014 36.1772 26.3294 36.1916 26.4716V25.1918C36.1772 25.1349 36.1628 25.0922 36.134 25.0496Z" fill="#012A2C"/>
<path d="M36.134 26.0593V26.9267C36.1628 27.0405 36.1772 27.1685 36.1772 27.2822V27.3818C36.1772 27.396 36.1916 27.4102 36.1916 27.4244V26.4717C36.1916 26.3295 36.1772 26.1873 36.134 26.0593Z" fill="#01292B"/>
<path d="M36.1767 27.394V35.9971C36.1767 35.9829 36.1911 35.9545 36.1911 35.9403V27.4367C36.1911 27.4225 36.1911 27.4083 36.1767 27.394Z" fill="#01282A"/>
<path d="M36.1911 35.9297C36.1911 35.9439 36.1767 35.9723 36.1767 35.9866V41.3617H36.1911V35.9297Z" fill="#0A3A3D"/>
<path d="M36.1911 41.3618H36.1767V48.3723C36.1767 48.3154 36.1911 48.2585 36.1911 48.1874V41.3618Z" fill="#144A4D"/>
<path d="M36.134 26.9304V27.3001C36.1484 27.3286 36.1628 27.3712 36.1772 27.3997V27.3001C36.1772 27.1722 36.1628 27.0442 36.134 26.9304Z" fill="#012829"/>
<path d="M36.134 27.2964V36.1697C36.1484 36.1128 36.1628 36.0559 36.1772 35.999V27.3959C36.1628 27.3533 36.1484 27.3248 36.134 27.2964Z" fill="#012729"/>
<path d="M36.1772 35.9858C36.1628 36.0427 36.1484 36.0996 36.134 36.1565V41.3468C36.1484 41.3468 36.1628 41.3468 36.1772 41.3468V35.9858Z" fill="#09393B"/>
<path d="M36.1765 41.3618C36.1623 41.3618 36.1481 41.3618 36.1339 41.3618V44.6609C36.1339 44.6751 36.1339 44.6893 36.1339 44.7035V45.5994C36.1339 46.5663 33.4743 47.4338 32.5073 47.4338L25.7234 48.2301C25.51 48.6993 25.3394 49.1686 25.1971 49.6663H35.0103C35.2663 49.6663 35.5081 49.6094 35.7214 49.5099C35.9632 49.1828 36.1339 48.7989 36.1907 48.3581V41.3618" fill="#14494C"/>
<path d="M35.8356 41.3167C35.7361 41.3167 35.6365 41.3167 35.5512 41.3309C35.4658 41.3309 35.3805 41.3451 35.2952 41.3451C34.0721 41.4446 32.9059 41.7148 31.825 42.1556C32.465 41.8997 33.1477 41.7006 33.8303 41.5726C34.4845 41.4304 35.153 41.3593 35.8356 41.3309V41.3167Z" fill="#EEEEEE"/>
<path d="M35.5369 41.3311C35.4516 41.3311 35.3663 41.3453 35.2809 41.3453C35.3663 41.3453 35.4516 41.3453 35.5369 41.3311Z" fill="#ECECEC"/>
<path d="M35.8345 41.3311C35.1519 41.3595 34.4834 41.4306 33.8292 41.5728C33.8577 41.5728 33.8861 41.5586 33.9003 41.5586C34.2843 41.4875 34.6683 41.4306 35.0665 41.3879C35.3225 41.3737 35.5785 41.3453 35.8345 41.3311Z" fill="#DEDEDE"/>
<path d="M35.0676 41.387C34.6694 41.4296 34.2854 41.4865 33.9014 41.5576C34.1005 41.5149 34.2854 41.4865 34.4845 41.4581C34.5698 41.4438 34.6551 41.4296 34.7405 41.4296C34.84 41.4154 34.9538 41.4012 35.0676 41.387Z" fill="#D7D7D7"/>
<path d="M34.7396 41.4338C34.6543 41.4481 34.569 41.4623 34.4836 41.4623C34.5263 41.4623 34.569 41.4481 34.6116 41.4481C34.6543 41.4481 34.697 41.4481 34.7396 41.4338Z" fill="#C9C9C9"/>
<path d="M35.8359 41.3511C35.5799 41.3653 35.3239 41.3795 35.0679 41.408C34.9541 41.4222 34.8546 41.4364 34.7408 41.4506C35.0963 41.3937 35.4661 41.3653 35.8359 41.3511Z" fill="#BDBDBD"/>
<path d="M35.8363 41.3511C35.4665 41.3653 35.0967 41.3937 34.7412 41.4364C34.6985 41.4364 34.6558 41.4506 34.6274 41.4506C35.0256 41.408 35.4238 41.3795 35.8363 41.3511Z" fill="#B2B2B2"/>
<path d="M17.6737 21.7798C17.5314 22.7041 17.4603 23.6142 17.4603 24.51C17.4603 24.2256 17.4745 23.9412 17.4888 23.6568V23.6284C17.4888 23.5999 17.4888 23.5715 17.4888 23.5431C17.5314 22.9458 17.5883 22.3486 17.6737 21.7798Z" fill="#EEEEEE"/>
<path d="M17.8581 20.8979H17.8439C17.787 21.1966 17.7301 21.481 17.6874 21.7796C17.6021 22.3626 17.531 22.9456 17.5026 23.5429C17.5168 23.23 17.5452 22.9172 17.5879 22.6043C17.6306 22.1777 17.7017 21.7512 17.7728 21.3246C17.8012 21.1824 17.8297 21.0401 17.8581 20.8979Z" fill="#036569"/>
<path d="M34.2424 20.8979H34.2282H17.8586C17.8302 21.0401 17.8018 21.1824 17.7733 21.3388H18.8542C18.9822 21.2535 19.1528 21.2108 19.3093 21.2108H19.3235H35.2237C34.9535 21.0117 34.6122 20.8979 34.2424 20.8979Z" fill="#036468"/>
<path d="M19.3241 21.1953C19.1535 21.1953 18.997 21.238 18.869 21.3233H34.3568C34.7977 21.3233 35.1959 21.4797 35.5088 21.7499H35.779C35.651 21.5366 35.4661 21.3375 35.2528 21.1953H19.3383C19.3241 21.1953 19.3241 21.1953 19.3241 21.1953Z" fill="#036164"/>
<path d="M35.7644 21.7507H35.4941C35.7217 21.9356 35.8924 22.1773 36.0061 22.4475C35.9777 22.1916 35.8924 21.964 35.7644 21.7507Z" fill="#035B5E"/>
<path d="M35.8925 41.3042C35.8783 41.3042 35.8499 41.3042 35.8356 41.3042V41.3182C35.8499 41.3182 35.8783 41.3182 35.8925 41.3182V41.3042Z" fill="#E6E6E6"/>
<path d="M35.8925 41.2915C35.8783 41.2915 35.8499 41.2915 35.8356 41.3055C35.8499 41.3055 35.8783 41.3055 35.8925 41.2915Z" fill="#036165"/>
<path d="M35.8925 41.2915H35.8499H35.8356C35.8499 41.3055 35.8783 41.2915 35.8925 41.2915Z" fill="#036164"/>
<path d="M35.9071 41.3042H35.8928V41.3183H35.9071V41.3042Z" fill="#C9C9C9"/>
<path d="M35.9071 41.2915C35.8928 41.2915 35.8928 41.2915 35.8928 41.2915V41.3056C35.8928 41.3056 35.9071 41.3056 35.9071 41.2915Z" fill="#025558"/>
<path d="M17.5756 22.604C17.5471 22.9168 17.5187 23.2297 17.4902 23.5425C17.4902 23.571 17.4902 23.5994 17.4902 23.6278C17.5187 23.2866 17.5471 22.9453 17.5756 22.604Z" fill="#025154"/>
<path d="M17.4888 23.6589C17.4745 23.9433 17.4603 24.2277 17.4603 24.5121C17.4603 25.2658 17.5172 26.0052 17.6168 26.7305C17.503 25.8488 17.4461 24.9672 17.4745 24.0571C17.4745 23.9291 17.4745 23.8011 17.4888 23.6732V23.6589Z" fill="#BFBFBF"/>
<path d="M17.4893 23.6697C17.4893 23.7977 17.4749 23.9256 17.4749 24.0536C17.4749 23.9399 17.4749 23.8261 17.4893 23.7123V23.6697Z" fill="#025154"/>
<path d="M17.5028 23.6121C17.5028 23.6263 17.5028 23.6547 17.5028 23.6689V23.7116C17.4884 23.6832 17.5028 23.6547 17.5028 23.6121Z" fill="#02484B"/>
<path d="M29.1365 40.5105C29.2503 40.5532 29.3641 40.5816 29.4921 40.6243C29.421 40.61 29.3641 40.5816 29.293 40.5674C29.2361 40.5532 29.1792 40.5389 29.1365 40.5105Z" fill="#BEBEBE"/>
<path d="M29.2925 40.5627C29.3636 40.577 29.4205 40.6054 29.4916 40.6196C29.9467 40.7618 30.416 40.8756 30.8996 40.9893C31.9662 41.2169 33.0613 41.3448 34.1564 41.3448C33.744 41.3448 33.3315 41.3164 32.9191 41.288C32.7911 41.2737 32.6631 41.2595 32.5351 41.2453C32.0516 41.1884 31.568 41.1173 31.0845 41.0178C30.4729 40.904 29.8756 40.7476 29.2925 40.5627Z" fill="#025053"/>
<path d="M31.0858 41.019C31.5551 41.1186 32.0386 41.1897 32.5364 41.2466C32.6644 41.2608 32.7924 41.275 32.9204 41.2892C32.38 41.2466 31.8395 41.1612 31.2991 41.0617H31.2849C31.2138 41.0475 31.1426 41.0333 31.0858 41.019Z" fill="#023A3C"/>
<path d="M35.8925 41.2734C35.8783 41.2734 35.8499 41.2734 35.8356 41.2875H35.8499C35.8641 41.2875 35.8783 41.2875 35.8925 41.2734Z" fill="#024144"/>
<path d="M35.8925 41.2734C35.8783 41.2734 35.8499 41.2734 35.8356 41.2875C35.8499 41.2875 35.8783 41.2875 35.8925 41.2734Z" fill="#023E40"/>
<path d="M35.9071 41.2734H35.8928C35.8928 41.2876 35.9071 41.2876 35.9071 41.2734Z" fill="#023B3D"/>
<path d="M35.8925 41.2734C35.8783 41.2734 35.8499 41.2734 35.8356 41.2875C35.8499 41.2875 35.8783 41.2875 35.8925 41.2734Z" fill="#012E30"/>
<path d="M35.8921 41.2734C35.8779 41.2734 35.8638 41.2734 35.8495 41.2734C35.8353 41.2734 35.8353 41.2734 35.8211 41.2734C35.8495 41.2875 35.8779 41.2734 35.8921 41.2734Z" fill="#012C2E"/>
<path d="M31.8248 42.1572C29.1937 43.1811 26.9893 45.1576 25.6951 47.7599L25.7805 47.7457C26.3778 46.5512 27.16 45.4847 28.0986 44.5888C29.1511 43.565 30.4168 42.726 31.8248 42.1572Z" fill="#EEEEEE"/>
<path d="M28.0836 44.6062C27.145 45.5163 26.3485 46.5828 25.7654 47.763H25.7797C26.377 46.5828 27.1592 45.5163 28.0836 44.6062Z" fill="#E6E6E6"/>
<path d="M35.8925 41.3167C35.8783 41.3167 35.8499 41.3167 35.8356 41.3167V41.3307C35.8499 41.3307 35.8783 41.3307 35.8925 41.3307V41.3167Z" fill="#D7D7D7"/>
<path d="M35.9071 41.3167H35.8928V41.3308H35.9071V41.3167Z" fill="#BDBDBD"/>
<path d="M33.8294 41.5764C33.1468 41.7186 32.4641 41.9035 31.8241 42.1594C30.4304 42.7282 29.1646 43.553 28.098 44.5911C29.6339 43.1122 31.5823 42.0457 33.7299 41.5906C33.7583 41.5906 33.7868 41.5906 33.8294 41.5764Z" fill="#DEDEDE"/>
<path d="M33.7167 41.6035C31.5692 42.0586 29.6208 43.1108 28.0848 44.6039C27.1461 45.514 26.3639 46.5805 25.7808 47.7608C26.5204 46.2819 27.5728 44.9879 28.8528 43.9498C29.8768 43.1251 31.043 42.4567 32.2945 42.0159C32.7638 41.8453 33.2332 41.7031 33.7167 41.6035Z" fill="#D7D7D7"/>
<path d="M32.3079 42.0002C31.0422 42.4411 29.876 43.1094 28.8662 43.9342C29.5773 43.3654 30.3453 42.8677 31.1844 42.4695C31.5399 42.2989 31.9239 42.1424 32.3079 42.0002Z" fill="#C9C9C9"/>
<path d="M28.8528 43.9355C27.5728 44.9736 26.5204 46.2676 25.7808 47.7465H25.795C26.5346 46.2676 27.587 44.9736 28.8528 43.9355Z" fill="#BDBDBD"/>
<path d="M31.171 42.4854C30.3319 42.8835 29.5639 43.367 28.8528 43.95C27.587 44.9881 26.5346 46.2821 25.7808 47.7752H25.795C25.923 47.5192 26.0653 47.2633 26.2075 47.0215C26.7053 46.1826 27.3168 45.4147 27.9995 44.7321C28.9381 43.8078 30.0048 43.0399 31.171 42.4854Z" fill="#B2B2B2"/>
<path d="M28.0273 44.7163C27.3447 45.3989 26.7331 46.1667 26.2354 47.0057C26.7189 46.1952 27.302 45.4415 27.9704 44.7732C27.9847 44.759 27.9989 44.7305 28.0273 44.7163Z" fill="#969696"/>
<path d="M27.9565 44.772C27.288 45.4403 26.7049 46.194 26.2214 47.0045C26.0792 47.2463 25.937 47.5022 25.809 47.7582C26.3494 46.6917 27.0463 45.7247 27.8569 44.8715C27.8996 44.8431 27.928 44.8004 27.9565 44.772Z" fill="#888888"/>
<path d="M27.8714 44.8733C27.0465 45.7123 26.3639 46.6792 25.8234 47.76C26.1648 47.0774 26.563 46.4375 27.0323 45.8545C27.2598 45.5559 27.5016 45.2715 27.7576 45.0013C27.7861 44.9586 27.8287 44.916 27.8714 44.8733Z" fill="#797979"/>
<path d="M33.9005 41.5566C33.8721 41.5566 33.8436 41.5709 33.8294 41.5709C33.801 41.5709 33.7583 41.5851 33.7299 41.5993C33.7867 41.5851 33.8436 41.5709 33.9005 41.5566Z" fill="#D0D0D0"/>
<path d="M34.4842 41.4736C34.2851 41.5021 34.1002 41.5305 33.9011 41.5732C33.8442 41.5874 33.7873 41.6016 33.7162 41.6158C33.2327 41.7154 32.7633 41.8576 32.294 42.0282C33.0051 41.758 33.7304 41.5732 34.4842 41.4736Z" fill="#C9C9C9"/>
<path d="M34.6122 41.4448C34.5695 41.4448 34.5269 41.459 34.4842 41.459C33.7304 41.5728 33.0051 41.7434 32.3082 41.9994C31.9242 42.1416 31.5402 42.298 31.1847 42.4687C31.9953 42.0847 32.8629 41.7861 33.7589 41.6012C34.0433 41.5444 34.3278 41.4875 34.6122 41.4448Z" fill="#BDBDBD"/>
<path d="M33.7587 41.6035C32.8627 41.7884 31.9952 42.087 31.1845 42.4709C30.0183 43.0397 28.9517 43.7934 28.0272 44.7035C28.1552 44.5755 28.2974 44.4475 28.4254 44.3195C29.7623 43.1251 31.3694 42.2292 33.1471 41.7457C33.3462 41.7031 33.5454 41.6604 33.7587 41.6035Z" fill="#A8A8A8"/>
<path d="M33.1475 41.7568C31.3697 42.2403 29.7484 43.1362 28.4258 44.3307C29.72 43.1646 31.2844 42.2972 32.991 41.7995C33.0479 41.7853 33.0906 41.7711 33.1475 41.7568Z" fill="#989898"/>
<path d="M28.4256 44.332C28.2834 44.46 28.1554 44.588 28.0274 44.716C28.0132 44.7302 27.9847 44.7586 27.9705 44.7729C28.1127 44.6164 28.2692 44.4742 28.4256 44.332Z" fill="#8F8F8F"/>
<path d="M32.9915 41.8037C31.2849 42.2872 29.7204 43.1688 28.4262 44.3349C28.2698 44.4771 28.1134 44.6193 27.9711 44.7757C27.9427 44.8041 27.9 44.8468 27.8716 44.8752C29.2653 43.439 31.0289 42.3725 32.9915 41.8037Z" fill="#838383"/>
<path d="M32.9769 41.8162C31.0143 42.385 29.2508 43.4515 27.857 44.8877C27.8143 44.9303 27.7717 44.973 27.7432 45.0157C29.137 43.5368 30.9005 42.4418 32.8631 41.8588C32.9058 41.8304 32.9485 41.8162 32.9769 41.8162Z" fill="#757575"/>
<path d="M35.8925 41.3311C35.8783 41.3311 35.8499 41.3311 35.8356 41.3311V41.3451C35.8499 41.3451 35.8783 41.3451 35.8925 41.3311Z" fill="#B2B2B2"/>
<path d="M35.8922 41.3511C35.878 41.3511 35.8495 41.3511 35.8353 41.3511V41.3653C35.4229 41.3795 35.0247 41.408 34.6265 41.4506C34.342 41.4933 34.0434 41.5502 33.7589 41.607C34.4558 41.4648 35.1669 41.3795 35.8922 41.3653V41.3511Z" fill="#A8A8A8"/>
<path d="M35.9071 41.3311H35.8928V41.3452C35.8928 41.3452 35.9071 41.3452 35.9071 41.3311Z" fill="#9F9F9F"/>
<path d="M35.9065 41.3511H35.8922V41.3653C35.1669 41.3795 34.4416 41.4648 33.7589 41.607C33.5598 41.6497 33.3607 41.7066 33.1616 41.7635C33.9012 41.5644 34.6549 41.4364 35.4514 41.3937C35.6078 41.3795 35.7642 41.3795 35.9207 41.3795V41.3511" fill="#989898"/>
<path d="M35.4374 41.387C34.6552 41.4438 33.8872 41.5718 33.1477 41.7567C33.0908 41.7709 33.0339 41.7851 32.977 41.7993C33.0908 41.7709 33.2045 41.7425 33.3183 41.714C33.9156 41.5576 34.5414 41.4581 35.1814 41.4012C35.2667 41.387 35.3521 41.387 35.4374 41.387Z" fill="#8A8A8A"/>
<path d="M35.1807 41.4033C34.5407 41.4602 33.9292 41.5597 33.3176 41.7162C33.9007 41.574 34.4838 41.4602 35.0954 41.4175C35.138 41.4033 35.1523 41.4033 35.1807 41.4033Z" fill="#7A7A7A"/>
<path d="M35.1102 41.4033C34.4987 41.4602 33.9156 41.5597 33.3325 41.7019C33.2187 41.7304 33.1049 41.7588 32.9912 41.8015C32.9485 41.8157 32.9058 41.8299 32.8632 41.8441C33.5885 41.6308 34.3422 41.4886 35.1102 41.4033Z" fill="#6F6F6F"/>
<path d="M27.0178 45.8542C26.5627 46.4515 26.1503 47.0772 25.809 47.7597C26.1645 47.0772 26.5627 46.4373 27.0178 45.8542Z" fill="#6D6D6D"/>
<path d="M36.0061 22.4487C36.0061 22.463 36.0061 22.4773 36.0061 22.4915H36.0205C36.0205 22.4773 36.0061 22.463 36.0061 22.4487Z" fill="#03575A"/>
<path d="M36.0206 22.4902C36.0206 22.5471 36.0206 22.6182 36.0206 22.6751V23.2866H36.1202L36.0775 23.315C36.0917 23.315 36.1202 23.315 36.1344 23.315V23.1301C36.1344 22.9026 36.0917 22.6893 36.0206 22.4902Z" fill="#035255"/>
<path d="M36.1202 23.2874H36.0206V23.3442C36.0633 23.3727 36.106 23.3869 36.1344 23.4153V23.3158C36.1202 23.3158 36.0917 23.3158 36.0775 23.3158L36.1202 23.2874Z" fill="#034E50"/>
<path d="M36.0206 23.3452V23.7007C36.0633 23.7292 36.106 23.7718 36.1344 23.8003V23.4163C36.106 23.3879 36.0633 23.3594 36.0206 23.3452Z" fill="#024143"/>
<path d="M17.6317 26.7285C18.4708 32.8573 22.6379 38.1472 28.5684 40.3228C26.4778 39.555 24.6289 38.4031 23.0503 36.9811C20.1206 34.322 18.1864 30.6959 17.6317 26.7285Z" fill="#B9B9B9"/>
<path d="M23.0501 36.9685C24.6288 38.4047 26.4776 39.5423 28.5682 40.3102C28.7531 40.3813 28.938 40.4382 29.1371 40.5093C26.8189 39.7556 24.771 38.5327 23.0501 36.9685Z" fill="#B9B9B9"/>
<path d="M35.7923 41.2915H35.778C35.3514 41.3484 34.9105 41.3484 34.4696 41.3484C34.4838 41.3484 34.498 41.3484 34.5123 41.3484C34.9532 41.3484 35.3798 41.3484 35.7923 41.2915Z" fill="#012E30"/>
<path d="M35.7786 41.2915H35.7218C35.3093 41.3484 34.8827 41.3484 34.456 41.3484H34.4702C34.9111 41.3484 35.352 41.3484 35.7786 41.2915Z" fill="#012C2E"/>
<path d="M35.8349 41.2915C35.8207 41.2915 35.7922 41.2915 35.778 41.3055H35.7922C35.8064 41.2915 35.8207 41.2915 35.8349 41.2915Z" fill="#012B2C"/>
<path d="M35.8343 41.2734C35.7916 41.2734 35.7632 41.2877 35.7205 41.2877H35.7773C35.7915 41.2877 35.8201 41.2877 35.8343 41.2734Z" fill="#012A2B"/>
<path d="M36.0206 23.6841V23.9543C36.0633 24.068 36.106 24.196 36.1344 24.324V23.7978C36.106 23.7552 36.0633 23.7267 36.0206 23.6841Z" fill="#023B3D"/>
<path d="M36.0206 23.9602C36.0633 24.0882 36.106 24.2019 36.1344 24.3299C36.106 24.2019 36.0633 24.074 36.0206 23.9602Z" fill="#013436"/>
<path d="M36.0206 23.9602V24.2446C36.0633 24.3157 36.106 24.401 36.1344 24.4721V24.3299C36.106 24.2019 36.0775 24.0882 36.0206 23.9602Z" fill="#012F31"/>
<path d="M36.0206 24.2542V24.695C36.0633 24.7092 36.106 24.7234 36.1344 24.7376V24.4817C36.106 24.3964 36.0633 24.3253 36.0206 24.2542Z" fill="#012C2D"/>
<path d="M25.8235 47.7605C25.7239 47.9169 25.6528 48.0876 25.5817 48.2582H25.5959C25.6671 48.0876 25.7524 47.9169 25.8235 47.7605Z" fill="#6C6C6C"/>
<path d="M25.8518 47.7461H25.8233C25.738 47.9025 25.6669 48.0732 25.5958 48.2438H25.6242C25.6953 48.0732 25.7806 47.9167 25.8518 47.7461Z" fill="#676767"/>
<path d="M25.8657 47.7461C25.7804 47.9025 25.6951 48.0732 25.624 48.2438H25.6382C25.7093 48.0732 25.7804 47.9167 25.8657 47.7461Z" fill="#656565"/>
<path d="M25.9086 47.7461H25.866C25.7806 47.9025 25.7095 48.0732 25.6384 48.2438H25.6811C25.7522 48.0732 25.8233 47.9025 25.9086 47.7461Z" fill="#164E52"/>
<path d="M36.0206 24.6941V24.8079C36.0633 24.879 36.106 24.9643 36.1344 25.0496V24.751C36.106 24.7225 36.0633 24.7083 36.0206 24.6941Z" fill="#012B2C"/>
<path d="M25.9079 47.7461C25.8225 47.9025 25.7372 48.0732 25.6661 48.2438H25.6803C25.7514 48.0732 25.8367 47.9025 25.9079 47.7461Z" fill="#154C4F"/>
<path d="M25.9642 47.7461H25.9215C25.8362 47.9025 25.7651 48.0732 25.6797 48.2438H25.7224C25.7935 48.0589 25.8789 47.9025 25.9642 47.7461Z" fill="#14484C"/>
<path d="M36.0206 24.8096V25.677C36.0633 25.7908 36.106 25.9187 36.1344 26.0467V25.0513C36.106 24.966 36.0633 24.8807 36.0206 24.8096Z" fill="#01292B"/>
<path d="M36.0206 25.6753V26.5143C36.0775 26.6423 36.106 26.7845 36.1344 26.9124V26.045C36.106 25.917 36.0633 25.8033 36.0206 25.6753Z" fill="#01282A"/>
<path d="M36.1338 44.7036C36.1195 44.8174 36.0911 44.9169 36.02 45.0307V45.1587C36.02 46.1256 33.3605 46.993 32.3934 46.993L25.9508 47.7467C25.8655 47.9031 25.7944 48.0738 25.7233 48.2444L32.5072 47.4339C33.4743 47.4339 36.1338 46.5807 36.1338 45.5995V44.7036Z" fill="#14474B"/>
<path d="M36.0206 26.5156V27.0702C36.0633 27.1413 36.106 27.2266 36.1344 27.2977V26.928C36.106 26.7858 36.0775 26.6436 36.0206 26.5156Z" fill="#012729"/>
<path d="M36.0206 27.071V36.7691C36.0491 36.57 36.0917 36.3851 36.1344 36.1861V27.2986C36.106 27.2132 36.0633 27.1421 36.0206 27.071Z" fill="#012728"/>
<path d="M36.1344 36.1714C36.0917 36.3705 36.0491 36.5553 36.0206 36.7544V41.3617C36.0633 41.3617 36.0917 41.3617 36.1344 41.3617V36.1714Z" fill="#09373A"/>
<path d="M36.1344 41.3618C36.0917 41.3618 36.0633 41.3618 36.0206 41.3618V45.0164C36.0917 44.9168 36.1344 44.8031 36.1344 44.6893V41.3618Z" fill="#14474B"/>
<path d="M17.7741 21.3252C17.6887 21.7518 17.6318 22.1784 17.5892 22.605C17.6034 22.4486 17.6318 22.3064 17.6461 22.15C17.6745 21.8798 17.7172 21.6096 17.7741 21.3252Z" fill="#035B5F"/>
<path d="M18.8552 21.3252H17.7743C17.7174 21.5954 17.6747 21.8656 17.6463 22.15C17.6605 22.022 17.689 21.894 17.7032 21.766H18.4712C18.4854 21.766 18.4854 21.766 18.4996 21.766C18.5707 21.5812 18.6987 21.4247 18.8552 21.3252Z" fill="#035B5E"/>
<path d="M34.3427 21.3252H18.8549C18.6985 21.4247 18.5705 21.5812 18.4994 21.7518C18.5421 21.7518 18.5847 21.7376 18.6274 21.7376H35.4947C35.1818 21.4816 34.7836 21.3252 34.3427 21.3252Z" fill="#03585B"/>
<path d="M35.4947 21.7507H18.6274C18.5847 21.7507 18.5421 21.7507 18.4994 21.765H31.6121C32.4796 21.765 33.3329 21.9783 34.1009 22.3906C34.1294 22.4191 34.172 22.4617 34.2431 22.4902H36.0209C36.0209 22.476 36.0209 22.4617 36.0209 22.4475C35.8929 22.1773 35.7222 21.9356 35.4947 21.7507Z" fill="#035255"/>
<path d="M36.0064 22.4902H34.2287C34.2714 22.5187 34.314 22.5329 34.3709 22.5613C34.6554 22.6324 34.9256 22.7462 35.1673 22.9026C35.4233 23.0164 35.6936 23.1444 35.9353 23.2723H36.0207V22.6609C36.0207 22.6182 36.0207 22.5471 36.0064 22.4902Z" fill="#034E50"/>
<path d="M34.3856 22.5642C34.5847 22.6637 34.8692 22.7775 35.1821 22.9055C34.9403 22.7491 34.6701 22.6353 34.3856 22.5642Z" fill="#02383A"/>
<path d="M36.0203 23.2874H35.9349C35.9634 23.3016 35.9918 23.3158 36.0203 23.3442V23.2874Z" fill="#03494C"/>
<path d="M17.6325 22.1494C17.604 22.3058 17.5898 22.448 17.5756 22.6045C17.5329 22.9457 17.5045 23.287 17.4902 23.6283C17.5329 23.1306 17.5756 22.6471 17.6325 22.1494Z" fill="#024A4D"/>
<path d="M17.49 24.054C17.4615 24.9498 17.5184 25.8457 17.6322 26.7273C18.1869 30.6947 20.121 34.3208 23.0508 36.9657C21.5148 35.5579 20.2348 33.8942 19.3104 32.0456C18.1442 29.742 17.49 27.1397 17.49 24.381C17.4758 24.2815 17.4758 24.1677 17.49 24.054Z" fill="#AFAFAF"/>
<path d="M17.4891 23.7275C17.4891 23.8413 17.4749 23.9551 17.4749 24.0688C17.4749 24.1826 17.4749 24.2821 17.4749 24.3959C17.4749 27.1546 18.1291 29.7568 19.2953 32.0605C18.0295 29.5577 17.3895 26.7422 17.4891 23.8413V23.7275Z" fill="#024A4D"/>
<path d="M18.4697 21.7617H17.7017C17.6874 21.8897 17.659 22.0177 17.6448 22.1457C17.5737 22.6434 17.531 23.1268 17.5026 23.6103C17.5168 23.2406 17.5452 22.8709 17.5879 22.5012H17.7301C17.8012 22.1172 18.0999 21.8186 18.4697 21.7617Z" fill="#024A4C"/>
<path d="M18.4986 21.7617H18.4702C18.1004 21.8328 17.8018 22.1314 17.7307 22.5012H18.4275V22.0603C18.4418 21.9608 18.456 21.847 18.4986 21.7617Z" fill="#024649"/>
<path d="M31.5968 21.7617H18.4841C18.4415 21.8613 18.4272 21.9608 18.4272 22.0603V22.5012C18.4841 22.4869 18.5268 22.4869 18.5837 22.4869H34.2279C34.1568 22.4443 34.1141 22.4158 34.0857 22.3874C33.3319 21.975 32.4644 21.7617 31.5968 21.7617Z" fill="#024446"/>
<path d="M19.2958 32.0469C20.2344 33.8955 21.5002 35.5592 23.0362 36.967C24.757 38.5312 26.805 39.7541 29.1232 40.5078C29.1801 40.522 29.2227 40.5362 29.2796 40.5504C28.4547 40.2803 27.6441 39.9532 26.8761 39.5693C24.6717 38.4743 22.7517 36.9101 21.23 35.0331C20.4904 34.123 19.8504 33.1134 19.2958 32.0469Z" fill="#AEAEAE"/>
<path d="M32.9057 41.2905C33.3182 41.3332 33.7306 41.3474 34.143 41.3474C34.1146 41.3474 34.0719 41.3474 34.0435 41.3474C33.6595 41.3332 33.2897 41.319 32.9057 41.2905ZM26.8756 39.5841C27.6436 39.9681 28.4542 40.2951 29.2791 40.5653C29.8622 40.7502 30.4595 40.9066 31.0711 41.0203C29.592 40.7217 28.184 40.2382 26.8756 39.5841ZM17.4891 23.8284C17.3895 26.7292 18.0295 29.5448 19.2953 32.0475C19.8357 33.114 20.4899 34.1237 21.2295 35.048C19.2384 32.5737 17.93 29.5448 17.5744 26.26C17.5317 25.8476 17.5033 25.4494 17.4891 25.0228C17.4891 24.8238 17.4749 24.6247 17.4749 24.4398C17.4749 24.255 17.4749 24.0843 17.4891 23.8995V23.8284Z" fill="#024A4C"/>
<path d="M35.1665 22.9026C35.323 23.0164 35.4652 23.1301 35.5932 23.2723H35.9203C35.6928 23.1444 35.4225 23.0164 35.1665 22.9026ZM34.2279 22.4902H18.5837C18.5268 22.4902 18.4699 22.4902 18.4272 22.5045H33.8581C34.0288 22.5045 34.2137 22.5329 34.3701 22.5613C34.3274 22.5329 34.2706 22.5187 34.2279 22.4902Z" fill="#024143"/>
<path d="M17.4902 25.0222C17.5045 25.4346 17.5329 25.847 17.5756 26.2594C17.5471 25.847 17.5045 25.4346 17.4902 25.0222Z" fill="#024245"/>
<path d="M35.1665 22.9011C35.3229 23.0148 35.4651 23.1286 35.5931 23.2708C35.4651 23.1428 35.3229 23.0148 35.1665 22.9011ZM33.858 22.5029C34.0287 22.5029 34.2136 22.5314 34.37 22.5598C34.2136 22.5171 34.0429 22.5029 33.858 22.5029Z" fill="#02383A"/>
<path d="M17.7301 22.5029H17.5879C17.5452 22.8726 17.5168 23.2424 17.5026 23.6121H17.5879V23.0717H17.7159V22.6309C17.7301 22.6025 17.7301 22.5456 17.7301 22.5029Z" fill="#023638"/>
<path d="M18.4277 22.5029H17.7308C17.7166 22.5456 17.7166 22.6025 17.7166 22.6451V23.0859H17.7451C17.8588 22.7873 18.1148 22.5598 18.4277 22.5029Z" fill="#013536"/>
<path d="M18.4423 22.5029C18.1294 22.5598 17.8734 22.7873 17.7596 23.0859H18.4423V22.5029Z" fill="#013335"/>
<path d="M33.8581 22.5029H18.4414V23.0859H33.8723H33.9434H33.9576C33.9718 23.0859 33.9861 23.0859 34.0003 23.0859C34.3416 23.0859 34.6687 23.157 34.9531 23.285H35.6074C35.4794 23.1428 35.3371 23.0148 35.1807 22.9153C34.882 22.7873 34.5976 22.6736 34.3843 22.574C34.2136 22.5171 34.0429 22.5029 33.8581 22.5029Z" fill="#013234"/>
<path d="M17.4893 23.8987C17.4893 24.0835 17.4749 24.2542 17.4749 24.439C17.4749 24.6381 17.4749 24.8372 17.4893 25.0221H17.5037C17.5037 24.8799 17.4893 24.7377 17.4893 24.5955C17.4893 24.5244 17.4893 24.4533 17.4893 24.3822V24.2257V23.8987Z" fill="#023638"/>
<path d="M21.2437 35.0479C22.7654 36.9249 24.6854 38.4891 26.8898 39.584C24.6854 38.4891 22.7654 36.9391 21.2437 35.0479Z" fill="#808080"/>
<path d="M17.5892 26.2578C17.9447 29.5284 19.2531 32.5715 21.2442 35.0458C22.766 36.937 24.7002 38.487 26.8904 39.582C28.1988 40.2361 29.6068 40.7196 31.0859 41.0182C31.1427 41.0324 31.2138 41.0466 31.2707 41.0608H31.285C31.8254 41.1604 32.3658 41.2315 32.9063 41.2884C33.2903 41.3168 33.66 41.3452 34.044 41.3452C33.6174 41.331 33.2049 41.3026 32.7925 41.2741C24.8424 40.5063 18.4567 34.2352 17.5892 26.2578Z" fill="#023638"/>
<path d="M32.7919 41.2734C33.2044 41.3161 33.631 41.3445 34.0435 41.3445C34.1288 41.3445 34.2141 41.3445 34.2995 41.3445C34.3137 41.3445 34.3137 41.3445 34.3279 41.3445C34.3421 41.3445 34.3564 41.3445 34.3706 41.3445C34.3848 41.3445 34.399 41.3445 34.4275 41.3445C33.887 41.3445 33.3324 41.3161 32.7919 41.2734Z" fill="#013536"/>
<path d="M17.5026 25.0222C17.5026 25.4346 17.531 25.847 17.5879 26.2594C18.4697 34.2368 24.8411 40.5078 32.7912 41.2757C32.0374 41.2046 31.2979 41.0766 30.5726 40.906C28.4819 40.4225 26.5335 39.5408 24.8269 38.3606C22.8074 36.967 21.0865 35.1326 19.835 32.9854C18.4981 30.7102 17.6732 28.108 17.531 25.3208C17.5168 25.2213 17.5026 25.1218 17.5026 25.0222Z" fill="#013234"/>
<path d="M30.5733 40.905C31.2986 41.0756 32.0382 41.2036 32.7919 41.2747C33.3324 41.3316 33.8728 41.36 34.4275 41.36C34.4275 41.36 34.4275 41.36 34.4417 41.36C33.1048 41.3458 31.8106 41.1894 30.5733 40.905ZM19.8215 32.9702C21.0872 35.1174 22.7939 36.9518 24.8134 38.3454C22.7939 36.9518 21.0872 35.1032 19.8215 32.9702Z" fill="#013133"/>
<path d="M17.7307 23.0854H17.6027V23.6258V23.2987H17.7165C17.7165 23.2703 17.7165 23.2419 17.7307 23.2276V23.0854Z" fill="#013133"/>
<path d="M17.7595 23.0854H17.7307V23.2134C17.7307 23.1708 17.7451 23.1281 17.7595 23.0854Z" fill="#012F31"/>
<path d="M17.7308 23.2153C17.7308 23.2434 17.7166 23.2715 17.7166 23.2855H17.7308V23.2153Z" fill="#012F31"/>
<path d="M18.4418 23.0854H17.7591C17.7449 23.1281 17.7307 23.1708 17.7307 23.2134V23.2845H18.2853H18.2995H18.3138H18.4418V23.0854Z" fill="#012E30"/>
<path d="M33.9861 23.0854C33.9718 23.0854 33.9576 23.0854 33.9434 23.0854H33.9292H33.8581H18.4414V23.2845H34.7398H34.8963H34.9247H34.9531C34.6545 23.1565 34.3274 23.0854 33.9861 23.0854Z" fill="#012D2F"/>
<path d="M17.5046 23.6121C17.5046 23.6405 17.4902 23.6832 17.4902 23.7116V23.8111C17.4902 23.7543 17.5046 23.6832 17.5046 23.6121Z" fill="#024245"/>
<path d="M17.5046 23.6121C17.5046 23.6832 17.4902 23.7543 17.4902 23.8254V23.8965C17.5046 23.7969 17.5046 23.7116 17.5046 23.6121Z" fill="#024245"/>
<path d="M17.5898 23.6121H17.5045C17.5045 23.7116 17.4902 23.7969 17.4902 23.8965V24.2235H17.5045V23.7685C17.5329 23.7116 17.5613 23.6689 17.5898 23.6263V23.6121Z" fill="#013234"/>
<path d="M17.5046 24.2234H17.4902V24.3798C17.4902 24.4509 17.4902 24.522 17.4902 24.5931H17.5046C17.5046 24.5078 17.5046 24.4225 17.5046 24.3514V24.2234Z" fill="#012F31"/>
<path d="M24.8281 38.3473C26.5489 39.5276 28.4831 40.4092 30.5737 40.8927C28.4831 40.4092 26.5489 39.5418 24.8281 38.3473ZM17.5179 25.3218C17.6744 28.1089 18.485 30.7112 19.8219 32.9864C18.7979 31.2373 18.0726 29.2892 17.7171 27.1988C17.6175 26.5731 17.5606 25.9475 17.5179 25.3218Z" fill="#012D2F"/>
<path d="M17.7307 27.1829C18.0862 29.2874 18.8115 31.2356 19.8355 32.9846C21.087 35.1176 22.8079 36.952 24.8274 38.3598C26.5483 39.5543 28.4967 40.4217 30.5731 40.9052C31.8104 41.1896 33.1189 41.346 34.4415 41.346H34.4557C31.654 41.346 28.9945 40.6634 26.6621 39.4405C26.1216 39.1561 25.5812 38.8433 25.0692 38.502C22.0541 36.497 19.6791 33.5392 18.4275 29.9558C18.1289 29.0599 17.8871 28.1356 17.7307 27.1829Z" fill="#012C2E"/>
<path d="M18.4414 29.9548C19.6929 33.5383 22.068 36.5103 25.0831 38.5153C22.9071 37.0648 21.0725 35.1309 19.7641 32.8415C19.2236 31.9172 18.7827 30.9502 18.4414 29.9548Z" fill="#012C2D"/>
<path d="M26.663 39.4429C28.9954 40.6658 31.6548 41.3484 34.4565 41.3484C34.8832 41.3484 35.3098 41.3484 35.7223 41.2915H35.6796C35.2814 41.3341 34.869 41.3341 34.4708 41.3341C34.4708 41.3341 34.4707 41.3341 34.4565 41.3341H34.4423C34.4281 41.3341 34.4139 41.3341 34.3996 41.3341C34.3143 41.3341 34.2291 41.3341 34.1295 41.3341C31.4558 41.2772 28.91 40.6089 26.663 39.4429Z" fill="#012B2D"/>
<path d="M25.0829 38.5015C25.5949 38.8427 26.1211 39.1556 26.6757 39.44C26.5193 39.3547 26.3629 39.2693 26.2206 39.184C25.8224 38.9849 25.4384 38.7432 25.0829 38.5015Z" fill="#012B2D"/>
<path d="M19.7511 32.8296C21.0595 35.119 22.8942 37.0671 25.0701 38.5034C25.4399 38.7451 25.8097 38.9726 26.1937 39.1859C24.9421 38.4891 23.7901 37.6359 22.7662 36.6548C21.6 35.5314 20.576 34.2516 19.7511 32.8296Z" fill="#012B2C"/>
<path d="M35.6644 41.2898H35.6217C35.5932 41.2898 35.5506 41.2898 35.5221 41.304C35.1666 41.3325 34.7968 41.3325 34.427 41.3325H34.4413C34.4413 41.3325 34.4413 41.3325 34.4555 41.3325C34.8679 41.3325 35.2804 41.3325 35.6644 41.2898ZM26.2067 39.1995C26.3632 39.2848 26.5196 39.3701 26.6618 39.4554C28.9089 40.6215 31.4404 41.2898 34.1142 41.3467C31.284 41.2756 28.5818 40.5219 26.2067 39.1995Z" fill="#012B2C"/>
<path d="M22.7794 36.6548C23.8033 37.636 24.9553 38.4892 26.2069 39.1859C28.5819 40.5084 31.2841 41.2621 34.1143 41.3189C34.2138 41.3189 34.3276 41.3189 34.4272 41.3189C34.7969 41.3189 35.1667 41.3189 35.5223 41.2905C35.2094 41.3047 34.8823 41.3047 34.5552 41.3047H34.541C34.5125 41.3047 34.4983 41.3047 34.4698 41.3047H34.4556C29.933 41.3189 25.8229 39.5557 22.7794 36.6548Z" fill="#012A2B"/>
<path d="M35.8925 41.2734C35.8783 41.2734 35.8499 41.2734 35.8356 41.2875C35.8499 41.2875 35.8499 41.2875 35.8641 41.2875C35.8641 41.2734 35.8783 41.2734 35.8925 41.2734Z" fill="#012A2B"/>
<path d="M35.8352 41.2734C35.7783 41.2877 35.7214 41.2877 35.6787 41.2877H35.7214C35.764 41.2877 35.7925 41.2734 35.8352 41.2734Z" fill="#01292B"/>
<path d="M35.9064 41.2627C35.8922 41.2627 35.878 41.2627 35.8638 41.2627C35.8495 41.2627 35.8353 41.2627 35.8211 41.2627V41.2769C35.8353 41.2769 35.8638 41.2769 35.878 41.2627C35.8922 41.2769 35.9064 41.2769 35.9064 41.2627Z" fill="#01292B"/>
<path d="M35.8353 41.2734C35.7642 41.2877 35.6931 41.2877 35.622 41.2877H35.6647C35.7216 41.2877 35.7785 41.2734 35.8353 41.2734Z" fill="#01282A"/>
<path d="M35.8643 41.2627C35.8499 41.2627 35.8355 41.2627 35.8211 41.2627C35.8499 41.2769 35.8643 41.2627 35.8643 41.2627Z" fill="#01282A"/>
<path d="M35.9346 23.2874H35.6075C35.6787 23.3585 35.7355 23.4438 35.7924 23.5291C35.8778 23.5718 35.9489 23.6286 36.02 23.6855V23.3442C35.9915 23.3158 35.9631 23.3016 35.9346 23.2874Z" fill="#023E40"/>
<path d="M35.5939 23.2874C35.665 23.3585 35.7219 23.4438 35.7788 23.5291C35.7361 23.4438 35.665 23.3585 35.5939 23.2874Z" fill="#013638"/>
<path d="M35.5937 23.2874H34.9395C35.2381 23.3016 35.5368 23.3869 35.7785 23.5291C35.7359 23.4438 35.6648 23.3585 35.5937 23.2874Z" fill="#013032"/>
<path d="M17.5879 23.6426C17.5595 23.6852 17.531 23.7279 17.5026 23.7848V24.2398H17.5879V23.6426Z" fill="#013133"/>
<path d="M17.5879 24.2234H17.5026V24.3514C17.5026 24.4367 17.5026 24.522 17.5026 24.5931H17.5879C17.5879 24.4936 17.5879 24.394 17.5879 24.3087V24.2234Z" fill="#012E30"/>
<path d="M17.6035 23.6301C17.5891 23.6301 17.5891 23.6443 17.6035 23.6301V23.6301Z" fill="#012D2F"/>
<path d="M17.7165 23.2874H17.6027V23.6144H17.6169C17.6454 23.5718 17.6881 23.5433 17.7165 23.5007V23.3585C17.7165 23.3442 17.7165 23.3158 17.7165 23.2874Z" fill="#012E30"/>
<path d="M17.731 23.2874C17.7166 23.3158 17.7166 23.3442 17.7166 23.3727V23.5149L17.731 23.5007V23.2874Z" fill="#012D2F"/>
<path d="M18.2853 23.2874H17.7307V23.5007C17.8729 23.3727 18.072 23.2874 18.2853 23.2874Z" fill="#012C2D"/>
<path d="M17.6035 23.6121L17.5892 23.6262C17.6035 23.6262 17.6035 23.6262 17.6035 23.6121Z" fill="#012C2D"/>
<path d="M35.7934 23.5291C35.8787 23.657 35.9641 23.8135 36.0209 23.9557V23.6855C35.9498 23.6286 35.8645 23.5717 35.7934 23.5291Z" fill="#02383A"/>
<path d="M35.7934 23.5291C35.8787 23.657 35.9641 23.8135 36.0209 23.9557C35.9641 23.7992 35.8787 23.657 35.7934 23.5291Z" fill="#013234"/>
<path d="M34.9535 23.2874C35.4086 23.4864 35.7784 23.8277 36.0201 24.2543V23.9699C35.9633 23.8135 35.8779 23.6713 35.7926 23.5433C35.5366 23.3869 35.2522 23.3016 34.9535 23.2874Z" fill="#012E2F"/>
<path d="M17.7168 23.5146C17.6741 23.5431 17.6457 23.5857 17.6172 23.6284H17.7168V23.5146Z" fill="#012D2F"/>
<path d="M17.731 23.5002L17.7166 23.5145V23.6282H17.731V23.5002Z" fill="#012C2D"/>
<path d="M18.4418 23.2874H18.3138H18.2853C18.072 23.2874 17.8871 23.3727 17.7307 23.5007V23.6286H18.4418V23.2874Z" fill="#012B2C"/>
<path d="M34.9247 23.2874H18.4414V23.6144H33.8723H33.9434C33.9576 23.6144 33.9718 23.6144 33.9861 23.6144C34.7967 23.6144 35.522 24.0268 35.9487 24.6667C35.9771 24.6809 36.0056 24.6809 36.034 24.6951V24.2543C35.7922 23.8277 35.4083 23.4864 34.9674 23.2874C34.9389 23.2874 34.9247 23.2874 34.9247 23.2874Z" fill="#012B2C"/>
<path d="M17.7165 23.6121H17.6169L17.6027 23.6263V24.2235H17.7165V23.6121Z" fill="#012B2C"/>
<path d="M17.7165 24.2234H17.6027V24.3514C17.6027 24.4367 17.6027 24.522 17.6027 24.5931H17.7165V24.2234Z" fill="#01292B"/>
<path d="M17.731 23.6121H17.7166V24.2235H17.731V23.6121Z" fill="#012A2C"/>
<path d="M17.731 24.2234H17.7166V24.6073H17.731V24.2234Z" fill="#01292B"/>
<path d="M18.4418 23.6121H17.7307V24.2235H18.4418V23.6121Z" fill="#01292B"/>
<path d="M33.9861 23.6121C33.9718 23.6121 33.9576 23.6121 33.9434 23.6121H33.8723H18.4414V24.2235H33.8723C34.3416 24.2235 34.7683 24.3657 35.138 24.6075H35.4794C35.6358 24.6075 35.7922 24.6359 35.9487 24.6786C35.5078 24.0387 34.7967 23.6121 33.9861 23.6121Z" fill="#01292B"/>
<path d="M18.4418 24.2234H17.7307V24.6073H18.4418V24.2234Z" fill="#01282A"/>
<path d="M33.8581 24.2234H18.4414V24.6073H35.138C34.754 24.3656 34.3274 24.2234 33.8581 24.2234Z" fill="#01282A"/>
<path d="M35.6222 41.2915H35.5938C35.5653 41.2915 35.5511 41.2915 35.5226 41.3057C35.5511 41.3057 35.5938 41.2915 35.6222 41.2915Z" fill="#01292B"/>
<path d="M35.5932 41.2915H35.5363C35.2234 41.3199 34.8821 41.3199 34.5408 41.3199H34.555C34.8821 41.3199 35.2092 41.3199 35.5221 41.3057C35.5505 41.3057 35.579 41.2915 35.5932 41.2915Z" fill="#01292B"/>
<path d="M35.8356 41.2627C35.7645 41.2769 35.6792 41.2911 35.5939 41.2911H35.6223C35.6934 41.2911 35.7645 41.2769 35.8356 41.2627Z" fill="#012729"/>
<path d="M35.9069 41.2463C35.7931 41.2606 35.6651 41.2748 35.5371 41.289H35.594C35.6793 41.2748 35.7504 41.2748 35.8358 41.2606V41.2748C35.85 41.2748 35.8642 41.2748 35.8784 41.2748C35.8784 41.2606 35.8927 41.2606 35.9069 41.2463Z" fill="#012729"/>
<path d="M35.5361 41.2915H35.2516C34.9956 41.3057 34.7396 41.3199 34.4836 41.3199C34.4979 41.3199 34.5263 41.3199 34.5405 41.3199C34.8819 41.3199 35.2232 41.3199 35.5361 41.2915Z" fill="#01282A"/>
<path d="M35.9074 41.2336C35.6941 41.2621 35.4666 41.2763 35.2532 41.2905H35.5377C35.6657 41.2763 35.7794 41.2621 35.9074 41.2479V41.2336Z" fill="#012728"/>
<path d="M35.9201 41.3042L35.9068 41.3306H35.9201V41.3042Z" fill="#8C8C8C"/>
<path d="M35.9204 41.2915C35.9067 41.305 35.9204 41.305 35.9204 41.2915V41.2915Z" fill="#023C3D"/>
<path d="M35.9204 41.2734C35.9067 41.2869 35.9204 41.2869 35.9204 41.2734C35.9204 41.2869 35.9204 41.2869 35.9204 41.2734Z" fill="#013536"/>
<path d="M35.9357 41.2915H35.9213V41.3057C35.9213 41.3199 35.9213 41.3342 35.9213 41.3342C35.9213 41.3342 35.9213 41.3342 35.9357 41.3342V41.2915Z" fill="#0B3F42"/>
<path d="M35.9638 41.2915H35.9349V41.3342C35.9493 41.3342 35.9493 41.3342 35.9638 41.3342V41.2915Z" fill="#0A3D40"/>
<path d="M35.9356 41.2734H35.9213V41.2876L35.9356 41.2734Z" fill="#0A3C3E"/>
<path d="M35.9616 41.2734C35.9483 41.2734 35.9483 41.2734 35.9349 41.2734V41.2866H35.9616V41.2734Z" fill="#0B3B3D"/>
<path d="M27.7434 44.9995C27.4874 45.2697 27.2456 45.5541 27.0181 45.8527C27.2314 45.5825 27.4589 45.3123 27.7007 45.0564C27.7149 45.028 27.7292 45.0137 27.7434 44.9995Z" fill="#747474"/>
<path d="M32.8634 41.8398C30.915 42.4229 29.1372 43.5178 27.7435 44.9967C27.7293 45.0109 27.715 45.0393 27.6866 45.0536C29.0661 43.5747 30.8296 42.4655 32.7923 41.8683C32.8207 41.8541 32.8492 41.8398 32.8634 41.8398Z" fill="#707070"/>
<path d="M35.9063 41.3618C35.7498 41.3618 35.5934 41.376 35.437 41.376C35.5792 41.3618 35.7356 41.3618 35.8778 41.3618C35.8921 41.3618 35.8921 41.3618 35.9063 41.3618Z" fill="#8E8E8E"/>
<path d="M35.8788 41.3618C35.7365 41.3618 35.5801 41.376 35.4379 41.376C35.3525 41.376 35.2672 41.3903 35.1961 41.3903C35.4094 41.3903 35.6512 41.376 35.8788 41.3618Z" fill="#828282"/>
<path d="M35.8786 41.3618C35.651 41.3618 35.4093 41.376 35.1817 41.4045C35.1533 41.4045 35.1248 41.4045 35.0964 41.4187C35.3666 41.3903 35.6226 41.376 35.8786 41.3618Z" fill="#757575"/>
<path d="M35.8776 41.3618C35.6216 41.3618 35.3656 41.3903 35.1096 41.4045C34.3416 41.4756 33.5878 41.6178 32.8625 41.8453C32.8483 41.8453 32.8198 41.8595 32.8056 41.8595C33.7443 41.5751 34.7398 41.4045 35.7496 41.3618C35.7638 41.3618 35.7922 41.3618 35.8064 41.3618C35.8349 41.3618 35.8633 41.3618 35.8776 41.3618Z" fill="#6B6B6B"/>
<path d="M35.9201 41.3311L35.9068 41.3574H35.9201V41.3311Z" fill="#7C7C7C"/>
<path d="M35.9201 41.3311V41.3574H35.9068C35.9201 41.3574 35.9201 41.3574 35.9335 41.3574C35.9335 41.3574 35.9201 41.3442 35.9201 41.3311Z" fill="#646464"/>
<path d="M35.9339 41.3311C35.9206 41.3442 35.9206 41.3442 35.9339 41.3574V41.3311Z" fill="#0A3D3F"/>
<path d="M35.9616 41.3311C35.9483 41.3311 35.9483 41.3311 35.9349 41.3311V41.3574C35.9483 41.3574 35.9616 41.3574 35.9616 41.3574V41.3311Z" fill="#0A3C3E"/>
<path d="M17.4902 24.6111C17.4902 24.7533 17.4902 24.8955 17.5046 25.0377C17.5046 24.8813 17.5046 24.7533 17.4902 24.6111Z" fill="#013536"/>
<path d="M17.5046 24.6111H17.4902C17.4902 24.7533 17.4902 24.8955 17.5046 25.0377H17.519C17.519 24.8813 17.519 24.7533 17.5046 24.6111Z" fill="#012E30"/>
<path d="M17.5168 25.0222H17.5026C17.5026 25.1218 17.5168 25.2213 17.5168 25.3066C17.5452 25.9323 17.6163 26.558 17.7301 27.1694V27.0841C17.7301 27.0557 17.7159 27.0272 17.7159 26.9846C17.6163 26.3447 17.5452 25.6906 17.5168 25.0222Z" fill="#012C2E"/>
<path d="M17.7307 27.0837V27.1691C17.8871 28.1218 18.1289 29.0461 18.4418 29.942V29.9135C18.1289 29.0177 17.8871 28.0649 17.7307 27.0837Z" fill="#012B2D"/>
<path d="M18.4414 29.926V29.9545C18.797 30.9641 19.2378 31.931 19.7641 32.8269C19.2236 31.9168 18.7827 30.9356 18.4414 29.926Z" fill="#012B2C"/>
<path d="M17.7166 26.988C17.7166 27.0307 17.731 27.0591 17.731 27.0876C17.7166 27.0591 17.7166 27.0307 17.7166 26.988Z" fill="#012B2D"/>
<path d="M17.7307 27.0837C17.8871 28.0649 18.1289 29.0177 18.4418 29.9277V29.9135C18.1146 28.9892 17.8871 28.0507 17.7307 27.0837Z" fill="#012B2C"/>
<path d="M18.4414 29.9026V29.9168C18.797 30.9406 19.2378 31.9076 19.7641 32.8177C20.5889 34.2397 21.5987 35.5195 22.7791 36.6429C21.556 35.4768 20.5036 34.1259 19.6787 32.6328C19.1809 31.7796 18.7685 30.8695 18.4414 29.9026Z" fill="#012A2C"/>
<path d="M19.6645 32.6582C20.4894 34.1513 21.5418 35.5022 22.7649 36.6682C25.8084 39.5549 29.9186 41.3324 34.4411 41.3324C28.1124 41.3182 22.58 37.8201 19.6645 32.6582Z" fill="#01292B"/>
<path d="M17.6033 24.6111H17.5179C17.5179 24.7533 17.5179 24.8955 17.5322 25.0377H17.6175C17.6033 24.8813 17.6033 24.7533 17.6033 24.6111Z" fill="#012D2F"/>
<path d="M17.6033 25.0222H17.5179C17.5464 25.6906 17.6033 26.3447 17.7028 26.9846V26.8708C17.6602 26.5438 17.6175 26.2025 17.5891 25.8754H17.6602C17.6459 25.7048 17.6317 25.5199 17.6175 25.3493C17.6175 25.2355 17.6175 25.136 17.6033 25.0222Z" fill="#012B2D"/>
<path d="M17.6603 25.8755H17.5892C17.6176 26.2168 17.6603 26.5438 17.7029 26.8709V26.3447C17.6887 26.1883 17.6745 26.0319 17.6603 25.8755Z" fill="#012B2C"/>
<path d="M17.7166 26.8872V27.001C17.7166 27.0294 17.731 27.0578 17.731 27.1005V26.9867C17.7166 26.9441 17.7166 26.9156 17.7166 26.8872Z" fill="#012B2C"/>
<path d="M17.7166 26.3442V26.8704C17.7166 26.8988 17.731 26.9415 17.731 26.9699V26.4722C17.7166 26.4296 17.7166 26.3869 17.7166 26.3442Z" fill="#012A2B"/>
<path d="M17.7307 26.97V27.0837C17.8871 28.0507 18.1289 29.0034 18.4418 29.8993V29.8709C18.1146 28.9466 17.8729 27.9796 17.7307 26.97Z" fill="#012A2B"/>
<path d="M18.4414 29.8682V29.8966C18.7685 30.8493 19.1809 31.7736 19.6787 32.6411C19.1809 31.7736 18.7685 30.8493 18.4414 29.8682Z" fill="#01292B"/>
<path d="M17.7307 26.4741V26.986C17.8871 27.9814 18.1289 28.9626 18.4418 29.8869V29.6594C18.1004 28.6213 17.8586 27.5691 17.7307 26.4741Z" fill="#01292B"/>
<path d="M18.4414 29.6428V29.8703C18.7685 30.8373 19.1809 31.7616 19.6787 32.6432C22.58 37.8051 28.1124 41.3032 34.4696 41.3032C34.4838 41.3032 34.4838 41.3032 34.498 41.3032C26.9888 41.289 20.6458 36.3973 18.4414 29.6428Z" fill="#01292B"/>
<path d="M17.6027 24.6111C17.6027 24.7533 17.6027 24.8955 17.6171 25.0377C17.6027 24.8813 17.6027 24.7533 17.6027 24.6111Z" fill="#012A2C"/>
<path d="M17.6027 25.0222C17.6027 25.136 17.6171 25.2355 17.6171 25.3493C17.6171 25.2355 17.6171 25.136 17.6027 25.0222Z" fill="#01292B"/>
<path d="M35.9204 41.2734C35.9067 41.2869 35.9204 41.2869 35.9204 41.2734V41.2734Z" fill="#012F31"/>
<path d="M35.9211 41.2627C35.9068 41.2627 35.9068 41.2627 35.9211 41.2627L35.9068 41.2769C35.9068 41.2769 35.9068 41.2769 35.9211 41.2769V41.2627Z" fill="#012729"/>
<path d="M36.0072 41.2915H35.964V41.3342C35.9784 41.3342 35.9928 41.3342 36.0072 41.3342V41.2915Z" fill="#0B3B3D"/>
<path d="M36.0067 41.2463C35.9782 41.2463 35.9498 41.2606 35.9213 41.2606V41.2748H35.9355C35.9498 41.2748 35.9498 41.2748 35.964 41.2748V41.289H36.0067V41.3317V41.2463Z" fill="#09393B"/>
<path d="M27.7005 45.0588C27.4587 45.3148 27.2312 45.5849 27.0178 45.8551C26.5627 46.4381 26.1503 47.0781 25.809 47.7606H25.8232C26.321 46.7652 26.9609 45.8552 27.7005 45.0588Z" fill="#696969"/>
<path d="M32.8064 41.8577C30.8437 42.4549 29.0802 43.5641 27.7007 45.0429C26.9611 45.8393 26.3211 46.7493 25.8376 47.7447C25.9229 47.5741 26.0082 47.4177 26.0936 47.2613C26.5914 46.3796 27.1887 45.5833 27.8713 44.8865C29.0944 43.6352 30.5877 42.654 32.2659 42.0425C32.4366 41.9856 32.6215 41.9145 32.8064 41.8577Z" fill="#686868"/>
<path d="M26.122 47.2641H26.0936C26.0082 47.4206 25.9229 47.5912 25.8376 47.7476H25.866C25.9371 47.5912 26.0225 47.4206 26.122 47.2641ZM32.2659 42.0454C30.5877 42.6427 29.0944 43.6238 27.8713 44.8894C28.7531 43.9793 29.7771 43.2257 30.9006 42.6569C31.1139 42.5431 31.3273 42.4436 31.5548 42.344C31.7824 42.2445 32.0242 42.145 32.2659 42.0454Z" fill="#656565"/>
<path d="M26.1223 47.2648C26.0227 47.4213 25.9374 47.5919 25.8521 47.7625H25.8663C25.9516 47.5919 26.0369 47.4213 26.1223 47.2648ZM31.5408 42.3447C31.3275 42.4443 31.1 42.5438 30.8866 42.6576C31.0146 42.5865 31.1426 42.5296 31.2706 42.4727C31.3702 42.43 31.4555 42.3874 31.5408 42.3447Z" fill="#646464"/>
<path d="M26.1646 47.261H26.1361C26.0508 47.4174 25.9512 47.588 25.8801 47.7445H25.9228C25.9939 47.5738 26.0792 47.4174 26.1646 47.261Z" fill="#164E52"/>
<path d="M27.8706 44.8875C27.188 45.5842 26.5907 46.3806 26.0929 47.2622C26.5907 46.3948 27.188 45.5985 27.8706 44.8875Z" fill="#676767"/>
<path d="M30.8998 42.6567C29.7763 43.2255 28.7523 43.9792 27.8706 44.8893C27.1879 45.6003 26.5906 46.3966 26.0929 47.264H26.1212C27.2306 45.3017 28.8803 43.6948 30.8998 42.6567Z" fill="#656565"/>
<path d="M31.2845 42.4692C31.1565 42.5261 31.0285 42.5972 30.9005 42.6541C28.8952 43.6922 27.2312 45.299 26.1219 47.2614H26.1361C27.0463 45.6545 28.3263 44.2894 29.8623 43.2656C30.3174 42.9669 30.7867 42.6968 31.2845 42.4692Z" fill="#646464"/>
<path d="M29.8626 43.2661C28.3266 44.2757 27.0466 45.6551 26.1364 47.2619H26.1649C27.0751 45.6409 28.3408 44.2757 29.8626 43.2661Z" fill="#164E52"/>
<path d="M35.9068 41.2463C35.9068 41.2598 35.9068 41.2598 35.9068 41.2463C35.9205 41.2463 35.9205 41.2598 35.9068 41.2463Z" fill="#012728"/>
<path d="M35.9349 24.667C35.9634 24.7097 35.9918 24.7523 36.0203 24.8092V24.6954C35.9918 24.6812 35.9634 24.6812 35.9349 24.667Z" fill="#012A2B"/>
<path d="M35.7506 41.3762C34.7409 41.4189 33.7453 41.5895 32.8067 41.8739C32.6218 41.9308 32.4369 41.9877 32.2662 42.0588C33.2333 41.7033 34.2573 41.49 35.324 41.4047C35.4662 41.3904 35.6084 41.3762 35.7506 41.3762Z" fill="#646464"/>
<path d="M35.808 41.3618C35.7938 41.3618 35.7796 41.3618 35.7653 41.3618C35.6231 41.3618 35.4809 41.376 35.3245 41.3903C35.4667 41.376 35.6089 41.376 35.7369 41.3618C35.7653 41.376 35.7796 41.376 35.808 41.3618Z" fill="#626262"/>
<path d="M35.3233 41.387C34.2566 41.4723 33.2326 41.6856 32.2655 42.0411C32.0238 42.1264 31.782 42.2259 31.5402 42.3397C32.7064 41.8278 33.9864 41.5007 35.3233 41.387Z" fill="#626262"/>
<path d="M35.7354 41.3762C35.5932 41.3762 35.451 41.3904 35.323 41.4047C33.9861 41.5042 32.7204 41.8313 31.5542 42.3574C31.4688 42.4001 31.3835 42.4427 31.2839 42.4854C31.8386 42.2294 32.4217 42.0019 33.019 41.8313C33.7443 41.618 34.5123 41.4758 35.2945 41.4189C35.4368 41.3904 35.579 41.3762 35.7354 41.3762Z" fill="#616161"/>
<path d="M26.179 47.2477C26.0794 47.4042 25.9941 47.5748 25.9088 47.7454H25.923C25.9941 47.5748 26.0936 47.4184 26.179 47.2477ZM35.281 41.4033C34.4988 41.4602 33.7451 41.6024 33.0055 41.8157C33.5175 41.6735 34.0295 41.5597 34.5699 41.4886C34.8117 41.446 35.0393 41.4175 35.281 41.4033Z" fill="#154B4F"/>
<path d="M33.019 41.8162C32.4217 41.9868 31.8386 42.2001 31.284 42.4703C30.7862 42.712 30.3169 42.9822 29.8618 43.2808C30.8289 42.6409 31.8813 42.1432 33.019 41.8162Z" fill="#616161"/>
<path d="M34.569 41.4915C34.0427 41.5626 33.5165 41.6763 33.0045 41.8185C31.8668 42.1456 30.8144 42.6433 29.8473 43.269C28.3255 44.2786 27.0597 45.6437 26.1495 47.2506H26.1638C27.458 44.9754 29.4775 43.1979 31.9094 42.2167C32.7628 41.8754 33.6445 41.6337 34.569 41.4915Z" fill="#154B4F"/>
<path d="M26.2219 47.2466H26.1792C26.0939 47.403 25.9943 47.5736 25.9232 47.7301H25.9659C26.037 47.5736 26.1365 47.403 26.2219 47.2466Z" fill="#14484C"/>
<path d="M31.9243 42.2148C29.4923 43.196 27.4728 44.9735 26.1786 47.2487H26.2213C27.5012 44.9877 29.5065 43.2102 31.9243 42.2148Z" fill="#14484C"/>
<path d="M17.6317 25.3489C17.6461 25.5195 17.6605 25.7044 17.6749 25.875C17.6461 25.7044 17.6317 25.5337 17.6317 25.3489Z" fill="#012A2B"/>
<path d="M17.6595 25.8755C17.6739 26.0319 17.6883 26.1883 17.7027 26.3447V26.3305C17.6883 26.1883 17.6739 26.0319 17.6595 25.8755Z" fill="#01292B"/>
<path d="M17.7166 26.3281C17.7166 26.385 17.731 26.4277 17.731 26.4703V26.4561C17.7166 26.4134 17.7166 26.3708 17.7166 26.3281Z" fill="#01292A"/>
<path d="M17.7307 26.4597V26.4739C17.8729 27.5689 18.1004 28.6354 18.4418 29.645V29.6166C18.1004 28.6069 17.8586 27.5404 17.7307 26.4597Z" fill="#01282A"/>
<path d="M18.4414 29.6157V29.6442C20.66 36.3987 27.003 41.2903 34.498 41.3188C34.754 41.3188 35.01 41.3046 35.266 41.2903H34.5692H34.5407C27.0315 41.2903 20.66 36.3987 18.4414 29.6157Z" fill="#012829"/>
<path d="M35.9064 41.3618C35.8779 41.3618 35.8353 41.3618 35.8068 41.3618C35.7926 41.3618 35.7642 41.3618 35.7499 41.3618C35.7926 41.376 35.8495 41.3618 35.9064 41.3618Z" fill="#5F5F5F"/>
<path d="M35.9067 41.3618C35.8498 41.3618 35.7929 41.3618 35.736 41.3618C35.5796 41.376 35.4374 41.376 35.2809 41.3903C35.4943 41.3903 35.6934 41.376 35.9067 41.3618Z" fill="#5E5E5E"/>
<path d="M35.9062 41.3618C35.6929 41.3618 35.4938 41.376 35.2804 41.3903C35.0387 41.4187 34.7969 41.4471 34.5693 41.4756C35.0102 41.4329 35.4511 41.3903 35.9062 41.3618Z" fill="#14494D"/>
<path d="M36.006 41.3311C35.9918 41.3311 35.9776 41.3311 35.9634 41.3311V41.3591C35.9492 41.3591 35.9349 41.3591 35.9349 41.3591C35.9634 41.3591 35.9918 41.3591 36.006 41.3591V41.3311Z" fill="#0A393B"/>
<path d="M36.0066 41.3618C35.9782 41.3618 35.9498 41.3618 35.9355 41.3618C35.9213 41.3618 35.9213 41.3618 35.9071 41.3618V41.376C35.452 41.3903 35.0111 41.4187 34.5702 41.4898C33.6458 41.632 32.7498 41.8737 31.9107 42.2292C33.1907 41.7031 34.5702 41.4187 36.0066 41.3618Z" fill="#14494D"/>
<path d="M17.7165 24.6111H17.6027C17.6027 24.7533 17.6027 24.8955 17.6169 25.0377H17.7165V24.6111Z" fill="#012A2B"/>
<path d="M17.731 24.6111H17.7166V25.0235H17.731V24.6111Z" fill="#01282A"/>
<path d="M35.4645 24.6111H35.1232C35.5214 24.867 35.8343 25.251 36.0192 25.6918V24.8244C35.9907 24.7817 35.9623 24.7248 35.9338 24.6822C35.7916 24.6253 35.6352 24.6111 35.4645 24.6111Z" fill="#01292B"/>
<path d="M18.4418 24.6111H17.7307V25.0235H18.4418V24.6111Z" fill="#012829"/>
<path d="M35.1238 24.6111H18.4414V25.0377H33.8723C34.8536 25.0519 35.6927 25.6634 36.034 26.5308V25.6918C35.8349 25.2368 35.522 24.867 35.1238 24.6111Z" fill="#012729"/>
<path d="M36.0205 45.0139C35.4943 45.8387 33.361 46.4928 32.5077 46.4928L26.2074 47.2465C26.122 47.4029 26.0225 47.5735 25.9514 47.7299L32.3939 46.9763C33.361 46.9763 36.0205 46.1089 36.0205 45.1419V45.0139Z" fill="#14474A"/>
<path d="M17.7168 25.0222H17.6172C17.6172 25.136 17.6315 25.2355 17.6315 25.3493C17.6457 25.5199 17.6599 25.7048 17.6741 25.8754H17.7168V25.0222Z" fill="#012829"/>
<path d="M17.7162 25.8755H17.673C17.6874 26.0319 17.7018 26.1741 17.7162 26.3305V25.8755Z" fill="#012729"/>
<path d="M17.731 25.0222H17.7166V25.8754H17.731V25.0222Z" fill="#012729"/>
<path d="M17.731 25.8755H17.7166V26.3305C17.7166 26.3732 17.731 26.4158 17.731 26.4585V25.8755Z" fill="#012728"/>
<path d="M18.4418 25.0222H17.7307V25.8754H18.4418V25.0222Z" fill="#012728"/>
<path d="M33.8581 25.0222H18.4414V25.8754H33.8723H33.9292C33.9434 25.8754 33.9576 25.8754 33.9718 25.8754C34.8394 25.8754 35.6074 26.3447 36.034 27.0557V26.5011C35.6785 25.6479 34.8394 25.0364 33.8581 25.0222Z" fill="#012728"/>
<path d="M18.4418 25.8755H17.7307V26.4443C17.8729 27.5392 18.1004 28.5915 18.4418 29.6153V25.8755Z" fill="#012728"/>
<path d="M33.9718 25.8755C33.9576 25.8755 33.9434 25.8755 33.9292 25.8755H33.8723H18.4414V29.6153C20.66 36.3841 27.0315 41.2757 34.5549 41.29H34.5692H35.266C35.4794 41.2757 35.7069 41.2615 35.9202 41.2331V41.2473C35.9202 41.2473 35.9202 41.2473 35.9345 41.2473C35.8491 40.6216 35.8065 39.9959 35.8065 39.356C35.8065 38.4744 35.8918 37.607 36.034 36.768V27.07C35.6074 26.359 34.8394 25.8755 33.9718 25.8755Z" fill="#012728"/>
<path d="M36.0209 36.7505C35.8645 37.5895 35.7934 38.4569 35.7934 39.3385C35.7934 39.9784 35.8361 40.6183 35.9214 41.2298V41.244C35.9498 41.244 35.9783 41.2298 36.0067 41.2298V41.3151V41.3435H36.0209V36.7505Z" fill="#093739"/>
<path d="M36.0197 41.3618H36.0055V41.376C34.5691 41.4045 33.1895 41.7031 31.9238 42.215C29.506 43.2104 27.5007 44.9879 26.2208 47.2489L32.5211 46.4952C33.3744 46.4952 35.5077 45.8411 36.0339 45.0164V41.3618" fill="#14474A"/>
<path d="M10.0375 21.6968H33.8593C35.1677 21.6968 36.2344 22.7633 36.2344 24.0715V24.0857V47.9327C36.2486 49.2409 35.182 50.3216 33.8735 50.3216H33.8593H10.0375C8.71484 50.3216 7.64819 49.2551 7.64819 47.9327V24.0857C7.64819 22.7633 8.71484 21.6968 10.0375 21.6968Z" fill="#03787C"/>
<path d="M18.6835 35.8459C18.1004 35.4762 17.6027 34.9785 17.2329 34.3955C16.9058 33.7556 16.7351 33.0446 16.7351 32.3194C16.7067 31.3382 17.0338 30.3855 17.6595 29.6318C18.328 28.8781 19.1813 28.3236 20.1342 28.0249C21.215 27.6694 22.3528 27.4988 23.5048 27.4988C24.9981 27.4561 26.5056 27.6552 27.9278 28.1245V31.2529C27.3163 30.8689 26.6336 30.5988 25.9225 30.4423C25.1545 30.2575 24.3723 30.1579 23.5901 30.1579C22.7652 30.1295 21.9261 30.3001 21.1866 30.6699C20.6177 30.9258 20.2337 31.4946 20.2337 32.1203C20.2337 32.5042 20.3759 32.8597 20.6462 33.1299C20.959 33.4428 21.3288 33.7129 21.7128 33.912C22.1821 34.1253 22.879 34.4381 23.775 34.8079L24.0594 34.9216C24.9554 35.2629 25.823 35.6753 26.6478 36.173C28.0132 36.9551 28.8096 38.4482 28.7243 40.0266C28.7669 41.022 28.454 42.0032 27.8567 42.8137C27.2594 43.5532 26.4487 44.0935 25.5385 44.3637C24.4719 44.705 23.3483 44.8614 22.239 44.8614C21.2435 44.8614 20.2337 44.7761 19.2524 44.6054C18.3991 44.4775 17.56 44.2357 16.7636 43.9087V40.6096C17.5173 41.1358 18.3706 41.5339 19.2524 41.7899C20.1342 42.0601 21.0444 42.2165 21.9688 42.2307C22.8221 42.2876 23.6897 42.1027 24.4434 41.7046C24.9696 41.406 25.2825 40.8514 25.2825 40.2541C25.2825 39.8275 25.1119 39.4151 24.799 39.1165C24.4434 38.761 24.031 38.4624 23.5617 38.2349C23.007 37.9647 22.1964 37.595 21.1439 37.1542C20.2764 36.7987 19.4515 36.3579 18.6835 35.8459Z" fill="white"/>
</g>
</g>
<defs>
<filter id="filter0_d_1_669" x="-3.30756" y="0" width="79.11" height="80" filterUnits="userSpaceOnUse" color-interpolation-filters="sRGB">
<feFlood flood-opacity="0" result="BackgroundImageFix"/>
<feColorMatrix in="SourceAlpha" type="matrix" values="0 0 0 0 0 0 0 0 0 0 0 0 0 0 0 0 0 0 127 0" result="hardAlpha"/>
<feOffset dy="4"/>
<feGaussianBlur stdDeviation="2"/>
<feComposite in2="hardAlpha" operator="out"/>
<feColorMatrix type="matrix" values="0 0 0 0 0 0 0 0 0 0 0 0 0 0 0 0 0 0 0.25 0"/>
<feBlend mode="normal" in2="BackgroundImageFix" result="effect1_dropShadow_1_669"/>
<feBlend mode="normal" in="SourceGraphic" in2="effect1_dropShadow_1_669" result="shape"/>
</filter>
<clipPath id="clip0_1_669">
<rect width="71.11" height="72" fill="white" transform="translate(0.692444)"/>
</clipPath>
</defs>
</svg>
