<svg width="73" height="72" viewBox="0 0 73 72" fill="none" xmlns="http://www.w3.org/2000/svg">
<g clip-path="url(#clip0_1_164)">
<path d="M62.7638 0H9.62095C4.4137 0 0.192383 4.22131 0.192383 9.42857V62.5714C0.192383 67.7787 4.4137 72 9.62095 72H62.7638C67.9711 72 72.1924 67.7787 72.1924 62.5714V9.42857C72.1924 4.22131 67.9711 0 62.7638 0Z" fill="#03363D"/>
<mask id="mask0_1_164" style="mask-type:luminance" maskUnits="userSpaceOnUse" x="14" y="14" width="43" height="43">
<path d="M56.764 14.1433H14.3354V56.5719H56.764V14.1433Z" fill="white"/>
</mask>
<g mask="url(#mask0_1_164)">
<path d="M33.9336 27.6891V51.3518H14.3354L33.9336 27.6891ZM33.9336 19.198C33.9336 24.6083 29.5448 28.9971 24.1345 28.9971C18.7242 28.9971 14.3354 24.6083 14.3354 19.198H33.9336ZM37.1657 51.3518C37.1657 45.9361 41.5491 41.5527 46.9648 41.5527C52.3806 41.5527 56.764 45.9415 56.764 51.3518H37.1657ZM37.1657 42.8553V19.198H56.764L37.1657 42.8553Z" fill="white"/>
</g>
</g>
<defs>
<clipPath id="clip0_1_164">
<rect width="72" height="72" fill="white" transform="translate(0.192383)"/>
</clipPath>
</defs>
</svg>
