<svg width="72" height="72" viewBox="0 0 72 72" fill="none" xmlns="http://www.w3.org/2000/svg">
<path d="M66.5239 34.4364L38.4983 6.3998L35.7826 3.68311L14.6857 24.7884L5.03851 34.4364C4.55664 34.9209 4.28613 35.5766 4.28613 36.2601C4.28613 36.9436 4.55664 37.5993 5.03851 38.0838L24.3125 57.3654L35.7826 68.8371L56.8767 47.7319L57.2053 47.4061L66.5239 38.0984C66.7654 37.8586 66.957 37.5733 67.0878 37.2591C67.2186 36.9448 67.2859 36.6078 67.2859 36.2674C67.2859 35.927 67.2186 35.59 67.0878 35.2757C66.957 34.9615 66.7654 34.6762 66.5239 34.4364ZM35.7826 45.8936L26.1529 36.2601L35.7826 26.6266L45.4094 36.2601L35.7826 45.8936Z" fill="#2684FF"/>
<path d="M35.7822 26.6262C32.7537 23.5972 31.0464 19.4923 31.0333 15.2081C31.0203 10.924 32.7024 6.8087 35.7124 3.76123L14.6416 24.8316L26.1089 36.3033L35.7822 26.6262Z" fill="url(#paint0_linear_1_171)"/>
<path d="M45.4352 36.2339L35.7822 45.8935C38.8222 48.9355 40.53 53.0609 40.53 57.3624C40.53 61.6639 38.8222 65.7892 35.7822 68.8312L56.9112 47.7056L45.4352 36.2339Z" fill="url(#paint1_linear_1_171)"/>
<defs>
<linearGradient id="paint0_linear_1_171" x1="34.058" y1="16.8793" x2="20.6055" y2="30.3237" gradientUnits="userSpaceOnUse">
<stop offset="0.18" stop-color="#0052CC"/>
<stop offset="1" stop-color="#2684FF"/>
</linearGradient>
<linearGradient id="paint1_linear_1_171" x1="37.6198" y1="55.5241" x2="51.0462" y2="42.1059" gradientUnits="userSpaceOnUse">
<stop offset="0.18" stop-color="#0052CC"/>
<stop offset="1" stop-color="#2684FF"/>
</linearGradient>
</defs>
</svg>
