<svg width="73" height="72" viewBox="0 0 73 72" fill="none" xmlns="http://www.w3.org/2000/svg">
<mask id="mask0_1_1104" style="mask-type:luminance" maskUnits="userSpaceOnUse" x="7" y="7" width="59" height="58">
<path d="M65.4564 7.19995H7.85645V64.7999H65.4564V7.19995Z" fill="white"/>
</mask>
<g mask="url(#mask0_1_1104)">
<path d="M20.1919 43.4807C20.1919 46.7915 17.5159 49.4674 14.2051 49.4674C10.8942 49.4674 8.21826 46.7915 8.21826 43.4807C8.21826 40.1698 10.8942 37.4939 14.2051 37.4939H20.1919V43.4807ZM23.1852 43.4807C23.1852 40.1698 25.8611 37.4939 29.172 37.4939C32.4829 37.4939 35.1588 40.1698 35.1588 43.4807V58.4476C35.1588 61.7585 32.4829 64.4344 29.172 64.4344C25.8611 64.4344 23.1852 61.7585 23.1852 58.4476V43.4807Z" fill="#E01E5A"/>
<path d="M29.172 19.4423C25.8611 19.4423 23.1852 16.7664 23.1852 13.4555C23.1852 10.1447 25.8611 7.46875 29.172 7.46875C32.4828 7.46875 35.1587 10.1447 35.1587 13.4555V19.4423H29.172ZM29.172 22.481C32.4828 22.481 35.1587 25.1569 35.1587 28.4678C35.1587 31.7787 32.4828 34.4546 29.172 34.4546H14.1597C10.8488 34.4546 8.17285 31.7787 8.17285 28.4678C8.17285 25.1569 10.8488 22.481 14.1597 22.481H29.172Z" fill="#36C5F0"/>
<path d="M53.1647 28.4678C53.1647 25.1569 55.8406 22.481 59.1515 22.481C62.4624 22.481 65.1383 25.1569 65.1383 28.4678C65.1383 31.7787 62.4624 34.4546 59.1515 34.4546H53.1647V28.4678ZM50.1713 28.4678C50.1713 31.7787 47.4954 34.4546 44.1846 34.4546C40.8737 34.4546 38.1978 31.7787 38.1978 28.4678V13.4555C38.1978 10.1447 40.8737 7.46875 44.1846 7.46875C47.4954 7.46875 50.1713 10.1447 50.1713 13.4555V28.4678Z" fill="#2EB67D"/>
<path d="M44.1846 52.4608C47.4954 52.4608 50.1713 55.1367 50.1713 58.4476C50.1713 61.7585 47.4954 64.4344 44.1846 64.4344C40.8737 64.4344 38.1978 61.7585 38.1978 58.4476V52.4608H44.1846ZM44.1846 49.4674C40.8737 49.4674 38.1978 46.7915 38.1978 43.4807C38.1978 40.1698 40.8737 37.4939 44.1846 37.4939H59.1969C62.5077 37.4939 65.1836 40.1698 65.1836 43.4807C65.1836 46.7915 62.5077 49.4674 59.1969 49.4674H44.1846Z" fill="#ECB22E"/>
</g>
</svg>
