<svg width="73" height="72" viewBox="0 0 73 72" fill="none" xmlns="http://www.w3.org/2000/svg">
<g clip-path="url(#clip0_1_1113)">
<path d="M72.9844 36C72.9844 16.1177 56.8666 0 36.9844 0C17.1021 0 0.984375 16.1177 0.984375 36C0.984375 55.8823 17.1021 72 36.9844 72C56.8666 72 72.9844 55.8823 72.9844 36Z" fill="#73C41D"/>
<path d="M46.8846 49.5002C42.5132 49.5002 38.7846 46.0288 38.7846 41.4002C38.7846 36.7716 41.9989 32.9145 47.0132 32.9145C52.1561 32.9145 55.1132 37.0288 55.1132 41.2716C55.1132 45.9002 51.8989 49.5002 46.8846 49.5002ZM47.2703 29.5716C43.1561 29.5716 40.9703 30.9859 39.4275 32.5287L39.0418 32.9145V19.2859H35.5703V41.5287C35.5703 48.343 40.8418 52.7145 46.8846 52.7145C53.5703 52.7145 58.5846 47.5716 58.5846 41.0145C58.7132 34.843 53.3132 29.5716 47.2703 29.5716Z" fill="white"/>
<path d="M33.8988 34.0715C33.8988 34.0715 32.356 33.8143 31.0702 33.5572C29.656 33.3 29.0131 33.1715 27.0845 32.4001C25.2845 31.6286 23.4845 29.8286 21.9417 27.7715C20.2703 25.7143 16.4131 22.5 16.4131 22.5C16.4131 22.5 17.5702 22.6286 18.856 22.8857C19.8845 23.1429 22.456 23.9143 25.0274 25.3286C25.6703 25.5858 25.9274 25.8429 26.5702 26.2286C27.4702 26.7429 28.3703 27.6429 29.2703 28.5429C30.2988 29.5715 31.1988 30.4715 31.9703 31.3715C31.0703 29.8286 28.8845 24.1715 24.6417 19.5429C24.256 19.0286 27.5988 21.2143 28.4988 22.1143C31.0702 24.9429 31.456 26.4858 32.356 29.0572L33.8988 34.0715Z" fill="white"/>
</g>
<defs>
<clipPath id="clip0_1_1113">
<rect width="72" height="72" fill="white" transform="translate(0.984375)"/>
</clipPath>
</defs>
</svg>
