<svg width="73" height="72" viewBox="0 0 73 72" fill="none" xmlns="http://www.w3.org/2000/svg">
<g clip-path="url(#clip0_1_1122)">
<path d="M64.5826 0H8.01117C3.75068 0 0.296875 3.45381 0.296875 7.71429V64.2857C0.296875 68.5462 3.75068 72 8.01117 72H64.5826C68.8431 72 72.2969 68.5462 72.2969 64.2857V7.71429C72.2969 3.45381 68.8431 0 64.5826 0Z" fill="#D5FF00"/>
<path d="M14.1834 38.3367C15.9389 38.3367 16.6237 37.2647 16.6237 35.4306C16.6237 33.5968 15.8229 32.3182 14.2348 32.3182H12.455V38.3367H14.1834ZM10.5825 30.717H14.4673C16.9332 30.717 18.5213 32.7059 18.5213 35.4306C18.5213 36.9285 18.0176 38.2462 17.0492 39.0598C16.3649 39.6277 15.4739 39.9507 14.3122 39.9507H10.5825V30.717ZM23.869 36.645C23.869 35.3532 23.2624 34.475 22.1908 34.475C21.106 34.475 20.5118 35.3532 20.5118 36.645C20.5118 37.9363 21.106 38.8014 22.1908 38.8014C23.2624 38.8014 23.869 37.9363 23.869 36.645ZM18.7303 36.645C18.7303 34.6688 20.1377 33.1449 22.1908 33.1449C24.2435 33.1449 25.6509 34.6688 25.6509 36.645C25.6509 38.6203 24.2435 40.1446 22.1908 40.1446C20.1373 40.1446 18.7303 38.6207 18.7303 36.645ZM25.941 36.645C25.941 34.6688 27.2324 33.1449 29.2464 33.1449C30.9641 33.1449 32.0226 34.1396 32.2551 35.5729H30.5378C30.4217 34.9919 29.9699 34.5524 29.3242 34.5524C28.2653 34.5524 27.7234 35.3664 27.7234 36.645C27.7234 37.8976 28.2267 38.7372 29.2983 38.7372C30.0086 38.7372 30.5123 38.3627 30.6283 37.6137H32.3197C32.2036 39.0211 31.1057 40.1446 29.337 40.1446C27.2456 40.1446 25.941 38.6207 25.941 36.645ZM36.8917 39.9512V39.1763H36.853C36.4012 39.7832 35.8847 40.1318 34.9551 40.1318C33.4831 40.1318 32.6567 39.1894 32.6567 37.7425V33.3256H34.3995V37.4454C34.3995 38.2203 34.7485 38.6466 35.4971 38.6466C36.3234 38.6466 36.8271 38.0269 36.8271 37.1487V33.3256H38.5831V39.9512H36.8917ZM47.1383 39.9512H48.8938V33.3256H47.1383V39.9512ZM47.1383 32.3997H48.8938V30.7577H47.1383V32.3997ZM54.2576 36.3474C54.2576 35.3791 53.7412 34.5528 52.6823 34.5528C51.7914 34.5528 51.1975 35.2499 51.1975 36.3606C51.1975 37.4841 51.7914 38.1429 52.6955 38.1429C53.8058 38.1429 54.2576 37.3289 54.2576 36.3474ZM49.6222 40.1446H51.3646C51.507 40.5577 51.8811 40.8808 52.6947 40.8808C53.6889 40.8808 54.1667 40.403 54.1667 39.4989V38.7754H54.128C53.7404 39.2145 53.2371 39.5503 52.3976 39.5503C50.9259 39.5503 49.4798 38.3882 49.4798 36.3865C49.4798 34.4104 50.6675 33.1449 52.3461 33.1449C53.1724 33.1449 53.779 33.4676 54.1795 34.0231H54.2054V33.3256H55.8967V39.447C55.8967 40.3771 55.5996 41.0096 55.1091 41.4619C54.5535 41.9783 53.7017 42.2108 52.7206 42.2108C50.9128 42.2108 49.8029 41.4359 49.6222 40.1446ZM58.3675 34.2297H58.4062C58.8581 33.5194 59.4651 33.1449 60.3688 33.1449C61.7375 33.1449 62.654 34.1779 62.654 35.6244V39.9507H60.898V35.8828C60.898 35.1725 60.4848 34.6688 59.749 34.6688C58.9741 34.6688 58.4062 35.2886 58.4062 36.1927V39.9507H56.6502V33.3256H58.3675V34.2297ZM43.1366 34.3845C41.7679 34.0882 41.1222 33.8684 41.1222 33.119C41.1222 32.4606 41.7806 32.0342 42.788 32.0342C43.707 32.0342 44.4094 32.4655 44.5535 33.3256H46.3543C46.1712 31.5326 44.8407 30.5491 42.8008 30.5491C40.7481 30.5491 39.2629 31.4919 39.2629 33.3128C39.2629 35.2371 40.7736 35.6762 42.4263 36.0507C43.8337 36.3738 44.7119 36.5544 44.7119 37.4581C44.7119 38.3108 43.8724 38.6466 42.9173 38.6466C41.6004 38.6466 40.9675 38.2075 40.8382 37.0968H39.0049C39.0695 39.047 40.4897 40.1573 42.9946 40.1573C45.0732 40.1573 46.5839 39.1116 46.5839 37.2388C46.5839 35.2499 45.0346 34.798 43.1366 34.3845Z" fill="black"/>
</g>
<defs>
<clipPath id="clip0_1_1122">
<rect width="72" height="72" fill="white" transform="translate(0.296875)"/>
</clipPath>
</defs>
</svg>
