<svg width="73" height="72" viewBox="0 0 73 72" fill="none" xmlns="http://www.w3.org/2000/svg">
<path d="M66.5984 2.48633C66.7757 2.48633 66.9531 2.66133 66.9531 2.83633V9.13645C66.9531 9.31145 66.7757 9.48646 66.5984 9.48646H41.0002V61.2291H66.5984C66.7757 61.2291 66.894 61.3457 66.9531 61.4624V61.5791V67.8792C66.9531 68.0542 66.8349 68.1709 66.7166 68.2292H66.5984H8.36695C8.18959 68.2292 8.07136 68.1125 8.01224 67.9958V67.8792V61.5791C8.01224 61.4041 8.13047 61.2874 8.24871 61.2291H8.36695H33.9651V9.48646H8.36695C8.18959 9.48646 8.07136 9.36978 8.01224 9.25311V9.13645V2.83633C8.01224 2.66133 8.18959 2.48633 8.36695 2.48633H66.5984ZM25.6886 17.2449C25.8659 17.2449 25.9842 17.3616 26.0433 17.4783V17.5949V53.1206C26.0433 53.2956 25.925 53.4123 25.8068 53.4706H25.6886H8.30783C8.13048 53.4706 8.01224 53.3539 7.95312 53.2373V53.1206V46.8205C7.95312 46.6455 8.07136 46.5288 8.1896 46.4705H8.30783H18.9491V24.2451H8.30783C8.13048 24.2451 8.01224 24.1284 7.95312 24.0117V23.8951V17.5949C7.95312 17.4199 8.07136 17.3033 8.1896 17.2449H8.30783H25.6886ZM66.5984 17.2449C66.7757 17.2449 66.894 17.3616 66.9531 17.4783V17.5949V23.8951C66.9531 24.0701 66.8349 24.1867 66.7166 24.2451H66.5984H55.9571V46.4705H66.5984C66.7757 46.4705 66.894 46.5871 66.9531 46.7038V46.8205V53.1206C66.9531 53.2956 66.8349 53.4123 66.7166 53.4706H66.5984H49.2176C49.0403 53.4706 48.922 53.3539 48.8629 53.2373V53.1206V17.5949C48.8629 17.4199 48.9812 17.3033 49.0994 17.2449H49.2176H66.5984Z" fill="#00CA88"/>
</svg>
